<svg width="36" height="36" viewBox="0 0 36 36" fill="none" xmlns="http://www.w3.org/2000/svg">
<path d="M29 3.5C29 4.42826 28.6312 5.3185 27.9749 5.97487C27.3185 6.63125 26.4283 7 25.5 7C24.5717 7 23.6815 6.63125 23.0251 5.97487C22.3687 5.3185 22 4.42826 22 3.5C22 2.57174 22.3687 1.6815 23.0251 1.02513C23.6815 0.368749 24.5717 0 25.5 0C26.4283 0 27.3185 0.368749 27.9749 1.02513C28.6312 1.6815 29 2.57174 29 3.5Z" fill="white"/>
<path fill-rule="evenodd" clip-rule="evenodd" d="M25.5 5C25.8978 5 26.2794 4.84196 26.5607 4.56066C26.842 4.27936 27 3.89782 27 3.5C27 3.10218 26.842 2.72064 26.5607 2.43934C26.2794 2.15804 25.8978 2 25.5 2C25.1022 2 24.7206 2.15804 24.4393 2.43934C24.158 2.72064 24 3.10218 24 3.5C24 3.89782 24.158 4.27936 24.4393 4.56066C24.7206 4.84196 25.1022 5 25.5 5ZM25.5 7C25.9596 7 26.4148 6.90947 26.8394 6.73358C27.264 6.55769 27.6499 6.29988 27.9749 5.97487C28.2999 5.64987 28.5577 5.26403 28.7336 4.83939C28.9095 4.41475 29 3.95963 29 3.5C29 3.04037 28.9095 2.58525 28.7336 2.16061C28.5577 1.73597 28.2999 1.35013 27.9749 1.02513C27.6499 0.700121 27.264 0.442313 26.8394 0.266422C26.4148 0.0905303 25.9596 -6.84897e-09 25.5 0C24.5717 1.38321e-08 23.6815 0.368749 23.0251 1.02513C22.3687 1.6815 22 2.57174 22 3.5C22 4.42826 22.3687 5.3185 23.0251 5.97487C23.6815 6.63125 24.5717 7 25.5 7ZM13 10C12.4696 10 11.9609 10.2107 11.5858 10.5858C11.2107 10.9609 11 11.4696 11 12C11 12.5304 11.2107 13.0391 11.5858 13.4142C11.9609 13.7893 12.4696 14 13 14H20V34C20 34.5304 20.2107 35.0391 20.5858 35.4142C20.9609 35.7893 21.4696 36 22 36C22.5304 36 23.0391 35.7893 23.4142 35.4142C23.7893 35.0391 24 34.5304 24 34V25H27V34C27 34.5304 27.2107 35.0391 27.5858 35.4142C27.9609 35.7893 28.4696 36 29 36C29.5304 36 30.0391 35.7893 30.4142 35.4142C30.7893 35.0391 31 34.5304 31 34V21.917C32.4801 21.6623 33.8109 20.8619 34.7297 19.6739C35.6485 18.4859 36.0885 16.9967 35.9629 15.5001C35.8373 14.0035 35.1552 12.6084 34.0513 11.5902C32.9474 10.5719 31.5018 10.0045 30 10H13ZM33 16C33 15.4696 32.7893 14.9609 32.4142 14.5858C32.0391 14.2107 31.5304 14 31 14V18C31.5304 18 32.0391 17.7893 32.4142 17.4142C32.7893 17.0391 33 16.5304 33 16Z" fill="white"/>
<path fill-rule="evenodd" clip-rule="evenodd" d="M0 26C0 25.4696 0.210714 24.9609 0.585786 24.5858C0.960859 24.2107 1.46957 24 2 24H15C15.5304 24 16.0391 24.2107 16.4142 24.5858C16.7893 24.9609 17 25.4696 17 26V34C17 34.5304 16.7893 35.0391 16.4142 35.4142C16.0391 35.7893 15.5304 36 15 36H2C1.46957 36 0.960859 35.7893 0.585786 35.4142C0.210714 35.0391 0 34.5304 0 34V26ZM4 33V27H6V33H4ZM11 27V33H13V27H11ZM5 22C5 21.4696 5.21071 20.9609 5.58579 20.5858C5.96086 20.2107 6.46957 20 7 20H10C10.5304 20 11.0391 20.2107 11.4142 20.5858C11.7893 20.9609 12 21.4696 12 22V24H10V22H7V24H5V22Z" fill="white"/>
</svg>
