<svg width="389" height="338" viewBox="0 0 389 338" fill="none" xmlns="http://www.w3.org/2000/svg">
<g clip-path="url(#clip0_1434_481)">
<path d="M307.181 27.9119C306.744 27.6193 306.301 27.3418 305.864 27.0592C293.227 18.9438 279.682 12.351 265.509 7.41692L262.222 52.9378H241.389V0.771937C240.077 0.499477 238.756 0.242155 237.434 -3.05176e-05V52.9378H212.676C199.046 52.9378 185.975 47.5013 176.337 37.8243C166.7 28.1473 161.285 15.0224 161.285 1.33709V1.33704C159.959 1.62464 158.642 1.93242 157.326 2.26038V52.9378H137.16L134.03 9.531C119.465 15.1398 105.637 22.5156 92.8551 31.4942C92.634 31.6456 92.4129 31.802 92.1968 31.9534C91.0863 32.7354 89.9908 33.5326 88.9004 34.3399V208.002H148.331L147.281 193.396L141.502 113.197H257.876L252.097 193.396L251.047 208.002H309.819V29.6678C308.945 29.0724 308.065 28.4871 307.181 27.9119ZM157.326 99.9521H140.547L137.447 56.9137H157.326V99.9521ZM237.434 99.9521H209.254V99.0994C209.254 98.6895 209.173 98.2836 209.017 97.905C208.861 97.5263 208.631 97.1824 208.343 96.8927C208.054 96.6031 207.711 96.3736 207.333 96.2172C206.956 96.0608 206.552 95.9806 206.143 95.9813H193.892C193.485 95.9811 193.081 96.0617 192.704 96.2183C192.327 96.375 191.985 96.6046 191.696 96.8942C191.408 97.1838 191.179 97.5276 191.023 97.906C190.867 98.2843 190.787 98.6899 190.787 99.0994V99.9521H161.285V56.9137H237.434V99.9521ZM241.389 99.9521V56.9137H261.936L258.835 99.9521H241.389Z" fill="#F2F2F2"/>
<path d="M371.723 315.623L372.116 306.755C376.211 304.558 380.778 303.397 385.421 303.374C379.031 308.619 379.829 318.731 375.497 325.785C374.129 327.975 372.288 329.828 370.11 331.206C367.932 332.584 365.473 333.452 362.915 333.747L357.568 337.034C356.834 332.927 356.996 328.709 358.042 324.67C359.088 320.632 360.994 316.869 363.628 313.641C365.123 311.845 366.838 310.245 368.732 308.879C370.012 312.27 371.723 315.623 371.723 315.623Z" fill="#F2F2F2"/>
<path d="M84.8214 305.905L71.917 301.983C70.2246 295.079 70.2362 287.864 71.9508 280.966C77.2649 292.424 92.4487 295.047 101.2 304.133C103.907 306.988 105.941 310.418 107.149 314.169C108.357 317.92 108.709 321.896 108.178 325.802L111.003 334.975C104.681 334.517 98.5337 332.688 92.9838 329.614C87.4338 326.541 82.6134 322.296 78.8547 317.172C76.7744 314.276 75.0656 311.129 73.7685 307.805C79.2416 307.181 84.8214 305.905 84.8214 305.905Z" fill="#F2F2F2"/>
<path d="M361.681 335.584C361.68 335.852 361.573 336.11 361.385 336.3C361.292 336.394 361.181 336.467 361.06 336.518C360.938 336.568 360.808 336.594 360.676 336.593H356.636C356.504 336.594 356.373 336.568 356.251 336.517C356.129 336.467 356.018 336.392 355.925 336.299C355.831 336.205 355.757 336.093 355.707 335.971C355.657 335.848 355.631 335.717 355.631 335.584V212.907C355.631 210.202 354.727 208.007 353.616 208.002H50.8659C49.7503 208.007 48.8509 210.202 48.8458 212.907V334.832C48.845 335.083 48.7515 335.324 48.5835 335.51C48.4155 335.695 48.1849 335.812 47.9363 335.836C47.1223 335.917 46.3082 335.988 45.4992 336.053C45.4791 336.053 45.459 336.058 45.4389 336.058C44.9967 336.099 44.5545 336.129 44.1123 336.164H44.1073C43.8761 335.745 43.655 335.317 43.4289 334.888C43.3564 334.742 43.3186 334.581 43.3184 334.418V206.544C43.3184 205.798 43.3485 205.046 43.3988 204.304C43.4705 203.286 43.5963 202.272 43.7756 201.267C44.6249 196.579 46.5444 193.406 48.7253 193.396H355.752C356.07 193.398 356.385 193.465 356.677 193.592C357.105 193.783 357.493 194.055 357.817 194.395C358.258 194.855 358.635 195.372 358.938 195.933C360.013 197.836 360.782 200.671 361.053 203.971C361.053 204.001 361.058 204.032 361.058 204.062C361.129 204.879 361.164 205.712 361.159 206.544L361.229 217.357L361.274 223.805L361.41 244.038L361.46 251.222L361.681 335.584Z" fill="#E6E6E6"/>
<path d="M388.402 337.845L249.838 338C249.679 338 249.528 337.936 249.416 337.823C249.304 337.711 249.241 337.558 249.241 337.399C249.241 337.24 249.304 337.088 249.416 336.975C249.528 336.862 249.679 336.799 249.838 336.798L388.402 336.643C388.56 336.644 388.712 336.707 388.824 336.82C388.936 336.933 388.998 337.085 388.998 337.244C388.998 337.403 388.936 337.556 388.824 337.668C388.712 337.781 388.56 337.844 388.402 337.845Z" fill="#CACACA"/>
<path d="M216.41 157.553H191.869C191.522 157.553 191.189 157.692 190.944 157.939C190.699 158.186 190.561 158.52 190.562 158.869V197.795H217.721V158.869C217.721 158.696 217.687 158.525 217.621 158.365C217.555 158.205 217.459 158.06 217.337 157.938C217.215 157.816 217.071 157.719 216.912 157.653C216.753 157.587 216.582 157.553 216.41 157.553ZM204.222 179.67C203.455 179.667 202.72 179.359 202.177 178.814C201.634 178.269 201.328 177.531 201.324 176.76V172.271C201.324 171.499 201.629 170.759 202.173 170.213C202.716 169.667 203.454 169.361 204.222 169.361C204.991 169.361 205.728 169.667 206.271 170.213C206.815 170.759 207.12 171.499 207.12 172.271V176.76C207.116 177.531 206.81 178.269 206.267 178.814C205.725 179.359 204.99 179.667 204.222 179.67V179.67Z" fill="#2F2E41"/>
<path d="M257.048 96.8037H152.144C151.243 96.8052 150.379 97.1653 149.742 97.8052C149.104 98.4451 148.746 99.3126 148.744 100.218V171.297C148.745 172.202 149.104 173.07 149.741 173.71C150.378 174.35 151.243 174.71 152.144 174.71H257.048C257.949 174.71 258.814 174.35 259.451 173.71C260.089 173.07 260.447 172.202 260.448 171.297V100.218C260.446 99.3126 260.088 98.4451 259.45 97.8052C258.813 97.1653 257.949 96.8052 257.048 96.8037V96.8037Z" fill="#3F3D56"/>
<path d="M256.17 99.2689H153.018C152.536 99.2699 152.073 99.4631 151.733 99.8061C151.392 100.149 151.2 100.614 151.2 101.098V170.416C151.201 170.9 151.393 171.364 151.734 171.706C152.074 172.048 152.536 172.241 153.018 172.241H256.17C256.652 172.241 257.114 172.048 257.455 171.706C257.796 171.364 257.988 170.9 257.988 170.416V101.098C257.988 100.614 257.797 100.149 257.456 99.8061C257.115 99.4631 256.653 99.2699 256.17 99.2689V99.2689Z" fill="white"/>
<path d="M190.478 196.55V200.306C190.478 200.5 190.555 200.687 190.692 200.824C190.829 200.962 191.015 201.039 191.209 201.04H217.074C217.268 201.039 217.453 200.961 217.59 200.824C217.727 200.686 217.804 200.5 217.805 200.306V196.55H190.478Z" fill="#3F3D56"/>
<path d="M236.081 202.347H174.711C174.543 202.347 174.377 202.309 174.225 202.237C174.074 202.164 173.94 202.058 173.834 201.927C173.728 201.796 173.653 201.643 173.614 201.479C173.574 201.316 173.572 201.145 173.606 200.98L174.558 196.439C174.613 196.185 174.752 195.957 174.953 195.793C175.154 195.629 175.404 195.54 175.663 195.539H235.129C235.387 195.54 235.638 195.629 235.839 195.793C236.04 195.957 236.179 196.185 236.233 196.439L237.185 200.98C237.22 201.145 237.217 201.316 237.178 201.479C237.138 201.643 237.063 201.796 236.957 201.927C236.851 202.058 236.718 202.164 236.566 202.237C236.414 202.309 236.249 202.347 236.081 202.347V202.347Z" fill="#2F2E41"/>
<path d="M177.743 196.356H176.344C176.208 196.356 176.099 196.467 176.099 196.603V197.249C176.099 197.385 176.208 197.495 176.344 197.495H177.743C177.879 197.495 177.989 197.385 177.989 197.249V196.603C177.989 196.467 177.879 196.356 177.743 196.356Z" fill="#3F3D56"/>
<path d="M181.524 196.356H180.124C179.989 196.356 179.879 196.467 179.879 196.603V197.249C179.879 197.385 179.989 197.495 180.124 197.495H181.524C181.659 197.495 181.769 197.385 181.769 197.249V196.603C181.769 196.467 181.659 196.356 181.524 196.356Z" fill="#3F3D56"/>
<path d="M185.304 196.356H183.904C183.769 196.356 183.659 196.467 183.659 196.603V197.249C183.659 197.385 183.769 197.495 183.904 197.495H185.304C185.439 197.495 185.549 197.385 185.549 197.249V196.603C185.549 196.467 185.439 196.356 185.304 196.356Z" fill="#3F3D56"/>
<path d="M189.084 196.356H187.685C187.549 196.356 187.439 196.467 187.439 196.603V197.249C187.439 197.385 187.549 197.495 187.685 197.495H189.084C189.22 197.495 189.33 197.385 189.33 197.249V196.603C189.33 196.467 189.22 196.356 189.084 196.356Z" fill="#3F3D56"/>
<path d="M192.865 196.356H191.465C191.33 196.356 191.22 196.467 191.22 196.603V197.249C191.22 197.385 191.33 197.495 191.465 197.495H192.865C193 197.495 193.11 197.385 193.11 197.249V196.603C193.11 196.467 193 196.356 192.865 196.356Z" fill="#3F3D56"/>
<path d="M196.645 196.356H195.245C195.11 196.356 195 196.467 195 196.603V197.249C195 197.385 195.11 197.495 195.245 197.495H196.645C196.78 197.495 196.89 197.385 196.89 197.249V196.603C196.89 196.467 196.78 196.356 196.645 196.356Z" fill="#3F3D56"/>
<path d="M200.425 196.356H199.026C198.89 196.356 198.78 196.467 198.78 196.603V197.249C198.78 197.385 198.89 197.495 199.026 197.495H200.425C200.561 197.495 200.67 197.385 200.67 197.249V196.603C200.67 196.467 200.561 196.356 200.425 196.356Z" fill="#3F3D56"/>
<path d="M204.205 196.356H202.806C202.67 196.356 202.561 196.467 202.561 196.603V197.249C202.561 197.385 202.67 197.495 202.806 197.495H204.205C204.341 197.495 204.451 197.385 204.451 197.249V196.603C204.451 196.467 204.341 196.356 204.205 196.356Z" fill="#3F3D56"/>
<path d="M207.986 196.356H206.586C206.451 196.356 206.341 196.467 206.341 196.603V197.249C206.341 197.385 206.451 197.495 206.586 197.495H207.986C208.121 197.495 208.231 197.385 208.231 197.249V196.603C208.231 196.467 208.121 196.356 207.986 196.356Z" fill="#3F3D56"/>
<path d="M211.766 196.356H210.366C210.231 196.356 210.121 196.467 210.121 196.603V197.249C210.121 197.385 210.231 197.495 210.366 197.495H211.766C211.901 197.495 212.011 197.385 212.011 197.249V196.603C212.011 196.467 211.901 196.356 211.766 196.356Z" fill="#3F3D56"/>
<path d="M215.546 196.356H214.147C214.011 196.356 213.901 196.467 213.901 196.603V197.249C213.901 197.385 214.011 197.495 214.147 197.495H215.546C215.682 197.495 215.791 197.385 215.791 197.249V196.603C215.791 196.467 215.682 196.356 215.546 196.356Z" fill="#3F3D56"/>
<path d="M219.326 196.356H217.927C217.791 196.356 217.682 196.467 217.682 196.603V197.249C217.682 197.385 217.791 197.495 217.927 197.495H219.326C219.462 197.495 219.572 197.385 219.572 197.249V196.603C219.572 196.467 219.462 196.356 219.326 196.356Z" fill="#3F3D56"/>
<path d="M223.107 196.356H221.707C221.572 196.356 221.462 196.467 221.462 196.603V197.249C221.462 197.385 221.572 197.495 221.707 197.495H223.107C223.242 197.495 223.352 197.385 223.352 197.249V196.603C223.352 196.467 223.242 196.356 223.107 196.356Z" fill="#3F3D56"/>
<path d="M226.887 196.356H225.488C225.352 196.356 225.242 196.467 225.242 196.603V197.249C225.242 197.385 225.352 197.495 225.488 197.495H226.887C227.022 197.495 227.132 197.385 227.132 197.249V196.603C227.132 196.467 227.022 196.356 226.887 196.356Z" fill="#3F3D56"/>
<path d="M230.667 196.356H229.268C229.132 196.356 229.022 196.467 229.022 196.603V197.249C229.022 197.385 229.132 197.495 229.268 197.495H230.667C230.803 197.495 230.913 197.385 230.913 197.249V196.603C230.913 196.467 230.803 196.356 230.667 196.356Z" fill="#3F3D56"/>
<path d="M234.447 196.356H233.047C232.912 196.356 232.802 196.467 232.802 196.603V197.249C232.802 197.385 232.912 197.495 233.047 197.495H234.447C234.582 197.495 234.692 197.385 234.692 197.249V196.603C234.692 196.467 234.582 196.356 234.447 196.356Z" fill="#3F3D56"/>
<path d="M177.699 198.254H176.299C176.164 198.254 176.054 198.364 176.054 198.5V199.146C176.054 199.283 176.164 199.393 176.299 199.393H177.699C177.834 199.393 177.944 199.283 177.944 199.146V198.5C177.944 198.364 177.834 198.254 177.699 198.254Z" fill="#3F3D56"/>
<path d="M181.479 198.254H180.079C179.944 198.254 179.834 198.364 179.834 198.5V199.146C179.834 199.283 179.944 199.393 180.079 199.393H181.479C181.614 199.393 181.724 199.283 181.724 199.146V198.5C181.724 198.364 181.614 198.254 181.479 198.254Z" fill="#3F3D56"/>
<path d="M185.259 198.254H183.86C183.724 198.254 183.614 198.364 183.614 198.5V199.146C183.614 199.283 183.724 199.393 183.86 199.393H185.259C185.395 199.393 185.504 199.283 185.504 199.146V198.5C185.504 198.364 185.395 198.254 185.259 198.254Z" fill="#3F3D56"/>
<path d="M189.039 198.254H187.64C187.504 198.254 187.395 198.364 187.395 198.5V199.146C187.395 199.283 187.504 199.393 187.64 199.393H189.039C189.175 199.393 189.285 199.283 189.285 199.146V198.5C189.285 198.364 189.175 198.254 189.039 198.254Z" fill="#3F3D56"/>
<path d="M192.82 198.254H191.42C191.285 198.254 191.175 198.364 191.175 198.5V199.146C191.175 199.283 191.285 199.393 191.42 199.393H192.82C192.955 199.393 193.065 199.283 193.065 199.146V198.5C193.065 198.364 192.955 198.254 192.82 198.254Z" fill="#3F3D56"/>
<path d="M196.6 198.254H195.2C195.065 198.254 194.955 198.364 194.955 198.5V199.146C194.955 199.283 195.065 199.393 195.2 199.393H196.6C196.735 199.393 196.845 199.283 196.845 199.146V198.5C196.845 198.364 196.735 198.254 196.6 198.254Z" fill="#3F3D56"/>
<path d="M200.38 198.254H198.981C198.845 198.254 198.735 198.364 198.735 198.5V199.146C198.735 199.283 198.845 199.393 198.981 199.393H200.38C200.516 199.393 200.625 199.283 200.625 199.146V198.5C200.625 198.364 200.516 198.254 200.38 198.254Z" fill="#3F3D56"/>
<path d="M204.16 198.254H202.761C202.625 198.254 202.516 198.364 202.516 198.5V199.146C202.516 199.283 202.625 199.393 202.761 199.393H204.16C204.296 199.393 204.406 199.283 204.406 199.146V198.5C204.406 198.364 204.296 198.254 204.16 198.254Z" fill="#3F3D56"/>
<path d="M207.941 198.254H206.541C206.406 198.254 206.296 198.364 206.296 198.5V199.146C206.296 199.283 206.406 199.393 206.541 199.393H207.941C208.076 199.393 208.186 199.283 208.186 199.146V198.5C208.186 198.364 208.076 198.254 207.941 198.254Z" fill="#3F3D56"/>
<path d="M211.721 198.254H210.321C210.186 198.254 210.076 198.364 210.076 198.5V199.146C210.076 199.283 210.186 199.393 210.321 199.393H211.721C211.856 199.393 211.966 199.283 211.966 199.146V198.5C211.966 198.364 211.856 198.254 211.721 198.254Z" fill="#3F3D56"/>
<path d="M215.501 198.254H214.102C213.966 198.254 213.856 198.364 213.856 198.5V199.146C213.856 199.283 213.966 199.393 214.102 199.393H215.501C215.637 199.393 215.747 199.283 215.747 199.146V198.5C215.747 198.364 215.637 198.254 215.501 198.254Z" fill="#3F3D56"/>
<path d="M219.282 198.254H217.882C217.747 198.254 217.637 198.364 217.637 198.5V199.146C217.637 199.283 217.747 199.393 217.882 199.393H219.282C219.417 199.393 219.527 199.283 219.527 199.146V198.5C219.527 198.364 219.417 198.254 219.282 198.254Z" fill="#3F3D56"/>
<path d="M223.062 198.254H221.662C221.527 198.254 221.417 198.364 221.417 198.5V199.146C221.417 199.283 221.527 199.393 221.662 199.393H223.062C223.197 199.393 223.307 199.283 223.307 199.146V198.5C223.307 198.364 223.197 198.254 223.062 198.254Z" fill="#3F3D56"/>
<path d="M226.842 198.254H225.443C225.307 198.254 225.197 198.364 225.197 198.5V199.146C225.197 199.283 225.307 199.393 225.443 199.393H226.842C226.978 199.393 227.087 199.283 227.087 199.146V198.5C227.087 198.364 226.978 198.254 226.842 198.254Z" fill="#3F3D56"/>
<path d="M230.622 198.254H229.223C229.087 198.254 228.978 198.364 228.978 198.5V199.146C228.978 199.283 229.087 199.393 229.223 199.393H230.622C230.758 199.393 230.868 199.283 230.868 199.146V198.5C230.868 198.364 230.758 198.254 230.622 198.254Z" fill="#3F3D56"/>
<path d="M234.403 198.254H233.003C232.868 198.254 232.758 198.364 232.758 198.5V199.146C232.758 199.283 232.868 199.393 233.003 199.393H234.403C234.538 199.393 234.648 199.283 234.648 199.146V198.5C234.648 198.364 234.538 198.254 234.403 198.254Z" fill="#3F3D56"/>
<path d="M209.075 200.532H194.445C194.309 200.532 194.199 200.642 194.199 200.778V201.424C194.199 201.56 194.309 201.67 194.445 201.67H209.075C209.21 201.67 209.32 201.56 209.32 201.424V200.778C209.32 200.642 209.21 200.532 209.075 200.532Z" fill="#3F3D56"/>
<path d="M250.987 108.82H154.469C154.368 108.818 154.273 108.776 154.202 108.704C154.132 108.632 154.093 108.535 154.093 108.434C154.093 108.334 154.132 108.237 154.202 108.165C154.273 108.093 154.368 108.051 154.469 108.049H250.987C251.088 108.051 251.183 108.093 251.254 108.165C251.324 108.237 251.363 108.334 251.363 108.434C251.363 108.535 251.324 108.632 251.254 108.704C251.183 108.776 251.088 108.818 250.987 108.82V108.82Z" fill="#CACACA"/>
<path d="M161.038 106.081C162.281 106.081 163.288 105.048 163.288 103.772C163.288 102.497 162.281 101.463 161.038 101.463C159.796 101.463 158.789 102.497 158.789 103.772C158.789 105.048 159.796 106.081 161.038 106.081Z" fill="#3F3D56"/>
<path d="M168.809 106.081C170.051 106.081 171.058 105.048 171.058 103.772C171.058 102.497 170.051 101.463 168.809 101.463C167.567 101.463 166.56 102.497 166.56 103.772C166.56 105.048 167.567 106.081 168.809 106.081Z" fill="#3F3D56"/>
<path d="M176.58 106.081C177.823 106.081 178.83 105.048 178.83 103.772C178.83 102.497 177.823 101.463 176.58 101.463C175.338 101.463 174.331 102.497 174.331 103.772C174.331 105.048 175.338 106.081 176.58 106.081Z" fill="#3F3D56"/>
<path d="M246.309 102.036H240.789C240.679 102.038 240.575 102.083 240.498 102.162C240.422 102.24 240.379 102.346 240.379 102.455C240.379 102.565 240.422 102.671 240.498 102.749C240.575 102.828 240.679 102.873 240.789 102.875H246.309C246.418 102.873 246.522 102.828 246.599 102.749C246.675 102.671 246.718 102.565 246.718 102.455C246.718 102.346 246.675 102.24 246.599 102.162C246.522 102.083 246.418 102.038 246.309 102.036V102.036Z" fill="#3F3D56"/>
<path d="M246.309 103.611H240.789C240.679 103.613 240.575 103.658 240.498 103.737C240.422 103.815 240.379 103.921 240.379 104.031C240.379 104.141 240.422 104.246 240.498 104.325C240.575 104.403 240.679 104.448 240.789 104.45H246.309C246.418 104.448 246.522 104.403 246.599 104.325C246.675 104.246 246.718 104.141 246.718 104.031C246.718 103.921 246.675 103.815 246.599 103.737C246.522 103.658 246.418 103.613 246.309 103.611V103.611Z" fill="#3F3D56"/>
<path d="M246.309 105.184H240.789C240.679 105.186 240.575 105.232 240.498 105.31C240.422 105.389 240.379 105.494 240.379 105.604C240.379 105.714 240.422 105.819 240.498 105.898C240.575 105.976 240.679 106.021 240.789 106.024H246.309C246.418 106.021 246.522 105.976 246.599 105.898C246.675 105.819 246.718 105.714 246.718 105.604C246.718 105.494 246.675 105.389 246.599 105.31C246.522 105.232 246.418 105.186 246.309 105.184V105.184Z" fill="#3F3D56"/>
<path d="M210.438 131.335H198.378C197.472 131.335 196.737 132.073 196.737 132.982V132.982C196.737 133.892 197.472 134.629 198.378 134.629H210.438C211.344 134.629 212.078 133.892 212.078 132.982V132.982C212.078 132.073 211.344 131.335 210.438 131.335Z" fill="#046CC6"/>
<path d="M218.229 137.923H190.587C189.681 137.923 188.946 138.66 188.946 139.57V139.57C188.946 140.48 189.681 141.217 190.587 141.217H218.229C219.135 141.217 219.87 140.48 219.87 139.57V139.57C219.87 138.66 219.135 137.923 218.229 137.923Z" fill="#E6E6E6"/>
<path d="M218.229 144.511H190.587C189.681 144.511 188.946 145.248 188.946 146.158C188.946 147.067 189.681 147.805 190.587 147.805H218.229C219.135 147.805 219.87 147.067 219.87 146.158C219.87 145.248 219.135 144.511 218.229 144.511Z" fill="#E6E6E6"/>
<path d="M155.411 207.301H125.261C124.195 207.301 123.173 207.726 122.419 208.483C121.665 209.24 121.241 210.267 121.241 211.338C121.241 212.408 121.665 213.435 122.419 214.192C123.173 214.949 124.195 215.374 125.261 215.374H136.316V246.656H144.356V215.374H155.411C156.477 215.374 157.5 214.949 158.254 214.192C159.008 213.435 159.431 212.408 159.431 211.338C159.431 210.267 159.008 209.24 158.254 208.483C157.5 207.726 156.477 207.301 155.411 207.301Z" fill="#3F3D56"/>
<path d="M175.311 263.981H94.6686C86.8507 263.952 79.304 261.101 73.4071 255.947C67.5102 250.793 63.6567 243.681 62.5506 235.91L59.6961 225.367C53.7877 203.52 44.7882 182.636 32.9725 163.356C27.572 154.549 24.7924 146.025 31.1058 137.818C31.1596 137.748 31.2124 137.679 31.2644 137.611C36.3282 130.993 61.5321 129.56 69.7485 129.282C70.0731 129.271 70.3989 129.265 70.726 129.265H120.885C121.212 129.265 121.538 129.271 121.862 129.282C126.291 129.411 130.603 130.743 134.34 133.134C138.076 135.525 141.099 138.888 143.086 142.865C145.206 146.925 146.192 151.486 145.94 156.063C145.687 160.641 144.205 165.064 141.651 168.864C124.031 195.44 118.637 212.103 124.16 222.894C129.502 233.332 145.878 238.669 175.695 239.689C183.708 239.963 187.386 246.228 187.411 251.932C187.436 257.49 183.901 263.626 176.079 263.965C175.825 263.976 175.569 263.981 175.311 263.981Z" fill="#3F3D56"/>
<path d="M108.368 335.88H138.518C139.584 335.88 140.606 335.455 141.36 334.698C142.114 333.941 142.538 332.914 142.538 331.844C142.538 330.773 142.114 329.746 141.36 328.989C140.606 328.232 139.584 327.807 138.518 327.807H127.463V259.692H119.423V327.807H108.368C107.301 327.807 106.279 328.232 105.525 328.989C104.771 329.746 104.348 330.773 104.348 331.844C104.348 332.914 104.771 333.941 105.525 334.698C106.279 335.455 107.301 335.88 108.368 335.88Z" fill="#3F3D56"/>
<path d="M105.96 131.793L106.592 135.65C106.891 137.52 107.974 150.729 107.172 152.305C107.101 149.362 101.644 144.736 98.1084 145.793L92.5597 147.03L89.1158 147.8L86.3129 148.417L78.1678 150.204C78.1536 150.109 78.1433 150.008 78.1291 149.913C78.1098 149.793 78.0906 149.674 78.0664 149.555C77.9148 148.788 77.6381 148.051 77.2477 147.375C77.2063 148.281 76.9399 149.163 76.4726 149.939C76.4598 149.959 76.4487 149.981 76.4394 150.003C76.2947 150.238 76.135 150.463 75.9614 150.678C75.9534 150.683 75.9461 150.69 75.9398 150.697C75.9398 150.697 74.2663 123.911 74.4416 123.664C74.5699 123.488 74.6992 123.317 74.8345 123.15C74.9688 122.978 75.0991 122.813 75.2393 122.645C75.2572 122.629 75.2725 122.61 75.2843 122.589C75.6769 122.123 76.0927 121.676 76.53 121.252C76.6586 121.127 76.792 121.002 76.9255 120.877C78.9632 118.984 81.3978 117.574 84.0501 116.75C84.3493 116.658 84.6603 116.574 84.9763 116.488C85.2883 116.408 85.6063 116.333 85.9263 116.267L86.0346 116.245C86.1872 116.213 86.3458 116.186 86.4994 116.16C86.6923 116.125 86.8864 116.096 87.0765 116.072C89.5442 115.715 92.0581 115.857 94.4705 116.489C94.4754 116.488 94.4764 116.493 94.4814 116.492C96.4951 117.021 98.409 117.876 100.147 119.026C103.154 121.019 104.324 124.27 105.155 127.921C105.447 129.175 105.692 130.479 105.96 131.793Z" fill="#2F2E41"/>
<path d="M135.656 308.419L140.85 311.252L154.599 292.164L146.933 287.983L135.656 308.419Z" fill="#FFB6B6"/>
<path d="M138.156 301.618L147.585 304.582L146.085 308.549L152.55 317.971C152.869 318.436 153.032 318.992 153.015 319.557C152.998 320.122 152.801 320.666 152.453 321.111C152.106 321.556 151.626 321.877 151.084 322.028C150.542 322.18 149.965 322.153 149.439 321.953L138.463 317.765L138.055 313.12L135.832 316.762L131.693 315.183L138.156 301.618Z" fill="#2F2E41"/>
<path d="M165.076 223.043C164.247 223.246 163.384 223.264 162.547 223.095C161.711 222.927 160.921 222.576 160.234 222.068C159.547 221.56 158.979 220.907 158.571 220.154C158.163 219.402 157.923 218.569 157.87 217.714L113.569 201.712L121.7 194.608L163.747 211.418C165.184 211.424 166.569 211.958 167.639 212.92C168.709 213.882 169.391 215.205 169.554 216.638C169.718 218.071 169.353 219.515 168.527 220.695C167.702 221.876 166.474 222.711 165.076 223.043V223.043Z" fill="#FFB6B6"/>
<path d="M101.193 162.067C101.193 162.067 93.7319 162.233 93.0685 170.786C92.4052 179.339 108.686 200.495 111.208 203.984C113.73 207.472 141.748 211.766 141.748 211.766L151.273 204.824C141.265 198.312 132.131 193.32 126.002 193.544L101.193 162.067Z" fill="#046CC6"/>
<path d="M92.042 199.807L93.8601 207.651C93.8601 207.651 93.878 214.884 95.1537 216.217C96.4205 217.544 124.276 214.879 124.276 214.879C124.276 214.879 121.323 203.224 121.362 194.405L92.042 199.807Z" fill="#FFB6B6"/>
<path d="M150.888 300.139L140.838 294.589C140.647 281.458 148.513 263.688 157.843 245.076C136.977 248.679 117.293 249.833 100.267 245.474C97.4716 244.733 95.0791 242.918 93.6064 240.42C92.1336 237.922 91.6989 234.942 92.3962 232.125C92.4625 231.849 92.5391 231.575 92.6261 231.304C94.6638 225.062 90.0947 221.149 94.2972 214.283C105.35 210.492 115.85 209.422 125.452 212.769L131.468 226.125L161.288 222.251C162.729 222.078 164.189 222.193 165.585 222.589C166.981 222.986 168.286 223.656 169.423 224.561C170.56 225.465 171.507 226.587 172.211 227.862C172.914 229.136 173.359 230.537 173.52 231.985C173.561 232.31 173.587 232.637 173.599 232.964C167.569 261.347 160.809 286.885 150.888 300.139Z" fill="#2F2E41"/>
<path d="M93.4228 145.604C100.167 144.218 104.516 137.605 103.136 130.834C101.756 124.062 95.1696 119.695 88.4254 121.081C81.6811 122.467 77.3326 129.08 78.7126 135.851C80.0926 142.623 86.6786 146.99 93.4228 145.604Z" fill="#FFB6B6"/>
<path d="M87.9941 150.147L99.4818 149.466C99.9662 149.437 100.448 149.561 100.859 149.82C101.27 150.079 101.59 150.46 101.775 150.911L105.021 158.813L118.514 170.01C118.514 170.01 123.856 176.836 123.868 185.651C123.88 194.466 125.763 214.869 125.763 214.869C125.763 214.869 117.967 203.851 113.155 206.781C112.336 207.28 112.048 208.3 111.191 208.815C110.763 209.072 109.775 208.822 109.343 209.079C102.712 213.032 95.7966 216.893 95.1505 216.216C93.8818 214.887 92.3428 208.094 92.3428 208.094L81.8275 169.3C81.2574 167.259 81.1442 165.117 81.496 163.026C81.8477 160.936 82.6558 158.95 83.8623 157.21C84.5969 156.172 85.3666 155.399 86.0819 155.271C87.6879 154.928 86.8336 151.314 87.9941 150.147Z" fill="#046CC6"/>
<path d="M185.715 324.852L190.565 321.467L179.579 300.657L172.423 305.653L185.715 324.852Z" fill="#FFB6B6"/>
<path d="M186.448 310.889L178.849 317.71C166.765 304.19 157.629 285.229 149.888 263.696C129.604 257.731 114.307 248.111 100.954 236.689C96.4234 232.84 93.0274 227.895 96.8911 223.207C97.0717 222.987 97.2603 222.775 97.4569 222.571C102.019 217.863 113.587 218.76 120.363 214.448L135.499 230.692L134.547 235.048L162.977 244.717C164.345 245.199 165.604 245.947 166.683 246.92C167.761 247.892 168.637 249.07 169.26 250.384C169.883 251.698 170.241 253.123 170.312 254.577C170.384 256.03 170.169 257.484 169.678 258.853C169.572 259.163 169.452 259.468 169.319 259.767L186.448 310.889Z" fill="#2F2E41"/>
<path d="M182.888 323.48L190.65 317.342L193.062 320.826L204.458 320.791C205.02 320.789 205.569 320.968 206.024 321.302C206.478 321.635 206.814 322.106 206.983 322.645C207.153 323.184 207.146 323.763 206.964 324.298C206.782 324.832 206.435 325.295 205.972 325.617L196.331 332.347L192.283 330.061L194.02 333.96L190.385 336.497L182.888 323.48Z" fill="#2F2E41"/>
<path d="M104.958 247.914C104.173 247.579 103.47 247.076 102.9 246.439C102.329 245.802 101.904 245.047 101.656 244.228C101.407 243.408 101.34 242.544 101.46 241.696C101.58 240.847 101.884 240.036 102.35 239.318L76.3438 199.912L87.0903 199.092L110.809 237.794C111.958 238.66 112.75 239.919 113.036 241.333C113.322 242.747 113.082 244.216 112.36 245.464C111.639 246.711 110.487 247.649 109.123 248.101C107.759 248.553 106.277 248.486 104.958 247.914Z" fill="#FFB6B6"/>
<path d="M90.0055 160.696C90.0055 160.696 83.9236 156.353 78.3029 162.814C72.6822 169.275 73.1516 196.007 73.0987 200.318C73.0822 201.668 75.0235 204.58 77.6982 207.945C78.8989 209.455 80.2475 211.057 81.6331 212.649C82.4349 213.57 81.744 215.488 82.5491 216.383C83.3498 217.274 85.6466 217.142 86.4082 217.969C90.0233 221.892 92.9601 224.878 92.9601 224.878L104.729 225.023C104.862 216.239 98.8704 208.398 91.1735 200.82L90.0055 160.696Z" fill="#046CC6"/>
<path d="M106.503 127.263C106.042 127.492 105.594 127.712 105.155 127.921C103.391 128.792 101.568 129.536 99.6999 130.149C99.389 129.3 98.9148 128.521 98.3042 127.856C98.4605 128.774 98.3809 129.718 98.0729 130.597C95.2451 131.3 92.2768 131.185 89.5114 130.265C91.3199 133.627 92.656 140.712 92.5588 147.03C92.5164 150.371 92.0661 153.497 91.0826 155.744L89.8189 151.883C89.7018 150.504 89.4662 149.138 89.115 147.8C88.2676 144.044 87.4765 146.555 86.312 148.417L78.1669 150.204C78.1527 150.109 78.1424 150.008 78.1282 149.913C78.1089 149.793 78.0897 149.674 78.0655 149.555C77.9139 148.788 77.6373 148.051 77.2468 147.375C77.2055 148.281 76.939 149.163 76.4717 149.939C76.4589 149.959 76.4478 149.981 76.4385 150.003C76.2938 150.238 76.1342 150.463 75.9606 150.678C75.9525 150.683 75.9452 150.69 75.939 150.698C70.6803 151.404 66.994 124.175 74.4417 123.668C74.6582 123.654 74.6994 123.322 74.8336 123.15C74.9679 122.978 75.0982 122.813 75.2384 122.645C75.2563 122.629 75.2716 122.61 75.2835 122.589C75.6815 122.126 76.0935 121.681 76.5291 121.252C76.6577 121.127 76.7912 121.002 76.9246 120.877C78.9686 118.993 81.4018 117.586 84.0502 116.755C84.3494 116.663 84.6594 116.574 84.9754 116.488C85.2874 116.409 85.6054 116.333 85.9254 116.267L86.0337 116.245C86.1863 116.214 86.3449 116.186 86.4985 116.16C86.6915 116.125 86.8855 116.096 87.0756 116.072C87.7894 116.433 88.4001 116.97 88.8505 117.633L94.0541 116.564C94.1919 116.536 94.3308 116.513 94.4706 116.494L94.4805 116.492C100.977 115.4 105.154 120.644 106.503 127.263Z" fill="#2F2E41"/>
<path d="M78.1421 122.449C77.0279 123.256 75.8558 124.088 74.4962 124.288C73.1366 124.489 71.545 123.829 71.1687 122.502C70.7086 120.879 72.1678 119.402 73.4793 118.347L77.6379 115.004C78.3995 114.325 79.2592 113.767 80.1876 113.348C80.654 113.142 81.1605 113.044 81.6697 113.061C82.1789 113.078 82.6778 113.21 83.1294 113.447C83.5764 113.75 83.9386 114.163 84.1817 114.646C84.4247 115.13 84.5404 115.668 84.5179 116.209C84.4586 117.293 84.1021 118.34 83.4879 119.234C82.7159 120.442 81.7085 121.481 80.5261 122.288C79.3438 123.095 78.0111 123.653 76.6082 123.93" fill="#2F2E41"/>
<path d="M109.684 209.319H79.5337C78.4675 209.319 77.445 209.745 76.6911 210.502C75.9372 211.259 75.5137 212.285 75.5137 213.356C75.5137 214.426 75.9372 215.453 76.6911 216.21C77.445 216.967 78.4675 217.392 79.5337 217.392H90.5886V248.675H98.6286V217.392H109.684C110.75 217.392 111.772 216.967 112.526 216.21C113.28 215.453 113.704 214.426 113.704 213.356C113.704 212.285 113.28 211.259 112.526 210.502C111.772 209.745 110.75 209.319 109.684 209.319Z" fill="#3F3D56"/>
<path d="M221.07 337.34L0.59854 337.495C0.440157 337.495 0.288421 337.431 0.176589 337.319C0.0647566 337.206 0.00195312 337.054 0.00195312 336.895C0.00195312 336.736 0.0647566 336.583 0.176589 336.47C0.288421 336.358 0.440157 336.294 0.59854 336.294L221.07 336.139C221.228 336.139 221.38 336.203 221.492 336.315C221.604 336.428 221.666 336.581 221.666 336.74C221.666 336.899 221.604 337.051 221.492 337.164C221.38 337.276 221.228 337.34 221.07 337.34Z" fill="#CACACA"/>
<path d="M285.229 270.328L290.136 275.698L313.103 259.246L305.859 251.319L285.229 270.328Z" fill="#A0616A"/>
<path d="M295.387 277.929V277.923L294.89 272.56L294.664 272.454L293.342 271.823L287.106 268.862L286.976 268.72L285.724 267.348L278.795 273.736L288.182 284.008L294.619 291.052L294.835 290.85C295.717 290.039 296.431 289.061 296.936 287.972C297.441 286.883 297.728 285.705 297.779 284.504C297.831 283.304 297.646 282.106 297.235 280.977C296.825 279.849 296.197 278.813 295.387 277.929H295.387Z" fill="#2F2E41"/>
<path d="M259.801 323.904L266.746 326.022L278.19 300.129L267.939 297.003L259.801 323.904Z" fill="#A0616A"/>
<path d="M277.785 329.701C277.225 328.639 276.46 327.7 275.535 326.937C274.611 326.175 273.544 325.605 272.398 325.261L269.247 320.896L269.001 320.917L260.675 321.683L260.489 321.628L258.72 321.088L255.986 330.125L278.383 336.956L278.468 336.669C278.818 335.519 278.937 334.312 278.82 333.116C278.702 331.92 278.351 330.76 277.785 329.701V329.701Z" fill="#2F2E41"/>
<path d="M317.076 188.334C317.076 188.334 361.422 231.325 333.387 244.633H324.722C324.722 244.633 322.118 235.344 316.156 227.511C315.338 226.435 312.271 226.653 311.419 225.605C306.219 219.204 300.581 213.706 296.687 213.924L297.618 243.629L299.126 254.225C299.917 259.702 277.578 307.527 277.578 307.527L263.536 301.986C263.536 301.986 278.166 262.595 278.337 256.916L266.613 194.475L317.076 188.334Z" fill="#2F2E41"/>
<path d="M320.773 190.454C320.547 190.778 320.252 191.047 319.909 191.241C319.344 191.562 318.732 191.79 318.095 191.917C308.11 194.193 275.493 198.91 267.026 196.66C265.986 196.388 265.307 196.004 265.086 195.5C264.378 193.905 264.468 187.169 264.885 179.036C264.961 177.512 266.634 175.862 266.735 174.268C266.805 173.072 265.302 171.947 265.383 170.731C265.936 162.507 266.649 154.126 267.126 148.828C267.428 145.423 267.634 143.293 267.634 143.293L262.483 110.684L262.725 110.285L262.996 110.149L279.604 101.895L280.508 99.5738C280.77 98.9055 281.226 98.3314 281.816 97.9258C282.406 97.5202 283.104 97.3016 283.819 97.2982L294.759 97.2528C295.326 97.2497 295.887 97.3826 296.393 97.6406C296.899 97.8986 297.336 98.2742 297.668 98.7362L300.633 102.858L320.231 115.472L320.155 115.704L310.959 143.803L310.914 145.993V145.998L310.573 163.607L311.522 165.993L310.452 169.909C310.452 169.909 310.944 174.485 313.582 177.886C315.974 180.973 319.02 184.192 320.396 186.806V186.811C321.16 188.254 321.416 189.505 320.773 190.454Z" fill="#046CC6"/>
<path d="M335.516 242.079L333.146 245.086C333.146 245.086 311.345 260.4 310.597 261.831L307.152 265.105L298.815 256.157L303.151 250.702C306.62 246.335 311.102 242.89 316.205 240.666V240.666L322.849 234.748L335.516 242.079Z" fill="#2F2E41"/>
<path d="M321.664 199.097L317.694 160.514L316.646 144.634L327.758 142.617C327.758 142.617 327.318 153.971 328.773 160.378C330.21 166.699 328.964 198.25 328.875 199.094C329.691 199.827 330.267 200.791 330.525 201.859C330.783 202.927 330.713 204.049 330.322 205.076C329.932 206.103 329.241 206.986 328.339 207.61C327.438 208.234 326.369 208.568 325.274 208.568C324.179 208.569 323.11 208.236 322.208 207.613C321.306 206.99 320.614 206.107 320.223 205.08C319.831 204.054 319.76 202.932 320.017 201.864C320.274 200.795 320.849 199.831 321.664 199.097V199.097Z" fill="#A0616A"/>
<path d="M332.503 168.509L318.22 171.478L316.972 166.479L315.516 164.928L312.607 149.628L308.434 140.666L309.518 110.017L320.118 115.662L320.131 115.672C321.752 117.439 322.869 119.968 324.727 122.506C330.581 130.502 331.231 149.933 331.053 160.576C331.051 160.751 331.226 160.936 331.436 161.13C332.432 162.048 333.083 163.284 333.277 164.629C333.472 165.973 333.198 167.344 332.503 168.509V168.509Z" fill="#046CC6"/>
<path d="M256.99 200.611L260.96 162.028L262.008 146.148L250.896 144.13C250.896 144.13 251.336 155.485 249.881 161.891C248.444 168.213 249.69 199.764 249.779 200.608C248.963 201.34 248.388 202.304 248.129 203.373C247.871 204.441 247.942 205.562 248.332 206.589C248.722 207.616 249.414 208.5 250.315 209.124C251.217 209.747 252.285 210.082 253.38 210.082C254.475 210.083 255.544 209.749 256.446 209.127C257.348 208.504 258.04 207.621 258.432 206.594C258.823 205.568 258.895 204.446 258.637 203.378C258.38 202.309 257.805 201.344 256.99 200.611V200.611Z" fill="#A0616A"/>
<path d="M270.222 142.178L267.126 148.828L266.046 151.144L263.136 166.442L261.684 167.991L260.433 172.991L259.845 172.87L249.242 170.665L246.152 170.025C245.455 168.859 245.181 167.488 245.375 166.143C245.569 164.798 246.22 163.562 247.217 162.643C247.428 162.451 247.604 162.265 247.599 162.088C247.423 151.447 248.072 132.017 253.926 124.019C255.785 121.481 256.9 118.954 258.524 117.188C258.529 117.183 258.529 117.178 258.534 117.178L262.483 110.684L262.724 110.285L262.996 110.149L270.222 142.178Z" fill="#046CC6"/>
<path d="M288.973 94.1257C297.012 94.1257 303.528 87.5825 303.528 79.511C303.528 71.4395 297.012 64.8962 288.973 64.8962C280.935 64.8962 274.418 71.4395 274.418 79.511C274.418 87.5825 280.935 94.1257 288.973 94.1257Z" fill="#A0616A"/>
<path d="M305.336 73.0998C305.286 70.6073 305.005 67.4185 303.266 64.8755C301.799 62.7362 298.839 61.0409 296.08 61.8886C296.111 61.3347 295.989 60.783 295.726 60.2949C295.463 59.8068 295.071 59.4013 294.593 59.1236C293.548 58.4828 292.291 58.3668 291.181 58.2608C288.382 57.9985 285.483 57.726 282.649 58.2659C279.468 58.8713 276.865 60.5162 275.513 62.7816L275.483 62.8523L275.207 64.1944C275.17 64.3744 275.094 64.5442 274.986 64.6923C274.878 64.8404 274.739 64.9631 274.578 65.0521C274.418 65.1424 274.24 65.196 274.057 65.2091C273.873 65.2222 273.689 65.1944 273.518 65.1278C273.331 65.0572 273.128 65.037 272.93 65.0691C272.732 65.1012 272.547 65.1845 272.391 65.3109C272.235 65.4373 272.115 65.6023 272.042 65.7897C271.969 65.977 271.946 66.1802 271.975 66.3791L272.051 66.914L271.252 66.7626C271.051 66.7236 270.844 66.7391 270.651 66.8074C270.459 66.8758 270.288 66.9945 270.156 67.1514C270.025 67.3082 269.937 67.4975 269.903 67.6997C269.868 67.9019 269.888 68.1096 269.96 68.3015L270.182 68.912C270.016 68.9142 269.854 68.9497 269.702 69.0165C269.551 69.0832 269.415 69.1798 269.302 69.3005C269.141 69.4764 269.039 69.6992 269.012 69.9368C268.985 70.1744 269.034 70.4145 269.151 70.6224C270.047 72.1573 271.316 73.4386 272.84 74.346C273.525 74.7605 274.264 75.078 275.036 75.2896C275.196 75.335 275.362 75.3753 275.533 75.4107C281.703 76.7457 288.063 76.9372 294.301 75.9757C293.934 77.2115 293.793 78.5038 293.884 79.7902C294.085 81.3997 295.025 82.7267 296.281 83.1707C296.566 83.2674 296.858 83.3384 297.156 83.3826C297.44 83.4289 297.721 83.4981 297.995 83.5895C298.399 83.7381 298.757 83.9913 299.032 84.3234C299.308 84.6555 299.491 85.0548 299.563 85.4808C299.636 85.9068 299.595 86.3444 299.445 86.7495C299.294 87.1545 299.041 87.5125 298.708 87.7874C298.708 87.7874 300.025 88.8822 300.191 88.8267C300.838 88.5397 301.379 88.0562 301.738 87.4443C304.246 83.8215 305.457 78.998 305.336 73.0998Z" fill="#2F2E41"/>
</g>
<defs>
<clipPath id="clip0_1434_481">
<rect width="389" height="338" fill="white"/>
</clipPath>
</defs>
</svg>
