<svg width="171" height="17" viewBox="0 0 171 17" fill="none" xmlns="http://www.w3.org/2000/svg">
<path d="M0.155895 16V0.727272H6.5245C7.66797 0.727272 8.625 0.888849 9.3956 1.212C10.1712 1.53516 10.7528 1.98757 11.1406 2.56925C11.5334 3.15092 11.7298 3.82457 11.7298 4.5902C11.7298 5.17188 11.608 5.69141 11.3643 6.14879C11.1207 6.60121 10.7852 6.97656 10.3576 7.27486C9.93004 7.57315 9.43537 7.78196 8.87358 7.90128V8.05043C9.49006 8.08026 10.0593 8.2468 10.5813 8.55007C11.1083 8.85334 11.5309 9.27592 11.8491 9.81783C12.1673 10.3548 12.3263 10.9911 12.3263 11.7269C12.3263 12.5472 12.1175 13.2805 11.6999 13.9268C11.2823 14.5682 10.6783 15.0753 9.88778 15.4482C9.0973 15.8161 8.13778 16 7.00923 16H0.155895ZM3.8473 13.0245H6.12926C6.92969 13.0245 7.51882 12.8729 7.89666 12.5696C8.27947 12.2663 8.47088 11.8438 8.47088 11.3018C8.47088 10.9091 8.37891 10.571 8.19496 10.2876C8.01101 9.99929 7.75 9.77805 7.41193 9.62393C7.07386 9.46484 6.66868 9.3853 6.19638 9.3853H3.8473V13.0245ZM3.8473 7.00639H5.89062C6.29332 7.00639 6.65128 6.93928 6.96449 6.80504C7.2777 6.67081 7.52131 6.47692 7.69531 6.22337C7.87429 5.96982 7.96378 5.66406 7.96378 5.30611C7.96378 4.79403 7.78232 4.39133 7.41939 4.09801C7.05646 3.80469 6.56676 3.65803 5.95028 3.65803H3.8473V7.00639ZM17.3303 16.1939C16.5994 16.1939 15.9506 16.0721 15.3839 15.8285C14.8221 15.5799 14.3771 15.207 14.049 14.7099C13.7259 14.2077 13.5643 13.5788 13.5643 12.8232C13.5643 12.1868 13.6761 11.6499 13.8999 11.2124C14.1236 10.7749 14.4318 10.4194 14.8246 10.146C15.2173 9.87251 15.6697 9.66619 16.1818 9.52699C16.6939 9.38281 17.2408 9.28587 17.8224 9.23615C18.4737 9.17649 18.9982 9.11435 19.396 9.04972C19.7937 8.98011 20.082 8.88317 20.261 8.75888C20.445 8.62962 20.5369 8.44815 20.5369 8.21449V8.1772C20.5369 7.79439 20.4052 7.49858 20.1417 7.28977C19.8782 7.08097 19.5227 6.97656 19.0753 6.97656C18.593 6.97656 18.2053 7.08097 17.9119 7.28977C17.6186 7.49858 17.4322 7.78693 17.3526 8.15483L13.9893 8.03551C14.0888 7.33949 14.3448 6.71804 14.7575 6.17116C15.1751 5.61932 15.7468 5.18679 16.4727 4.87358C17.2035 4.5554 18.081 4.39631 19.1051 4.39631C19.8359 4.39631 20.5096 4.48331 21.1261 4.65731C21.7425 4.82635 22.2795 5.07493 22.7369 5.40305C23.1942 5.72621 23.5472 6.12393 23.7958 6.59624C24.0494 7.06854 24.1761 7.60795 24.1761 8.21449V16H20.7457V14.4041H20.6562C20.4524 14.7919 20.1914 15.12 19.8732 15.3885C19.56 15.657 19.1896 15.8583 18.7621 15.9925C18.3395 16.1268 17.8622 16.1939 17.3303 16.1939ZM18.4563 13.8075C18.8491 13.8075 19.2021 13.728 19.5153 13.5689C19.8335 13.4098 20.087 13.1911 20.2759 12.9126C20.4648 12.6293 20.5593 12.3011 20.5593 11.9283V10.8395C20.4549 10.8942 20.3281 10.9439 20.179 10.9886C20.0348 11.0334 19.8757 11.0756 19.7017 11.1154C19.5277 11.1552 19.3487 11.19 19.1648 11.2198C18.9808 11.2496 18.8043 11.277 18.6353 11.3018C18.2923 11.3565 17.9989 11.4411 17.7553 11.5554C17.5167 11.6697 17.3327 11.8189 17.2035 12.0028C17.0792 12.1818 17.017 12.3956 17.017 12.6442C17.017 13.022 17.1513 13.3104 17.4197 13.5092C17.6932 13.7081 18.0387 13.8075 18.4563 13.8075ZM26.4059 16V4.54545H29.9482V6.63352H30.0675C30.2763 5.87784 30.6168 5.31605 31.0891 4.94815C31.5614 4.57528 32.1108 4.38885 32.7372 4.38885C32.9063 4.38885 33.0803 4.40128 33.2592 4.42614C33.4382 4.44602 33.6048 4.47834 33.7589 4.52308V7.69247C33.5849 7.63281 33.3562 7.58558 33.0728 7.55078C32.7944 7.51598 32.5458 7.49858 32.3271 7.49858C31.8945 7.49858 31.5043 7.59553 31.1562 7.78942C30.8132 7.97834 30.5423 8.24432 30.3434 8.58736C30.1495 8.92543 30.0526 9.32315 30.0526 9.78054V16H26.4059ZM40.0044 16.2163C38.8063 16.2163 37.7722 15.9801 36.9022 15.5078C36.0371 15.0305 35.3709 14.3519 34.9036 13.4719C34.4412 12.587 34.21 11.5355 34.21 10.3175C34.21 9.13423 34.4437 8.10014 34.911 7.2152C35.3784 6.32528 36.0371 5.63423 36.8873 5.14204C37.7374 4.64489 38.7392 4.39631 39.8926 4.39631C40.7079 4.39631 41.4537 4.52308 42.1298 4.77663C42.8059 5.03018 43.3901 5.40554 43.8823 5.9027C44.3745 6.39986 44.7573 7.01385 45.0307 7.74467C45.3042 8.47053 45.4409 9.30327 45.4409 10.2429V11.1527H35.4853V9.0348H42.0478C42.0428 8.64702 41.9508 8.30149 41.7718 7.99822C41.5929 7.69496 41.3468 7.45881 41.0336 7.28977C40.7253 7.11577 40.3699 7.02876 39.9672 7.02876C39.5595 7.02876 39.1941 7.12074 38.8709 7.30469C38.5478 7.48366 38.2917 7.72976 38.1028 8.04297C37.9139 8.35121 37.8145 8.7017 37.8045 9.09446V11.2496C37.8045 11.717 37.8965 12.1271 38.0804 12.4801C38.2644 12.8281 38.5254 13.0991 38.8635 13.293C39.2015 13.4869 39.6042 13.5838 40.0716 13.5838C40.3947 13.5838 40.688 13.5391 40.9515 13.4496C41.215 13.3601 41.4412 13.2283 41.6301 13.0543C41.8191 12.8803 41.9608 12.6665 42.0552 12.413L45.4036 12.5099C45.2644 13.2607 44.9586 13.9144 44.4863 14.4712C44.019 15.0231 43.405 15.4531 42.6444 15.7614C41.8837 16.0646 41.0037 16.2163 40.0044 16.2163ZM53.8137 4.54545V7.23011H46.4458V4.54545H53.8137ZM47.982 16V3.96378C47.982 3.07884 48.1485 2.34553 48.4816 1.76385C48.8147 1.1772 49.2771 0.739701 49.8687 0.451349C50.4603 0.158025 51.1439 0.0113626 51.9195 0.0113626C52.4266 0.0113626 52.9039 0.0511357 53.3513 0.130682C53.8037 0.205256 54.1393 0.272372 54.358 0.332031L53.7764 3.00178C53.6421 2.95703 53.4781 2.91974 53.2842 2.88991C53.0953 2.86008 52.9163 2.84517 52.7472 2.84517C52.3197 2.84517 52.0264 2.93963 51.8673 3.12855C51.7082 3.31747 51.6286 3.57599 51.6286 3.90412V16H47.982ZM60.5458 16.2163C59.3427 16.2163 58.3086 15.9702 57.4435 15.478C56.5835 14.9808 55.9197 14.2898 55.4524 13.4048C54.9901 12.5149 54.7589 11.4833 54.7589 10.31C54.7589 9.13175 54.9901 8.10014 55.4524 7.2152C55.9197 6.32528 56.5835 5.63423 57.4435 5.14204C58.3086 4.64489 59.3427 4.39631 60.5458 4.39631C61.7489 4.39631 62.7805 4.64489 63.6406 5.14204C64.5057 5.63423 65.1694 6.32528 65.6317 7.2152C66.0991 8.10014 66.3327 9.13175 66.3327 10.31C66.3327 11.4833 66.0991 12.5149 65.6317 13.4048C65.1694 14.2898 64.5057 14.9808 63.6406 15.478C62.7805 15.9702 61.7489 16.2163 60.5458 16.2163ZM60.5682 13.4645C61.0057 13.4645 61.3761 13.3303 61.6793 13.0618C61.9826 12.7933 62.2138 12.4205 62.3729 11.9432C62.5369 11.4659 62.619 10.9141 62.619 10.2876C62.619 9.65128 62.5369 9.09446 62.3729 8.61719C62.2138 8.13991 61.9826 7.76705 61.6793 7.49858C61.3761 7.23011 61.0057 7.09588 60.5682 7.09588C60.1158 7.09588 59.733 7.23011 59.4197 7.49858C59.1115 7.76705 58.8754 8.13991 58.7113 8.61719C58.5522 9.09446 58.4727 9.65128 58.4727 10.2876C58.4727 10.9141 58.5522 11.4659 58.7113 11.9432C58.8754 12.4205 59.1115 12.7933 59.4197 13.0618C59.733 13.3303 60.1158 13.4645 60.5682 13.4645ZM73.5478 16.2163C72.3446 16.2163 71.3105 15.9702 70.4455 15.478C69.5854 14.9808 68.9217 14.2898 68.4544 13.4048C67.992 12.5149 67.7608 11.4833 67.7608 10.31C67.7608 9.13175 67.992 8.10014 68.4544 7.2152C68.9217 6.32528 69.5854 5.63423 70.4455 5.14204C71.3105 4.64489 72.3446 4.39631 73.5478 4.39631C74.7509 4.39631 75.7825 4.64489 76.6426 5.14204C77.5076 5.63423 78.1713 6.32528 78.6337 7.2152C79.101 8.10014 79.3347 9.13175 79.3347 10.31C79.3347 11.4833 79.101 12.5149 78.6337 13.4048C78.1713 14.2898 77.5076 14.9808 76.6426 15.478C75.7825 15.9702 74.7509 16.2163 73.5478 16.2163ZM73.5701 13.4645C74.0076 13.4645 74.378 13.3303 74.6813 13.0618C74.9846 12.7933 75.2157 12.4205 75.3748 11.9432C75.5389 11.4659 75.6209 10.9141 75.6209 10.2876C75.6209 9.65128 75.5389 9.09446 75.3748 8.61719C75.2157 8.13991 74.9846 7.76705 74.6813 7.49858C74.378 7.23011 74.0076 7.09588 73.5701 7.09588C73.1177 7.09588 72.7349 7.23011 72.4217 7.49858C72.1135 7.76705 71.8773 8.13991 71.7132 8.61719C71.5542 9.09446 71.4746 9.65128 71.4746 10.2876C71.4746 10.9141 71.5542 11.4659 71.7132 11.9432C71.8773 12.4205 72.1135 12.7933 72.4217 13.0618C72.7349 13.3303 73.1177 13.4645 73.5701 13.4645ZM87.6683 4.54545V7.23011H80.4421V4.54545H87.6683ZM81.956 1.80114H85.6026V12.3981C85.6026 12.6218 85.6374 12.8033 85.707 12.9425C85.7816 13.0767 85.8885 13.1737 86.0277 13.2333C86.1669 13.288 86.3335 13.3153 86.5273 13.3153C86.6665 13.3153 86.8132 13.3029 86.9673 13.2781C87.1264 13.2482 87.2457 13.2234 87.3253 13.2035L87.8771 15.8359C87.7031 15.8857 87.457 15.9478 87.1388 16.0224C86.8256 16.0969 86.4503 16.1442 86.0128 16.1641C85.1577 16.2038 84.4244 16.1044 83.8129 15.8658C83.2063 15.6222 82.7415 15.2443 82.4183 14.7322C82.1001 14.2202 81.946 13.5763 81.956 12.8008V1.80114Z" fill="#0D295E"/>
<path d="M91.5797 16.2163C91.0428 16.2163 90.5829 16.0273 90.2001 15.6495C89.8223 15.2717 89.6358 14.8143 89.6408 14.2773C89.6358 13.7504 89.8223 13.3004 90.2001 12.9276C90.5829 12.5497 91.0428 12.3608 91.5797 12.3608C92.0868 12.3608 92.5343 12.5497 92.9221 12.9276C93.3148 13.3004 93.5137 13.7504 93.5186 14.2773C93.5137 14.6353 93.4192 14.9609 93.2353 15.2543C93.0563 15.5476 92.8201 15.7812 92.5268 15.9553C92.2385 16.1293 91.9228 16.2163 91.5797 16.2163Z" fill="#081D45"/>
<path d="M112.473 0.727272V16H109.341L103.264 7.18537H103.167V16H99.4752V0.727272H102.652L108.663 9.52699H108.79V0.727272H112.473ZM120.142 16.2163C118.938 16.2163 117.904 15.9702 117.039 15.478C116.179 14.9808 115.515 14.2898 115.048 13.4048C114.586 12.5149 114.355 11.4833 114.355 10.31C114.355 9.13175 114.586 8.10014 115.048 7.2152C115.515 6.32528 116.179 5.63423 117.039 5.14204C117.904 4.64489 118.938 4.39631 120.142 4.39631C121.345 4.39631 122.376 4.64489 123.236 5.14204C124.101 5.63423 124.765 6.32528 125.227 7.2152C125.695 8.10014 125.928 9.13175 125.928 10.31C125.928 11.4833 125.695 12.5149 125.227 13.4048C124.765 14.2898 124.101 14.9808 123.236 15.478C122.376 15.9702 121.345 16.2163 120.142 16.2163ZM120.164 13.4645C120.601 13.4645 120.972 13.3303 121.275 13.0618C121.578 12.7933 121.809 12.4205 121.969 11.9432C122.133 11.4659 122.215 10.9141 122.215 10.2876C122.215 9.65128 122.133 9.09446 121.969 8.61719C121.809 8.13991 121.578 7.76705 121.275 7.49858C120.972 7.23011 120.601 7.09588 120.164 7.09588C119.711 7.09588 119.329 7.23011 119.015 7.49858C118.707 7.76705 118.471 8.13991 118.307 8.61719C118.148 9.09446 118.068 9.65128 118.068 10.2876C118.068 10.9141 118.148 11.4659 118.307 11.9432C118.471 12.4205 118.707 12.7933 119.015 13.0618C119.329 13.3303 119.711 13.4645 120.164 13.4645ZM127.797 16V4.54545H131.264V6.64844H131.391C131.63 5.95241 132.032 5.40305 132.599 5.00035C133.166 4.59766 133.842 4.39631 134.627 4.39631C135.423 4.39631 136.104 4.60014 136.671 5.00781C137.238 5.41548 137.598 5.96236 137.752 6.64844H137.871C138.085 5.96733 138.503 5.42294 139.124 5.01527C139.746 4.60263 140.479 4.39631 141.324 4.39631C142.408 4.39631 143.288 4.74432 143.964 5.44034C144.64 6.13139 144.978 7.08097 144.978 8.28906V16H141.332V9.12429C141.332 8.55256 141.185 8.11754 140.892 7.81925C140.598 7.51598 140.218 7.36435 139.751 7.36435C139.249 7.36435 138.853 7.52841 138.565 7.85653C138.282 8.17969 138.14 8.6147 138.14 9.16158V16H134.635V9.087C134.635 8.55504 134.491 8.13494 134.202 7.8267C133.914 7.51847 133.534 7.36435 133.061 7.36435C132.743 7.36435 132.462 7.44141 132.219 7.59553C131.975 7.74467 131.784 7.95845 131.645 8.23686C131.51 8.51527 131.443 8.84339 131.443 9.22124V16H127.797ZM150.467 16.1939C149.736 16.1939 149.087 16.0721 148.521 15.8285C147.959 15.5799 147.514 15.207 147.186 14.7099C146.863 14.2077 146.701 13.5788 146.701 12.8232C146.701 12.1868 146.813 11.6499 147.037 11.2124C147.26 10.7749 147.569 10.4194 147.961 10.146C148.354 9.87251 148.806 9.66619 149.319 9.52699C149.831 9.38281 150.377 9.28587 150.959 9.23615C151.61 9.17649 152.135 9.11435 152.533 9.04972C152.93 8.98011 153.219 8.88317 153.398 8.75888C153.582 8.62962 153.674 8.44815 153.674 8.21449V8.1772C153.674 7.79439 153.542 7.49858 153.278 7.28977C153.015 7.08097 152.659 6.97656 152.212 6.97656C151.73 6.97656 151.342 7.08097 151.049 7.28977C150.755 7.49858 150.569 7.78693 150.489 8.15483L147.126 8.03551C147.225 7.33949 147.482 6.71804 147.894 6.17116C148.312 5.61932 148.884 5.18679 149.609 4.87358C150.34 4.5554 151.218 4.39631 152.242 4.39631C152.973 4.39631 153.646 4.48331 154.263 4.65731C154.879 4.82635 155.416 5.07493 155.874 5.40305C156.331 5.72621 156.684 6.12393 156.933 6.59624C157.186 7.06854 157.313 7.60795 157.313 8.21449V16H153.882V14.4041H153.793C153.589 14.7919 153.328 15.12 153.01 15.3885C152.697 15.657 152.326 15.8583 151.899 15.9925C151.476 16.1268 150.999 16.1939 150.467 16.1939ZM151.593 13.8075C151.986 13.8075 152.339 13.728 152.652 13.5689C152.97 13.4098 153.224 13.1911 153.413 12.9126C153.602 12.6293 153.696 12.3011 153.696 11.9283V10.8395C153.592 10.8942 153.465 10.9439 153.316 10.9886C153.172 11.0334 153.012 11.0756 152.838 11.1154C152.664 11.1552 152.485 11.19 152.301 11.2198C152.118 11.2496 151.941 11.277 151.772 11.3018C151.429 11.3565 151.136 11.4411 150.892 11.5554C150.653 11.6697 150.469 11.8189 150.34 12.0028C150.216 12.1818 150.154 12.3956 150.154 12.6442C150.154 13.022 150.288 13.3104 150.556 13.5092C150.83 13.7081 151.175 13.8075 151.593 13.8075ZM163.726 16.1641C162.881 16.1641 162.113 15.9453 161.422 15.5078C160.731 15.0703 160.179 14.4141 159.766 13.5391C159.354 12.6641 159.147 11.5778 159.147 10.2802C159.147 8.93288 159.361 7.82422 159.789 6.95419C160.216 6.08416 160.776 5.44034 161.467 5.02273C162.163 4.60511 162.911 4.39631 163.711 4.39631C164.313 4.39631 164.827 4.50071 165.255 4.70952C165.683 4.91335 166.036 5.17685 166.314 5.5C166.592 5.82315 166.804 6.15874 166.948 6.50675H167.022V0.727272H170.669V16H167.06V14.1431H166.948C166.794 14.4961 166.575 14.8267 166.292 15.1349C166.008 15.4432 165.653 15.6918 165.225 15.8807C164.803 16.0696 164.303 16.1641 163.726 16.1641ZM164.994 13.3228C165.436 13.3228 165.814 13.1985 166.127 12.9499C166.441 12.6964 166.682 12.3409 166.851 11.8835C167.02 11.4261 167.104 10.8892 167.104 10.2727C167.104 9.64631 167.02 9.10689 166.851 8.65447C166.687 8.20206 166.446 7.85405 166.127 7.61044C165.814 7.36683 165.436 7.24503 164.994 7.24503C164.542 7.24503 164.159 7.36932 163.846 7.6179C163.532 7.86648 163.294 8.21697 163.13 8.66939C162.971 9.1218 162.891 9.65625 162.891 10.2727C162.891 10.8892 162.973 11.4261 163.137 11.8835C163.301 12.3409 163.537 12.6964 163.846 12.9499C164.159 13.1985 164.542 13.3228 164.994 13.3228Z" fill="#046CC6"/>
</svg>
