<svg width="237" height="24" viewBox="0 0 237 24" fill="none" xmlns="http://www.w3.org/2000/svg">
<path d="M0.596236 23V1.90909H9.39098C10.9701 1.90909 12.2917 2.13222 13.3558 2.57848C14.4268 3.02474 15.2301 3.6495 15.7656 4.45277C16.308 5.25604 16.5792 6.18632 16.5792 7.24361C16.5792 8.04688 16.411 8.76432 16.0746 9.39595C15.7382 10.0207 15.2747 10.5391 14.6843 10.951C14.0939 11.3629 13.4107 11.6513 12.6349 11.8161V12.022C13.4863 12.0632 14.2724 12.2932 14.9933 12.712C15.721 13.1308 16.3046 13.7144 16.744 14.4627C17.1834 15.2042 17.4031 16.083 17.4031 17.0991C17.4031 18.2319 17.1147 19.2446 16.538 20.1371C15.9613 21.0227 15.1271 21.723 14.0355 22.2379C12.9439 22.746 11.6188 23 10.0604 23H0.596236ZM5.69389 18.891H8.84517C9.95052 18.891 10.7641 18.6816 11.2859 18.2628C11.8145 17.844 12.0788 17.2604 12.0788 16.5121C12.0788 15.9697 11.9518 15.5028 11.6978 15.1115C11.4438 14.7133 11.0833 14.4078 10.6165 14.195C10.1496 13.9753 9.59008 13.8654 8.93786 13.8654H5.69389V18.891ZM5.69389 10.5803H8.51562C9.07173 10.5803 9.56605 10.4876 9.99858 10.3022C10.4311 10.1168 10.7675 9.84908 11.0078 9.49893C11.255 9.14879 11.3786 8.72656 11.3786 8.23224C11.3786 7.52509 11.128 6.96899 10.6268 6.56392C10.1256 6.15885 9.44934 5.95632 8.59801 5.95632H5.69389V10.5803ZM24.3132 23.2678C23.304 23.2678 22.408 23.0996 21.6254 22.7631C20.8496 22.4199 20.2351 21.9049 19.782 21.2184C19.3357 20.525 19.1126 19.6565 19.1126 18.6129C19.1126 17.7341 19.267 16.9927 19.576 16.3885C19.8849 15.7843 20.3106 15.2934 20.853 14.9158C21.3954 14.5382 22.0201 14.2533 22.7273 14.0611C23.4344 13.862 24.1896 13.7281 24.9929 13.6594C25.8923 13.5771 26.6166 13.4912 27.1658 13.402C27.7151 13.3059 28.1133 13.172 28.3604 13.0004C28.6145 12.8219 28.7415 12.5713 28.7415 12.2486V12.1971C28.7415 11.6684 28.5595 11.2599 28.1957 10.9716C27.8318 10.6832 27.3409 10.5391 26.723 10.5391C26.0571 10.5391 25.5215 10.6832 25.1165 10.9716C24.7114 11.2599 24.454 11.6581 24.3441 12.1662L19.6996 12.0014C19.8369 11.0402 20.1905 10.1821 20.7603 9.42685C21.337 8.66477 22.1265 8.06747 23.1289 7.63494C24.1381 7.19555 25.3499 6.97585 26.7642 6.97585C27.7734 6.97585 28.7037 7.096 29.555 7.33629C30.4064 7.56972 31.1478 7.913 31.7795 8.36612C32.4111 8.81238 32.8986 9.36162 33.2418 10.0138C33.592 10.6661 33.767 11.411 33.767 12.2486V23H29.0298V20.7962H28.9062C28.6248 21.3317 28.2643 21.7848 27.8249 22.1555C27.3924 22.5263 26.8809 22.8043 26.2905 22.9897C25.7069 23.1751 25.0478 23.2678 24.3132 23.2678ZM25.8683 19.9723C26.4106 19.9723 26.8981 19.8625 27.3306 19.6428C27.77 19.4231 28.1201 19.121 28.381 18.7365C28.6419 18.3452 28.7724 17.892 28.7724 17.3771V15.8736C28.6282 15.9491 28.4531 16.0178 28.2472 16.0795C28.0481 16.1413 27.8284 16.1997 27.5881 16.2546C27.3478 16.3095 27.1006 16.3576 26.8466 16.3988C26.5926 16.44 26.3488 16.4777 26.1154 16.5121C25.6417 16.5876 25.2366 16.7043 24.9002 16.8622C24.5707 17.0201 24.3166 17.2261 24.1381 17.4801C23.9665 17.7273 23.8807 18.0225 23.8807 18.3658C23.8807 18.8875 24.0661 19.2857 24.4368 19.5604C24.8144 19.835 25.2915 19.9723 25.8683 19.9723ZM36.8462 23V7.18182H41.7379V10.0653H41.9027C42.1911 9.02178 42.6613 8.24598 43.3136 7.73793C43.9658 7.22301 44.7244 6.96555 45.5895 6.96555C45.8229 6.96555 46.0632 6.98272 46.3104 7.01705C46.5575 7.04451 46.7875 7.08913 47.0004 7.15092V11.5277C46.7601 11.4453 46.4442 11.3801 46.0529 11.332C45.6684 11.284 45.3252 11.2599 45.0231 11.2599C44.4258 11.2599 43.8868 11.3938 43.4062 11.6616C42.9325 11.9225 42.5584 12.2898 42.2837 12.7635C42.016 13.2303 41.8821 13.7796 41.8821 14.4112V23H36.8462ZM55.6252 23.2987C53.9706 23.2987 52.5426 22.9725 51.3411 22.3203C50.1465 21.6612 49.2265 20.7241 48.5811 19.5089C47.9426 18.2868 47.6234 16.8348 47.6234 15.1527C47.6234 13.5187 47.9461 12.0907 48.5914 10.8686C49.2368 9.63968 50.1465 8.68537 51.3205 8.00568C52.4945 7.31913 53.8779 6.97585 55.4707 6.97585C56.5967 6.97585 57.6265 7.15092 58.5602 7.50106C59.4939 7.85121 60.3006 8.36955 60.9803 9.05611C61.66 9.74266 62.1886 10.5906 62.5662 11.5998C62.9438 12.6022 63.1326 13.7521 63.1326 15.0497V16.3061H49.3844V13.3814H58.4469C58.44 12.8459 58.313 12.3687 58.0659 11.9499C57.8187 11.5311 57.4789 11.205 57.0463 10.9716C56.6207 10.7313 56.1298 10.6112 55.5737 10.6112C55.0107 10.6112 54.5061 10.7382 54.0598 10.9922C53.6136 11.2393 53.26 11.5792 52.9991 12.0117C52.7382 12.4374 52.6009 12.9214 52.5872 13.4638V16.44C52.5872 17.0853 52.7142 17.6518 52.9682 18.1392C53.2222 18.6198 53.5827 18.994 54.0495 19.2617C54.5164 19.5295 55.0725 19.6634 55.7179 19.6634C56.1641 19.6634 56.5692 19.6016 56.9331 19.478C57.2969 19.3544 57.6093 19.1725 57.8702 18.9322C58.1311 18.6919 58.3268 18.3967 58.4572 18.0465L63.0811 18.1804C62.8889 19.2171 62.4667 20.1199 61.8145 20.8888C61.1691 21.6509 60.3212 22.2448 59.2708 22.6705C58.2203 23.0893 57.0051 23.2987 55.6252 23.2987ZM74.695 7.18182V10.8892H64.5203V7.18182H74.695ZM66.6418 23V6.37855C66.6418 5.15649 66.8718 4.14382 67.3318 3.34055C67.7918 2.53042 68.4302 1.92625 69.2472 1.52805C70.0642 1.12299 71.0083 0.920453 72.0793 0.920453C72.7796 0.920453 73.4387 0.975378 74.0566 1.08523C74.6813 1.18821 75.1447 1.28089 75.4468 1.36328L74.6436 5.05007C74.4582 4.98828 74.2316 4.93679 73.9639 4.8956C73.703 4.8544 73.4558 4.83381 73.2224 4.83381C72.632 4.83381 72.2269 4.96425 72.0072 5.22514C71.7875 5.48603 71.6776 5.84304 71.6776 6.29616V23H66.6418ZM83.9918 23.2987C82.3304 23.2987 80.9023 22.9588 79.7077 22.2791C78.52 21.5926 77.6035 20.6383 76.9581 19.4162C76.3196 18.1873 76.0004 16.7627 76.0004 15.1424C76.0004 13.5153 76.3196 12.0907 76.9581 10.8686C77.6035 9.63968 78.52 8.68537 79.7077 8.00568C80.9023 7.31913 82.3304 6.97585 83.9918 6.97585C85.6533 6.97585 87.0779 7.31913 88.2656 8.00568C89.4602 8.68537 90.3768 9.63968 91.0153 10.8686C91.6606 12.0907 91.9833 13.5153 91.9833 15.1424C91.9833 16.7627 91.6606 18.1873 91.0153 19.4162C90.3768 20.6383 89.4602 21.5926 88.2656 22.2791C87.0779 22.9588 85.6533 23.2987 83.9918 23.2987ZM84.0227 19.4986C84.6269 19.4986 85.1384 19.3132 85.5572 18.9425C85.976 18.5717 86.2952 18.0568 86.5149 17.3977C86.7415 16.7386 86.8548 15.9766 86.8548 15.1115C86.8548 14.2327 86.7415 13.4638 86.5149 12.8047C86.2952 12.1456 85.976 11.6307 85.5572 11.2599C85.1384 10.8892 84.6269 10.7038 84.0227 10.7038C83.398 10.7038 82.8693 10.8892 82.4368 11.2599C82.0111 11.6307 81.685 12.1456 81.4585 12.8047C81.2388 13.4638 81.1289 14.2327 81.1289 15.1115C81.1289 15.9766 81.2388 16.7386 81.4585 17.3977C81.685 18.0568 82.0111 18.5717 82.4368 18.9425C82.8693 19.3132 83.398 19.4986 84.0227 19.4986ZM101.947 23.2987C100.285 23.2987 98.8574 22.9588 97.6628 22.2791C96.4751 21.5926 95.5585 20.6383 94.9132 19.4162C94.2747 18.1873 93.9554 16.7627 93.9554 15.1424C93.9554 13.5153 94.2747 12.0907 94.9132 10.8686C95.5585 9.63968 96.4751 8.68537 97.6628 8.00568C98.8574 7.31913 100.285 6.97585 101.947 6.97585C103.608 6.97585 105.033 7.31913 106.221 8.00568C107.415 8.68537 108.332 9.63968 108.97 10.8686C109.616 12.0907 109.938 13.5153 109.938 15.1424C109.938 16.7627 109.616 18.1873 108.97 19.4162C108.332 20.6383 107.415 21.5926 106.221 22.2791C105.033 22.9588 103.608 23.2987 101.947 23.2987ZM101.978 19.4986C102.582 19.4986 103.093 19.3132 103.512 18.9425C103.931 18.5717 104.25 18.0568 104.47 17.3977C104.697 16.7386 104.81 15.9766 104.81 15.1115C104.81 14.2327 104.697 13.4638 104.47 12.8047C104.25 12.1456 103.931 11.6307 103.512 11.2599C103.093 10.8892 102.582 10.7038 101.978 10.7038C101.353 10.7038 100.824 10.8892 100.392 11.2599C99.9662 11.6307 99.6401 12.1456 99.4135 12.8047C99.1938 13.4638 99.084 14.2327 99.084 15.1115C99.084 15.9766 99.1938 16.7386 99.4135 17.3977C99.6401 18.0568 99.9662 18.5717 100.392 18.9425C100.824 19.3132 101.353 19.4986 101.978 19.4986ZM121.447 7.18182V10.8892H111.468V7.18182H121.447ZM113.558 3.39205H118.594V18.0259C118.594 18.3349 118.642 18.5855 118.738 18.7777C118.841 18.9631 118.989 19.0969 119.181 19.1793C119.373 19.2549 119.603 19.2926 119.871 19.2926C120.063 19.2926 120.266 19.2754 120.479 19.2411C120.698 19.1999 120.863 19.1656 120.973 19.1381L121.735 22.7734C121.495 22.8421 121.155 22.9279 120.716 23.0309C120.283 23.1339 119.765 23.1991 119.161 23.2266C117.98 23.2815 116.967 23.1442 116.123 22.8146C115.285 22.4782 114.643 21.9564 114.197 21.2493C113.757 20.5421 113.545 19.6531 113.558 18.582V3.39205ZM126.848 23.2987C126.107 23.2987 125.472 23.0378 124.943 22.516C124.421 21.9942 124.164 21.3626 124.171 20.6211C124.164 19.8933 124.421 19.272 124.943 18.7571C125.472 18.2353 126.107 17.9744 126.848 17.9744C127.548 17.9744 128.166 18.2353 128.702 18.7571C129.244 19.272 129.519 19.8933 129.526 20.6211C129.519 21.1154 129.388 21.5651 129.134 21.9702C128.887 22.3752 128.561 22.6979 128.156 22.9382C127.758 23.1785 127.322 23.2987 126.848 23.2987Z" fill="#F7FBFF"/>
<path d="M155.701 1.90909V23H151.376L142.983 10.8274H142.849V23H137.752V1.90909H142.139L150.439 14.0611H150.614V1.90909H155.701ZM166.291 23.2987C164.629 23.2987 163.201 22.9588 162.007 22.2791C160.819 21.5926 159.902 20.6383 159.257 19.4162C158.618 18.1873 158.299 16.7627 158.299 15.1424C158.299 13.5153 158.618 12.0907 159.257 10.8686C159.902 9.63968 160.819 8.68537 162.007 8.00568C163.201 7.31913 164.629 6.97585 166.291 6.97585C167.952 6.97585 169.377 7.31913 170.564 8.00568C171.759 8.68537 172.676 9.63968 173.314 10.8686C173.959 12.0907 174.282 13.5153 174.282 15.1424C174.282 16.7627 173.959 18.1873 173.314 19.4162C172.676 20.6383 171.759 21.5926 170.564 22.2791C169.377 22.9588 167.952 23.2987 166.291 23.2987ZM166.322 19.4986C166.926 19.4986 167.437 19.3132 167.856 18.9425C168.275 18.5717 168.594 18.0568 168.814 17.3977C169.04 16.7386 169.154 15.9766 169.154 15.1115C169.154 14.2327 169.04 13.4638 168.814 12.8047C168.594 12.1456 168.275 11.6307 167.856 11.2599C167.437 10.8892 166.926 10.7038 166.322 10.7038C165.697 10.7038 165.168 10.8892 164.736 11.2599C164.31 11.6307 163.984 12.1456 163.757 12.8047C163.538 13.4638 163.428 14.2327 163.428 15.1115C163.428 15.9766 163.538 16.7386 163.757 17.3977C163.984 18.0568 164.31 18.5717 164.736 18.9425C165.168 19.3132 165.697 19.4986 166.322 19.4986ZM176.862 23V7.18182H181.651V10.0859H181.826C182.155 9.12476 182.711 8.36612 183.494 7.81001C184.277 7.25391 185.21 6.97585 186.295 6.97585C187.394 6.97585 188.334 7.25734 189.117 7.82031C189.9 8.38329 190.397 9.13849 190.61 10.0859H190.775C191.07 9.14536 191.647 8.39358 192.505 7.83061C193.363 7.26077 194.376 6.97585 195.543 6.97585C197.04 6.97585 198.255 7.45644 199.189 8.41761C200.122 9.37192 200.589 10.6832 200.589 12.3516V23H195.553V13.505C195.553 12.7154 195.351 12.1147 194.946 11.7028C194.541 11.284 194.015 11.0746 193.37 11.0746C192.677 11.0746 192.131 11.3011 191.733 11.7543C191.341 12.2005 191.146 12.8013 191.146 13.5565V23H186.305V13.4535C186.305 12.7189 186.106 12.1387 185.708 11.7131C185.31 11.2874 184.785 11.0746 184.132 11.0746C183.693 11.0746 183.305 11.181 182.969 11.3938C182.632 11.5998 182.368 11.895 182.176 12.2795C181.99 12.6639 181.898 13.1171 181.898 13.6388V23H176.862ZM208.169 23.2678C207.159 23.2678 206.263 23.0996 205.481 22.7631C204.705 22.4199 204.091 21.9049 203.637 21.2184C203.191 20.525 202.968 19.6565 202.968 18.6129C202.968 17.7341 203.123 16.9927 203.431 16.3885C203.74 15.7843 204.166 15.2934 204.708 14.9158C205.251 14.5382 205.876 14.2533 206.583 14.0611C207.29 13.862 208.045 13.7281 208.848 13.6594C209.748 13.5771 210.472 13.4912 211.021 13.402C211.571 13.3059 211.969 13.172 212.216 13.0004C212.47 12.8219 212.597 12.5713 212.597 12.2486V12.1971C212.597 11.6684 212.415 11.2599 212.051 10.9716C211.687 10.6832 211.196 10.5391 210.578 10.5391C209.913 10.5391 209.377 10.6832 208.972 10.9716C208.567 11.2599 208.309 11.6581 208.2 12.1662L203.555 12.0014C203.692 11.0402 204.046 10.1821 204.616 9.42685C205.192 8.66477 205.982 8.06747 206.984 7.63494C207.994 7.19555 209.205 6.97585 210.62 6.97585C211.629 6.97585 212.559 7.096 213.411 7.33629C214.262 7.56972 215.003 7.913 215.635 8.36612C216.267 8.81238 216.754 9.36162 217.097 10.0138C217.447 10.6661 217.623 11.411 217.623 12.2486V23H212.885V20.7962H212.762C212.48 21.3317 212.12 21.7848 211.68 22.1555C211.248 22.5263 210.736 22.8043 210.146 22.9897C209.562 23.1751 208.903 23.2678 208.169 23.2678ZM209.724 19.9723C210.266 19.9723 210.754 19.8625 211.186 19.6428C211.625 19.4231 211.976 19.121 212.237 18.7365C212.497 18.3452 212.628 17.892 212.628 17.3771V15.8736C212.484 15.9491 212.309 16.0178 212.103 16.0795C211.904 16.1413 211.684 16.1997 211.444 16.2546C211.203 16.3095 210.956 16.3576 210.702 16.3988C210.448 16.44 210.204 16.4777 209.971 16.5121C209.497 16.5876 209.092 16.7043 208.756 16.8622C208.426 17.0201 208.172 17.2261 207.994 17.4801C207.822 17.7273 207.736 18.0225 207.736 18.3658C207.736 18.8875 207.922 19.2857 208.292 19.5604C208.67 19.835 209.147 19.9723 209.724 19.9723ZM226.479 23.2266C225.312 23.2266 224.251 22.9245 223.297 22.3203C222.343 21.7161 221.58 20.8099 221.011 19.6016C220.441 18.3932 220.156 16.8931 220.156 15.1012C220.156 13.2406 220.451 11.7096 221.042 10.5082C221.632 9.3067 222.404 8.41761 223.359 7.84091C224.32 7.2642 225.353 6.97585 226.458 6.97585C227.289 6.97585 228 7.12003 228.59 7.40838C229.181 7.68987 229.668 8.05374 230.053 8.5C230.437 8.94626 230.729 9.40968 230.928 9.89027H231.031V1.90909H236.067V23H231.082V20.4357H230.928C230.715 20.9232 230.413 21.3797 230.022 21.8054C229.63 22.2311 229.139 22.5743 228.549 22.8352C227.965 23.0961 227.275 23.2266 226.479 23.2266ZM228.23 19.3029C228.841 19.3029 229.363 19.1313 229.795 18.788C230.228 18.4379 230.561 17.947 230.794 17.3153C231.027 16.6837 231.144 15.9422 231.144 15.0909C231.144 14.2259 231.027 13.4809 230.794 12.8562C230.567 12.2314 230.234 11.7508 229.795 11.4144C229.363 11.078 228.841 10.9098 228.23 10.9098C227.605 10.9098 227.076 11.0814 226.644 11.4247C226.211 11.768 225.882 12.252 225.655 12.8768C225.435 13.5015 225.326 14.2396 225.326 15.0909C225.326 15.9422 225.439 16.6837 225.665 17.3153C225.892 17.947 226.218 18.4379 226.644 18.788C227.076 19.1313 227.605 19.3029 228.23 19.3029Z" fill="#046CC6"/>
<path d="M-1 28.767H136.166V30.7443H-1V28.767Z" fill="#F7FBFF"/>
<path d="M136.155 28.767H237.663V30.7443H136.155V28.767Z" fill="#046CC6"/>
<a href="https://github.com/atlp-rwanda/bravo-bn-fe/pull/14">
<rect fill="black" fill-opacity="0" y="-0.048296" width="238.663" height="35.0966"/>
</a>
</svg>
