<svg width="26" height="25" viewBox="0 0 26 25" fill="none" xmlns="http://www.w3.org/2000/svg">
<path d="M25.1528 12.5764C25.1528 5.63069 19.5221 0 12.5764 0C5.63069 0 0 5.63059 0 12.5764C0 18.8536 4.59903 24.0566 10.6113 25V16.2118H7.41811V12.5764H10.6113V9.80566C10.6113 6.6537 12.4889 4.91265 15.3616 4.91265C16.7376 4.91265 18.1768 5.15829 18.1768 5.15829V8.25326H16.591C15.0286 8.25326 14.5415 9.22272 14.5415 10.2173V12.5764H18.0294L17.4719 16.2118H14.5415V25C20.5538 24.0566 25.1528 18.8537 25.1528 12.5764Z" fill="#1877F2"/>
<path d="M17.4727 15.4074L18.0303 12.0308H14.5423V9.83957C14.5423 8.91564 15.0295 8.01525 16.5919 8.01525H18.1777V5.14051C18.1777 5.14051 16.7384 4.91235 15.3624 4.91235C12.4898 4.91235 10.6122 6.52951 10.6122 9.45718V12.0308H7.41895V15.4074H10.6122V23.5703C11.2622 23.665 11.9192 23.7124 12.5772 23.7123C13.2352 23.7124 13.8922 23.665 14.5423 23.5703V15.4074H17.4727Z" fill="white"/>
</svg>
