<svg width="25" height="25" viewBox="0 0 25 25" fill="none" xmlns="http://www.w3.org/2000/svg">
<path d="M24.7565 10.0517H23.7496V9.99984H12.4998V14.9998H19.5641C18.5335 17.9103 15.7641 19.9997 12.4998 19.9997C8.35799 19.9997 4.99992 16.6416 4.99992 12.4998C4.99992 8.35799 8.35799 4.99992 12.4998 4.99992C14.4116 4.99992 16.151 5.72116 17.4753 6.89927L21.0109 3.3637C18.7785 1.2831 15.7923 0 12.4998 0C5.59679 0 0 5.59679 0 12.4998C0 19.4028 5.59679 24.9996 12.4998 24.9996C19.4028 24.9996 24.9996 19.4028 24.9996 12.4998C24.9996 11.6617 24.9134 10.8436 24.7565 10.0517Z" fill="#FFC107"/>
<path d="M1.44214 6.68177L5.54895 9.69359C6.66018 6.94239 9.35139 4.99992 12.5007 4.99992C14.4126 4.99992 16.1519 5.72116 17.4763 6.89926L21.0118 3.3637C18.7794 1.2831 15.7932 0 12.5007 0C7.69954 0 3.53586 2.71058 1.44214 6.68177Z" fill="#FF3D00"/>
<path d="M12.4983 25C15.727 25 18.6607 23.7644 20.8788 21.7551L17.0101 18.4814C15.713 19.4679 14.1279 20.0014 12.4983 20.0001C9.24711 20.0001 6.48653 17.927 5.44655 15.0339L1.37036 18.1745C3.43908 22.2226 7.64026 25 12.4983 25Z" fill="#4CAF50"/>
<path d="M24.7567 10.0524H23.7498V10.0005H12.5V15.0004H19.5643C19.0713 16.3856 18.1833 17.5961 17.0099 18.4822L17.0118 18.481L20.8805 21.7547C20.6067 22.0034 24.9998 18.7503 24.9998 12.5004C24.9998 11.6623 24.9136 10.8442 24.7567 10.0524Z" fill="#1976D2"/>
</svg>
