<svg width="480" height="377" viewBox="0 0 480 377" fill="none" xmlns="http://www.w3.org/2000/svg">
<g clip-path="url(#clip0_276_30)">
<path d="M436.925 344.033C427.724 353.884 417.18 362.391 405.606 369.301C405.34 369.464 405.07 369.617 404.8 369.776L386.061 353.191C386.258 353.008 386.476 352.803 386.711 352.577C400.673 339.32 469.986 246.625 474.605 224.052C474.286 225.933 478.772 299.68 436.925 344.033Z" fill="#F0F0F0"/>
<path d="M409.221 372.501C408.867 372.586 408.507 372.665 408.145 372.737L394.087 360.294C394.362 360.199 394.683 360.085 395.05 359.958C401.082 357.823 419.046 351.375 436.924 344.032C456.134 336.138 475.252 327.218 479.363 321.505C478.481 322.832 451.313 363.089 409.221 372.501Z" fill="#F0F0F0"/>
<path d="M436.666 98.6984H434.664V43.8553C434.664 39.6869 433.843 35.5593 432.247 31.7082C430.652 27.8571 428.314 24.358 425.367 21.4105C422.419 18.463 418.92 16.1249 415.069 14.5297C411.218 12.9345 407.09 12.1135 402.922 12.1135H286.729C282.561 12.1135 278.433 12.9345 274.582 14.5297C270.731 16.1249 267.232 18.4629 264.285 21.4104C261.337 24.3579 258.999 27.8571 257.404 31.7081C255.809 35.5592 254.988 39.6868 254.988 43.8552V344.729C254.988 348.897 255.809 353.025 257.404 356.876C258.999 360.727 261.337 364.226 264.284 367.174C267.232 370.121 270.731 372.459 274.582 374.054C278.433 375.65 282.561 376.471 286.729 376.471H402.922C407.09 376.471 411.218 375.65 415.069 374.055C418.92 372.459 422.419 370.121 425.367 367.174C428.314 364.226 430.652 360.727 432.247 356.876C433.843 353.025 434.664 348.897 434.664 344.729V137.737H436.666V98.6984Z" fill="#3F3D56"/>
<path d="M427.907 44.0733V344.509C427.907 347.622 427.294 350.705 426.102 353.58C424.911 356.456 423.164 359.069 420.963 361.27C418.761 363.471 416.147 365.216 413.271 366.407C410.395 367.597 407.312 368.21 404.199 368.209H287.447C284.335 368.209 281.253 367.596 278.377 366.405C275.502 365.214 272.889 363.468 270.688 361.268C268.488 359.067 266.742 356.454 265.551 353.579C264.36 350.703 263.747 347.621 263.747 344.509V44.0733C263.747 40.9609 264.36 37.879 265.551 35.0036C266.742 32.1281 268.488 29.5154 270.688 27.3147C272.889 25.1139 275.502 23.3682 278.377 22.1773C281.253 20.9864 284.335 20.3735 287.447 20.3738H301.615C300.92 22.0839 300.655 23.9387 300.845 25.775C301.034 27.6114 301.672 29.373 302.702 30.905C303.732 32.437 305.123 33.6925 306.752 34.5609C308.381 35.4293 310.199 35.8842 312.045 35.8854H378.608C380.456 35.8872 382.275 35.4342 383.906 34.5666C385.536 33.699 386.929 32.4434 387.959 30.9105C388.99 29.3776 389.628 27.6146 389.816 25.777C390.004 23.9394 389.737 22.0838 389.038 20.3738H404.199C407.312 20.3726 410.395 20.9848 413.271 22.1753C416.147 23.3658 418.761 25.1113 420.963 27.3122C423.164 29.513 424.911 32.126 426.102 35.0019C427.294 37.8778 427.907 40.9603 427.907 44.0733Z" fill="white"/>
<path d="M391.59 200.196H288.968C287.171 200.194 285.447 199.479 284.176 198.208C282.905 196.937 282.191 195.214 282.188 193.416V190.042C282.191 188.244 282.905 186.521 284.176 185.25C285.447 183.979 287.171 183.264 288.968 183.262H391.59C393.387 183.264 395.11 183.979 396.381 185.25C397.652 186.521 398.367 188.244 398.369 190.042V193.416C398.367 195.214 397.652 196.937 396.381 198.208C395.11 199.479 393.387 200.194 391.59 200.196Z" fill="#F0F0F0"/>
<path d="M391.59 229.285H288.968C287.171 229.283 285.447 228.569 284.176 227.298C282.905 226.027 282.191 224.303 282.188 222.506V219.131C282.191 217.334 282.905 215.611 284.176 214.34C285.447 213.069 287.171 212.354 288.968 212.352H391.59C393.387 212.354 395.11 213.069 396.381 214.34C397.652 215.611 398.367 217.334 398.369 219.131V222.506C398.367 224.303 397.652 226.027 396.381 227.298C395.11 228.569 393.387 229.283 391.59 229.285Z" fill="#F0F0F0"/>
<path d="M396.723 193.69H294.101C292.214 193.688 290.405 192.937 289.07 191.603C287.736 190.268 286.985 188.459 286.983 186.571V183.197C286.985 181.309 287.736 179.5 289.07 178.166C290.405 176.831 292.214 176.08 294.101 176.078H396.723C398.61 176.08 400.42 176.831 401.754 178.166C403.089 179.5 403.839 181.309 403.842 183.197V186.571C403.839 188.459 403.089 190.268 401.754 191.603C400.42 192.937 398.61 193.688 396.723 193.69ZM294.101 177.434C292.574 177.436 291.109 178.043 290.028 179.124C288.948 180.204 288.34 181.669 288.339 183.197V186.571C288.34 188.099 288.948 189.564 290.028 190.644C291.109 191.725 292.574 192.332 294.101 192.334H396.723C398.251 192.332 399.716 191.725 400.796 190.644C401.876 189.564 402.484 188.099 402.486 186.571V183.197C402.484 181.669 401.876 180.204 400.796 179.124C399.716 178.043 398.251 177.436 396.723 177.434H294.101Z" fill="#3F3D56"/>
<path d="M396.723 222.78H294.101C292.214 222.777 290.405 222.027 289.07 220.692C287.736 219.358 286.985 217.548 286.983 215.661V212.286C286.985 210.399 287.736 208.59 289.07 207.255C290.405 205.921 292.214 205.17 294.101 205.168H396.723C398.61 205.17 400.42 205.921 401.754 207.255C403.089 208.59 403.839 210.399 403.842 212.286V215.661C403.839 217.548 403.089 219.358 401.754 220.692C400.42 222.027 398.61 222.777 396.723 222.78ZM294.101 206.524C292.574 206.525 291.109 207.133 290.028 208.213C288.948 209.294 288.34 210.759 288.339 212.286V215.661C288.34 217.189 288.948 218.654 290.028 219.734C291.109 220.814 292.574 221.422 294.101 221.424H396.723C398.251 221.422 399.716 220.814 400.796 219.734C401.876 218.654 402.484 217.189 402.486 215.661V212.286C402.484 210.759 401.876 209.294 400.796 208.213C399.716 207.133 398.251 206.525 396.723 206.524H294.101Z" fill="#3F3D56"/>
<path d="M427.907 44.0733V109.422C417.523 112.154 406.651 112.467 396.128 110.338C385.604 108.209 375.709 103.694 367.203 97.1412C358.698 90.5879 351.81 82.1709 347.068 72.5378C342.326 62.9046 339.857 52.312 339.851 41.575C339.851 39.6585 339.928 37.762 340.082 35.8854H378.609C380.456 35.8872 382.275 35.4342 383.906 34.5666C385.536 33.699 386.929 32.4434 387.959 30.9105C388.99 29.3776 389.628 27.6146 389.816 25.777C390.004 23.9394 389.737 22.0838 389.038 20.3738H404.199C407.312 20.3726 410.395 20.9848 413.271 22.1753C416.147 23.3658 418.761 25.1113 420.963 27.3122C423.164 29.513 424.911 32.126 426.102 35.0019C427.294 37.8778 427.907 40.9603 427.907 44.0733Z" fill="#F0F0F0"/>
<path d="M322.74 364.127C322.74 365.505 322.688 366.865 322.577 368.209H287.447C284.335 368.209 281.253 367.596 278.377 366.405C275.502 365.214 272.889 363.468 270.688 361.268C268.488 359.067 266.742 356.454 265.551 353.579C264.36 350.703 263.747 347.621 263.747 344.509V312.374C271.111 311.416 278.594 312.039 285.698 314.201C292.803 316.362 299.364 320.014 304.946 324.911C310.529 329.808 315.003 335.839 318.071 342.601C321.139 349.363 322.731 356.702 322.739 364.127H322.74Z" fill="#046CC6"/>
<path d="M39.4043 307.741C40.3914 308.176 41.5104 308.2 42.5159 307.811C43.5213 307.421 44.3311 306.648 44.7676 305.662L76.4146 233.937C77.139 232.296 77.3603 230.477 77.0506 228.71C76.7409 226.942 75.9142 225.307 74.6749 224.01C73.4355 222.712 71.8394 221.812 70.0882 221.422C68.337 221.032 66.5095 221.17 64.8367 221.818H64.8367C62.9041 222.556 61.2869 223.941 60.2603 225.737C60.097 226.021 59.9489 226.314 59.8166 226.614L28.1696 298.338C27.954 298.827 27.8366 299.353 27.8244 299.888C27.8122 300.422 27.9053 300.953 28.0984 301.451C28.2915 301.949 28.5809 302.404 28.9499 302.79C29.319 303.177 29.7605 303.486 30.2492 303.702L39.4043 307.741Z" fill="#B3AFF2"/>
<path d="M75.1155 263.384L43.8126 256.427L51.5604 235.931C52.8803 230.921 55.952 226.551 60.2182 223.612C64.4845 220.673 69.6629 219.36 74.814 219.912L75.1156 219.946L75.1155 263.384Z" fill="#2F2E41"/>
<path d="M138.342 308.767C137.422 308.766 136.521 308.498 135.75 307.995C134.978 307.493 134.369 306.777 133.995 305.936L102.348 234.211C101.342 231.929 101.248 229.348 102.087 226.999C102.926 224.65 104.632 222.712 106.857 221.583C109.081 220.454 111.653 220.221 114.044 220.931C116.435 221.641 118.463 223.24 119.711 225.4V225.399C119.886 225.704 120.045 226.018 120.187 226.34L151.834 298.065C152.342 299.217 152.372 300.523 151.917 301.696C151.462 302.87 150.559 303.815 149.408 304.323L139.942 308.499L139.938 308.488C139.426 308.673 138.886 308.767 138.342 308.767Z" fill="#B3AFF2"/>
<path d="M94.5665 284.137C93.488 284.139 92.454 284.568 91.6914 285.33C90.9288 286.093 90.4999 287.127 90.4987 288.205V371.605C90.4999 372.683 90.9288 373.717 91.6914 374.48C92.454 375.242 93.488 375.671 94.5665 375.672H104.573C105.651 375.671 106.685 375.242 107.448 374.48C108.211 373.717 108.639 372.683 108.641 371.605V288.205C108.639 287.127 108.211 286.093 107.448 285.33C106.685 284.568 105.651 284.139 104.573 284.137H94.5665Z" fill="#B3AFF2"/>
<path d="M74.7749 284.137C73.6965 284.139 72.6625 284.568 71.8999 285.33C71.1373 286.093 70.7084 287.127 70.7072 288.205V371.605C70.7084 372.683 71.1373 373.717 71.8999 374.48C72.6625 375.242 73.6965 375.671 74.7749 375.672H84.7815C85.86 375.671 86.894 375.242 87.6566 374.48C88.4192 373.717 88.8481 372.683 88.8493 371.605V288.205C88.8481 287.127 88.4192 286.093 87.6566 285.33C86.894 284.568 85.86 284.139 84.7815 284.137H74.7749Z" fill="#B3AFF2"/>
<path d="M89.375 196.762C108.471 196.762 123.951 181.282 123.951 162.186C123.951 143.09 108.471 127.61 89.375 127.61C70.279 127.61 54.7987 143.09 54.7987 162.186C54.7987 181.282 70.279 196.762 89.375 196.762Z" fill="#B3AFF2"/>
<path d="M100.881 176.7C103.123 176.638 105.912 176.56 108.061 174.99C108.701 174.504 109.227 173.883 109.601 173.172C109.976 172.461 110.191 171.676 110.231 170.873C110.269 170.303 110.176 169.731 109.957 169.202C109.738 168.674 109.4 168.203 108.969 167.827C107.847 166.879 106.208 166.656 104.442 167.175L106.272 153.802L104.928 153.618L102.777 169.34L103.899 168.825C105.199 168.229 106.985 167.925 108.094 168.863C108.366 169.108 108.579 169.412 108.714 169.753C108.85 170.093 108.905 170.46 108.876 170.826C108.843 171.423 108.681 172.007 108.403 172.536C108.124 173.066 107.735 173.53 107.261 173.895C105.589 175.117 103.365 175.274 100.844 175.345L100.881 176.7Z" fill="#2F2E41"/>
<path d="M120.218 154.955H112.915V156.311H120.218V154.955Z" fill="#2F2E41"/>
<path d="M97.167 154.955H89.8643V156.311H97.167V154.955Z" fill="#2F2E41"/>
<path d="M123.635 309.188L111.19 218.341C111.057 217.367 110.575 216.474 109.834 215.828C109.093 215.181 108.143 214.825 107.16 214.825H97.7664C97.8055 214.601 97.8259 214.375 97.8273 214.147V210.757C97.8273 209.679 97.3987 208.644 96.6358 207.881C95.873 207.118 94.8383 206.69 93.7595 206.69H85.6239C84.5451 206.69 83.5104 207.118 82.7476 207.881C81.9847 208.644 81.5561 209.679 81.5561 210.757V214.147C81.5575 214.375 81.5779 214.601 81.617 214.825H72.2235C71.2402 214.825 70.2903 215.181 69.5493 215.828C68.8084 216.474 68.3266 217.367 68.1931 218.341L55.7483 309.188C55.6695 309.764 55.7148 310.35 55.8812 310.906C56.0477 311.462 56.3313 311.977 56.7131 312.415C57.0949 312.852 57.566 313.203 58.0948 313.444C58.6235 313.684 59.1976 313.808 59.7784 313.808H119.605C120.186 313.808 120.76 313.684 121.289 313.444C121.817 313.203 122.288 312.852 122.67 312.415C123.052 311.977 123.336 311.463 123.502 310.906C123.669 310.35 123.714 309.764 123.635 309.188Z" fill="#2F2E41"/>
<path d="M104.268 263.384V219.946L104.57 219.912C109.727 219.361 114.911 220.678 119.18 223.624C123.449 226.57 126.52 230.949 127.834 235.967L135.571 256.427L104.268 263.384Z" fill="#2F2E41"/>
<path d="M87.6338 197.841L63.7183 188.558C59.8076 187.04 55.875 185.569 51.9851 183.999C50.3188 183.418 48.7838 182.513 47.4688 181.337C46.3238 180.125 45.5435 178.615 45.2172 176.979C44.3877 173.474 44.5377 169.64 44.5968 166.063C44.6427 162.149 44.9648 158.243 45.5607 154.374C46.6051 147.104 49.0578 140.108 52.7812 133.777C59.4882 122.773 71.0437 114.493 84.3358 115.154C90.4894 115.46 96.6785 117.668 101.251 121.875C101.728 122.445 102.263 122.964 102.847 123.423C103.254 123.575 103.696 123.605 104.119 123.508C104.677 123.472 105.235 123.445 105.794 123.426C107.733 123.344 109.676 123.426 111.601 123.67C115.11 124.049 118.436 125.43 121.181 127.647C123.466 129.613 125.325 132.388 125.516 135.471C125.609 136.887 125.375 138.304 124.832 139.615C124.29 140.926 123.454 142.094 122.388 143.031C119.535 145.435 115.464 144.59 112.041 144.409L99.5032 143.745L93.1505 143.408C91.8425 143.339 91.8463 145.373 93.1505 145.442L110.035 146.337C112.749 146.48 115.545 146.833 118.261 146.67C120.347 146.575 122.339 145.774 123.91 144.397C125.345 143.079 126.413 141.412 127.012 139.559C127.61 137.705 127.718 135.728 127.325 133.82C126.454 129.659 123.358 126.217 119.727 124.169C114.787 121.383 108.888 121.116 103.36 121.528L104.08 121.826C97.8272 115.115 88.2501 112.282 79.2591 113.273C69.766 114.32 61.3227 119.616 55.2563 126.858C48.4926 134.932 44.8068 145 43.3739 155.353C42.6282 160.942 42.3828 166.587 42.6404 172.22C42.6298 174.705 43.0548 177.172 43.8961 179.509C44.8561 181.784 46.5918 183.645 48.7945 184.761C51.3199 185.98 53.9162 187.047 56.5693 187.955L65.3803 191.375L82.6877 198.092L87.0932 199.802C88.3141 200.276 88.843 198.31 87.6338 197.841Z" fill="#2F2E41"/>
<path d="M50.0307 128.724C47.9523 128.724 45.9206 128.107 44.1925 126.953C42.4644 125.798 41.1175 124.157 40.3221 122.237C39.5268 120.317 39.3187 118.204 39.7241 116.165C40.1296 114.127 41.1304 112.254 42.6001 110.785C44.0697 109.315 45.9422 108.314 47.9806 107.909C50.019 107.503 52.1319 107.711 54.0521 108.507C55.9723 109.302 57.6135 110.649 58.7682 112.377C59.9228 114.105 60.5392 116.137 60.5392 118.215C60.536 121.001 59.4279 123.672 57.4578 125.642C55.4878 127.612 52.8168 128.721 50.0307 128.724ZM50.0307 109.741C48.3546 109.741 46.7161 110.238 45.3225 111.169C43.9288 112.1 42.8426 113.424 42.2012 114.972C41.5598 116.521 41.392 118.225 41.719 119.869C42.0459 121.512 42.8531 123.023 44.0383 124.208C45.2235 125.393 46.7335 126.2 48.3774 126.527C50.0213 126.854 51.7252 126.686 53.2738 126.045C54.8223 125.403 56.1459 124.317 57.0771 122.924C58.0082 121.53 58.5053 119.891 58.5053 118.215C58.5027 115.968 57.6091 113.814 56.0203 112.226C54.4316 110.637 52.2775 109.743 50.0307 109.741Z" fill="#2F2E41"/>
<path d="M225.694 193.846L202.949 176.45L185.553 199.195L208.298 216.591L225.694 193.846Z" fill="#F0F0F0"/>
<path d="M97.1494 38.5542C100.743 38.5514 104.288 39.3901 107.499 41.0032C110.71 42.6164 113.499 44.9591 115.642 47.8438L128.924 30.4786L89.0737 0L58.5953 39.8502L75.7706 52.9863C77.4893 48.7236 80.4431 45.072 84.2525 42.5003C88.062 39.9287 92.5532 38.5545 97.1494 38.5542Z" fill="#F0F0F0"/>
<path d="M479.322 376.859H0.677966C0.498158 376.859 0.325714 376.788 0.198571 376.661C0.0714279 376.534 0 376.361 0 376.181C0 376.002 0.0714279 375.829 0.198571 375.702C0.325714 375.575 0.498158 375.503 0.677966 375.503H479.322C479.502 375.503 479.674 375.575 479.801 375.702C479.929 375.829 480 376.002 480 376.181C480 376.361 479.929 376.534 479.801 376.661C479.674 376.788 479.502 376.859 479.322 376.859Z" fill="#3F3D56"/>
<path d="M362.5 264.364H313.78C311.982 264.362 310.259 263.647 308.988 262.376C307.717 261.105 307.002 259.382 307 257.584V254.21C307.002 252.412 307.717 250.689 308.988 249.418C310.259 248.147 311.982 247.432 313.78 247.43H362.5C364.297 247.432 366.021 248.147 367.292 249.418C368.563 250.689 369.278 252.412 369.28 254.21V257.584C369.278 259.382 368.563 261.105 367.292 262.376C366.021 263.647 364.297 264.362 362.5 264.364Z" fill="#046CC6"/>
<path d="M367.634 257.858H318.913C317.026 257.856 315.217 257.106 313.882 255.771C312.548 254.437 311.797 252.627 311.795 250.74V247.365C311.797 245.478 312.548 243.668 313.882 242.334C315.217 240.999 317.026 240.249 318.913 240.247H367.634C369.521 240.249 371.33 240.999 372.665 242.334C373.999 243.668 374.75 245.478 374.752 247.365V250.74C374.75 252.627 373.999 254.437 372.665 255.771C371.33 257.106 369.521 257.856 367.634 257.858ZM318.913 241.603C317.385 241.604 315.921 242.212 314.84 243.292C313.76 244.373 313.152 245.837 313.151 247.365V250.74C313.152 252.268 313.76 253.732 314.84 254.813C315.921 255.893 317.385 256.501 318.913 256.503H367.634C369.161 256.501 370.626 255.893 371.706 254.813C372.787 253.732 373.395 252.268 373.396 250.74V247.365C373.395 245.837 372.787 244.373 371.706 243.292C370.626 242.212 369.161 241.604 367.634 241.603H318.913Z" fill="#3F3D56"/>
</g>
<defs>
<clipPath id="clip0_276_30">
<rect width="480" height="376.859" fill="white"/>
</clipPath>
</defs>
</svg>
