<svg width="220" height="161" viewBox="0 0 220 161" fill="none" xmlns="http://www.w3.org/2000/svg">
<path d="M27 14.1479C27 21.4192 21.1698 27.2958 14 27.2958C6.83018 27.2958 1 21.4192 1 14.1479C1 6.87658 6.83018 1 14 1C21.1698 1 27 6.87658 27 14.1479Z" stroke="white" stroke-width="2"/>
<path d="M13.7843 19V9.76L14.3863 10.418H11.5723V9.2H15.1703V19H13.7843Z" fill="white"/>
<path d="M45.888 19V14.28H44.032V13.4H48.784V14.28H46.928V19H45.888ZM49.5549 20.608C49.3469 20.608 49.1389 20.5733 48.9309 20.504C48.7229 20.4347 48.5495 20.3387 48.4109 20.216L48.8109 19.48C48.9122 19.5707 49.0269 19.6427 49.1549 19.696C49.2829 19.7493 49.4135 19.776 49.5469 19.776C49.7282 19.776 49.8749 19.7307 49.9869 19.64C50.0989 19.5493 50.2029 19.3973 50.2989 19.184L50.5469 18.624L50.6269 18.504L52.2429 14.728H53.2029L51.2029 19.344C51.0695 19.664 50.9202 19.9173 50.7549 20.104C50.5949 20.2907 50.4135 20.4213 50.2109 20.496C50.0135 20.5707 49.7949 20.608 49.5549 20.608ZM50.4349 19.152L48.5069 14.728H49.5469L51.1149 18.416L50.4349 19.152ZM56.1959 19.056C55.8492 19.056 55.5319 18.976 55.2439 18.816C54.9612 18.656 54.7345 18.416 54.5639 18.096C54.3985 17.7707 54.3159 17.36 54.3159 16.864C54.3159 16.3627 54.3959 15.952 54.5559 15.632C54.7212 15.312 54.9452 15.0747 55.2279 14.92C55.5105 14.76 55.8332 14.68 56.1959 14.68C56.6172 14.68 56.9879 14.7707 57.3079 14.952C57.6332 15.1333 57.8892 15.3867 58.0759 15.712C58.2679 16.0373 58.3639 16.4213 58.3639 16.864C58.3639 17.3067 58.2679 17.6933 58.0759 18.024C57.8892 18.3493 57.6332 18.6027 57.3079 18.784C56.9879 18.9653 56.6172 19.056 56.1959 19.056ZM53.8279 20.552V14.728H54.7799V15.736L54.7479 16.872L54.8279 18.008V20.552H53.8279ZM56.0839 18.2C56.3239 18.2 56.5372 18.1467 56.7239 18.04C56.9159 17.9333 57.0679 17.7787 57.1799 17.576C57.2919 17.3733 57.3479 17.136 57.3479 16.864C57.3479 16.5867 57.2919 16.3493 57.1799 16.152C57.0679 15.9493 56.9159 15.7947 56.7239 15.688C56.5372 15.5813 56.3239 15.528 56.0839 15.528C55.8439 15.528 55.6279 15.5813 55.4359 15.688C55.2439 15.7947 55.0919 15.9493 54.9799 16.152C54.8679 16.3493 54.8119 16.5867 54.8119 16.864C54.8119 17.136 54.8679 17.3733 54.9799 17.576C55.0919 17.7787 55.2439 17.9333 55.4359 18.04C55.6279 18.1467 55.8439 18.2 56.0839 18.2ZM61.3203 19.056C60.8456 19.056 60.4296 18.9627 60.0723 18.776C59.7203 18.584 59.4456 18.3227 59.2483 17.992C59.0563 17.6613 58.9603 17.2853 58.9603 16.864C58.9603 16.4373 59.0536 16.0613 59.2403 15.736C59.4323 15.4053 59.6936 15.1467 60.0243 14.96C60.3603 14.7733 60.7416 14.68 61.1683 14.68C61.5843 14.68 61.9549 14.7707 62.2803 14.952C62.6056 15.1333 62.8616 15.3893 63.0483 15.72C63.2349 16.0507 63.3283 16.44 63.3283 16.888C63.3283 16.9307 63.3256 16.9787 63.3203 17.032C63.3203 17.0853 63.3176 17.136 63.3123 17.184H59.7523V16.52H62.7843L62.3923 16.728C62.3976 16.4827 62.3469 16.2667 62.2403 16.08C62.1336 15.8933 61.9869 15.7467 61.8003 15.64C61.6189 15.5333 61.4083 15.48 61.1683 15.48C60.9229 15.48 60.7069 15.5333 60.5203 15.64C60.3389 15.7467 60.1949 15.896 60.0883 16.088C59.9869 16.2747 59.9363 16.496 59.9363 16.752V16.912C59.9363 17.168 59.9949 17.3947 60.1123 17.592C60.2296 17.7893 60.3949 17.9413 60.6083 18.048C60.8216 18.1547 61.0669 18.208 61.3443 18.208C61.5843 18.208 61.8003 18.1707 61.9923 18.096C62.1843 18.0213 62.3549 17.904 62.5043 17.744L63.0403 18.36C62.8483 18.584 62.6056 18.7573 62.3123 18.88C62.0243 18.9973 61.6936 19.056 61.3203 19.056ZM68.4198 19.056C67.9824 19.056 67.5931 18.9627 67.2518 18.776C66.9104 18.584 66.6411 18.3227 66.4438 17.992C66.2464 17.6613 66.1478 17.2853 66.1478 16.864C66.1478 16.4373 66.2464 16.0613 66.4438 15.736C66.6411 15.4053 66.9104 15.1467 67.2518 14.96C67.5931 14.7733 67.9824 14.68 68.4198 14.68C68.8624 14.68 69.2544 14.7733 69.5958 14.96C69.9424 15.1467 70.2118 15.4027 70.4038 15.728C70.6011 16.0533 70.6998 16.432 70.6998 16.864C70.6998 17.2853 70.6011 17.6613 70.4038 17.992C70.2118 18.3227 69.9424 18.584 69.5958 18.776C69.2544 18.9627 68.8624 19.056 68.4198 19.056ZM68.4198 18.2C68.6651 18.2 68.8838 18.1467 69.0758 18.04C69.2678 17.9333 69.4171 17.7787 69.5238 17.576C69.6358 17.3733 69.6918 17.136 69.6918 16.864C69.6918 16.5867 69.6358 16.3493 69.5238 16.152C69.4171 15.9493 69.2678 15.7947 69.0758 15.688C68.8838 15.5813 68.6678 15.528 68.4278 15.528C68.1824 15.528 67.9638 15.5813 67.7718 15.688C67.5851 15.7947 67.4358 15.9493 67.3238 16.152C67.2118 16.3493 67.1558 16.5867 67.1558 16.864C67.1558 17.136 67.2118 17.3733 67.3238 17.576C67.4358 17.7787 67.5851 17.9333 67.7718 18.04C67.9638 18.1467 68.1798 18.2 68.4198 18.2ZM71.792 19V14.488C71.792 14.04 71.9227 13.6827 72.184 13.416C72.4507 13.144 72.8293 13.008 73.32 13.008C73.496 13.008 73.6613 13.0267 73.816 13.064C73.976 13.1013 74.1093 13.16 74.216 13.24L73.944 13.992C73.8693 13.9333 73.784 13.8907 73.688 13.864C73.592 13.832 73.4933 13.816 73.392 13.816C73.184 13.816 73.0267 13.8747 72.92 13.992C72.8133 14.104 72.76 14.2747 72.76 14.504V14.984L72.792 15.432V19H71.792ZM71.088 15.56V14.76H73.936V15.56H71.088ZM78.4281 19.056C77.9587 19.056 77.5961 18.936 77.3401 18.696C77.0841 18.4507 76.9561 18.0907 76.9561 17.616V13.784H77.9561V17.592C77.9561 17.7947 78.0067 17.952 78.1081 18.064C78.2147 18.176 78.3614 18.232 78.5481 18.232C78.7721 18.232 78.9587 18.1733 79.1081 18.056L79.3881 18.768C79.2707 18.864 79.1267 18.936 78.9561 18.984C78.7854 19.032 78.6094 19.056 78.4281 19.056ZM76.2521 15.56V14.76H79.1001V15.56H76.2521ZM80.2107 19V14.728H81.1627V15.904L81.0507 15.56C81.1787 15.272 81.3787 15.0533 81.6507 14.904C81.928 14.7547 82.272 14.68 82.6827 14.68V15.632C82.64 15.6213 82.6 15.616 82.5627 15.616C82.5254 15.6107 82.488 15.608 82.4507 15.608C82.072 15.608 81.7707 15.72 81.5467 15.944C81.3227 16.1627 81.2107 16.4907 81.2107 16.928V19H80.2107ZM83.531 19V14.728H84.531V19H83.531ZM84.035 14.024C83.8483 14.024 83.6937 13.9653 83.571 13.848C83.4537 13.7307 83.395 13.5893 83.395 13.424C83.395 13.2533 83.4537 13.112 83.571 13C83.6937 12.8827 83.8483 12.824 84.035 12.824C84.2217 12.824 84.3737 12.88 84.491 12.992C84.6137 13.0987 84.675 13.2347 84.675 13.4C84.675 13.576 84.6163 13.7253 84.499 13.848C84.3817 13.9653 84.227 14.024 84.035 14.024ZM88.2115 19.056C87.8648 19.056 87.5475 18.976 87.2595 18.816C86.9768 18.656 86.7502 18.416 86.5795 18.096C86.4142 17.7707 86.3315 17.36 86.3315 16.864C86.3315 16.3627 86.4115 15.952 86.5715 15.632C86.7368 15.312 86.9608 15.0747 87.2435 14.92C87.5262 14.76 87.8488 14.68 88.2115 14.68C88.6328 14.68 89.0035 14.7707 89.3235 14.952C89.6488 15.1333 89.9048 15.3867 90.0915 15.712C90.2835 16.0373 90.3795 16.4213 90.3795 16.864C90.3795 17.3067 90.2835 17.6933 90.0915 18.024C89.9048 18.3493 89.6488 18.6027 89.3235 18.784C89.0035 18.9653 88.6328 19.056 88.2115 19.056ZM85.8435 20.552V14.728H86.7955V15.736L86.7635 16.872L86.8435 18.008V20.552H85.8435ZM88.0995 18.2C88.3395 18.2 88.5528 18.1467 88.7395 18.04C88.9315 17.9333 89.0835 17.7787 89.1955 17.576C89.3075 17.3733 89.3635 17.136 89.3635 16.864C89.3635 16.5867 89.3075 16.3493 89.1955 16.152C89.0835 15.9493 88.9315 15.7947 88.7395 15.688C88.5528 15.5813 88.3395 15.528 88.0995 15.528C87.8595 15.528 87.6435 15.5813 87.4515 15.688C87.2595 15.7947 87.1075 15.9493 86.9955 16.152C86.8835 16.3493 86.8275 16.5867 86.8275 16.864C86.8275 17.136 86.8835 17.3733 86.9955 17.576C87.1075 17.7787 87.2595 17.9333 87.4515 18.04C87.6435 18.1467 87.8595 18.2 88.0995 18.2ZM93.5388 19V14.728H94.4908V15.904L94.3788 15.56C94.5068 15.272 94.7068 15.0533 94.9788 14.904C95.2561 14.7547 95.6001 14.68 96.0108 14.68V15.632C95.9681 15.6213 95.9281 15.616 95.8908 15.616C95.8535 15.6107 95.8161 15.608 95.7788 15.608C95.4001 15.608 95.0988 15.72 94.8748 15.944C94.6508 16.1627 94.5388 16.4907 94.5388 16.928V19H93.5388ZM98.8281 19.056C98.3534 19.056 97.9374 18.9627 97.5801 18.776C97.2281 18.584 96.9534 18.3227 96.7561 17.992C96.5641 17.6613 96.4681 17.2853 96.4681 16.864C96.4681 16.4373 96.5614 16.0613 96.7481 15.736C96.9401 15.4053 97.2014 15.1467 97.5321 14.96C97.8681 14.7733 98.2494 14.68 98.6761 14.68C99.0921 14.68 99.4627 14.7707 99.7881 14.952C100.113 15.1333 100.369 15.3893 100.556 15.72C100.743 16.0507 100.836 16.44 100.836 16.888C100.836 16.9307 100.833 16.9787 100.828 17.032C100.828 17.0853 100.825 17.136 100.82 17.184H97.2601V16.52H100.292L99.9001 16.728C99.9054 16.4827 99.8547 16.2667 99.7481 16.08C99.6414 15.8933 99.4947 15.7467 99.3081 15.64C99.1267 15.5333 98.9161 15.48 98.6761 15.48C98.4307 15.48 98.2147 15.5333 98.0281 15.64C97.8467 15.7467 97.7027 15.896 97.5961 16.088C97.4947 16.2747 97.4441 16.496 97.4441 16.752V16.912C97.4441 17.168 97.5027 17.3947 97.6201 17.592C97.7374 17.7893 97.9027 17.9413 98.1161 18.048C98.3294 18.1547 98.5747 18.208 98.8521 18.208C99.0921 18.208 99.3081 18.1707 99.5001 18.096C99.6921 18.0213 99.8627 17.904 100.012 17.744L100.548 18.36C100.356 18.584 100.113 18.7573 99.8201 18.88C99.5321 18.9973 99.2014 19.056 98.8281 19.056ZM103.605 19.056C103.194 19.056 102.823 18.9653 102.493 18.784C102.167 18.6027 101.911 18.3493 101.725 18.024C101.538 17.6933 101.445 17.3067 101.445 16.864C101.445 16.4213 101.538 16.0373 101.725 15.712C101.911 15.3867 102.167 15.1333 102.493 14.952C102.823 14.7707 103.194 14.68 103.605 14.68C103.973 14.68 104.295 14.76 104.573 14.92C104.855 15.0747 105.077 15.312 105.237 15.632C105.402 15.952 105.485 16.3627 105.485 16.864C105.485 17.36 105.399 17.7707 105.229 18.096C105.063 18.416 104.839 18.656 104.557 18.816C104.274 18.976 103.957 19.056 103.605 19.056ZM103.717 18.2C103.957 18.2 104.173 18.1467 104.365 18.04C104.557 17.9333 104.709 17.7787 104.821 17.576C104.933 17.3733 104.989 17.136 104.989 16.864C104.989 16.5867 104.933 16.3493 104.821 16.152C104.709 15.9493 104.557 15.7947 104.365 15.688C104.173 15.5813 103.957 15.528 103.717 15.528C103.477 15.528 103.261 15.5813 103.069 15.688C102.882 15.7947 102.733 15.9493 102.621 16.152C102.509 16.3493 102.453 16.5867 102.453 16.864C102.453 17.136 102.509 17.3733 102.621 17.576C102.733 17.7787 102.882 17.9333 103.069 18.04C103.261 18.1467 103.477 18.2 103.717 18.2ZM104.973 20.552V18.008L105.053 16.872L105.021 15.736V14.728H105.973V20.552H104.973ZM109.089 19.056C108.726 19.056 108.406 18.9893 108.129 18.856C107.852 18.7173 107.636 18.5093 107.481 18.232C107.326 17.9493 107.249 17.5947 107.249 17.168V14.728H108.249V17.032C108.249 17.416 108.334 17.704 108.505 17.896C108.681 18.0827 108.929 18.176 109.249 18.176C109.484 18.176 109.686 18.128 109.857 18.032C110.033 17.936 110.169 17.792 110.265 17.6C110.366 17.408 110.417 17.1707 110.417 16.888V14.728H111.417V19H110.465V17.848L110.633 18.2C110.489 18.4773 110.278 18.6907 110.001 18.84C109.724 18.984 109.42 19.056 109.089 19.056ZM114.734 19.056C114.26 19.056 113.844 18.9627 113.486 18.776C113.134 18.584 112.86 18.3227 112.662 17.992C112.47 17.6613 112.374 17.2853 112.374 16.864C112.374 16.4373 112.468 16.0613 112.654 15.736C112.846 15.4053 113.108 15.1467 113.438 14.96C113.774 14.7733 114.156 14.68 114.582 14.68C114.998 14.68 115.369 14.7707 115.694 14.952C116.02 15.1333 116.276 15.3893 116.462 15.72C116.649 16.0507 116.742 16.44 116.742 16.888C116.742 16.9307 116.74 16.9787 116.734 17.032C116.734 17.0853 116.732 17.136 116.726 17.184H113.166V16.52H116.198L115.806 16.728C115.812 16.4827 115.761 16.2667 115.654 16.08C115.548 15.8933 115.401 15.7467 115.214 15.64C115.033 15.5333 114.822 15.48 114.582 15.48C114.337 15.48 114.121 15.5333 113.934 15.64C113.753 15.7467 113.609 15.896 113.502 16.088C113.401 16.2747 113.35 16.496 113.35 16.752V16.912C113.35 17.168 113.409 17.3947 113.526 17.592C113.644 17.7893 113.809 17.9413 114.022 18.048C114.236 18.1547 114.481 18.208 114.758 18.208C114.998 18.208 115.214 18.1707 115.406 18.096C115.598 18.0213 115.769 17.904 115.918 17.744L116.454 18.36C116.262 18.584 116.02 18.7573 115.726 18.88C115.438 18.9973 115.108 19.056 114.734 19.056ZM119.023 19.056C118.666 19.056 118.322 19.0107 117.991 18.92C117.666 18.824 117.407 18.7093 117.215 18.576L117.599 17.816C117.791 17.9387 118.02 18.04 118.287 18.12C118.554 18.2 118.82 18.24 119.087 18.24C119.402 18.24 119.628 18.1973 119.767 18.112C119.911 18.0267 119.983 17.912 119.983 17.768C119.983 17.6507 119.935 17.5627 119.839 17.504C119.743 17.44 119.618 17.392 119.463 17.36C119.308 17.328 119.135 17.2987 118.943 17.272C118.756 17.2453 118.567 17.2107 118.375 17.168C118.188 17.12 118.018 17.0533 117.863 16.968C117.708 16.8773 117.583 16.7573 117.487 16.608C117.391 16.4587 117.343 16.2613 117.343 16.016C117.343 15.744 117.42 15.5093 117.575 15.312C117.73 15.1093 117.946 14.9547 118.223 14.848C118.506 14.736 118.839 14.68 119.223 14.68C119.511 14.68 119.802 14.712 120.095 14.776C120.388 14.84 120.631 14.9307 120.823 15.048L120.439 15.808C120.236 15.6853 120.031 15.6027 119.823 15.56C119.62 15.512 119.418 15.488 119.215 15.488C118.911 15.488 118.684 15.5333 118.535 15.624C118.391 15.7147 118.319 15.8293 118.319 15.968C118.319 16.096 118.367 16.192 118.463 16.256C118.559 16.32 118.684 16.3707 118.839 16.408C118.994 16.4453 119.164 16.4773 119.351 16.504C119.543 16.5253 119.732 16.56 119.919 16.608C120.106 16.656 120.276 16.7227 120.431 16.808C120.591 16.888 120.719 17.0027 120.815 17.152C120.911 17.3013 120.959 17.496 120.959 17.736C120.959 18.0027 120.879 18.2347 120.719 18.432C120.564 18.6293 120.343 18.784 120.055 18.896C119.767 19.0027 119.423 19.056 119.023 19.056ZM123.428 19.056C122.959 19.056 122.596 18.936 122.34 18.696C122.084 18.4507 121.956 18.0907 121.956 17.616V13.784H122.956V17.592C122.956 17.7947 123.007 17.952 123.108 18.064C123.215 18.176 123.361 18.232 123.548 18.232C123.772 18.232 123.959 18.1733 124.108 18.056L124.388 18.768C124.271 18.864 124.127 18.936 123.956 18.984C123.785 19.032 123.609 19.056 123.428 19.056ZM121.252 15.56V14.76H124.1V15.56H121.252Z" fill="#FDFDFD"/>
<path d="M27 80.1479C27 87.4192 21.1698 93.2958 14 93.2958C6.83018 93.2958 1 87.4192 1 80.1479C1 72.8766 6.83018 67 14 67C21.1698 67 27 72.8766 27 80.1479Z" stroke="white" stroke-opacity="0.5" stroke-width="2"/>
<path d="M9.63755 86.3503V85.2623L14.1976 80.8623C14.6029 80.4783 14.9016 80.1423 15.0936 79.8543C15.2962 79.5557 15.4296 79.2837 15.4936 79.0383C15.5682 78.7823 15.6056 78.537 15.6056 78.3023C15.6056 77.7263 15.4029 77.273 14.9976 76.9423C14.5922 76.6117 14.0002 76.4463 13.2215 76.4463C12.6242 76.4463 12.0856 76.5477 11.6056 76.7503C11.1255 76.9423 10.7095 77.2463 10.3575 77.6623L9.26955 76.7183C9.69622 76.1743 10.2669 75.7583 10.9815 75.4703C11.7069 75.1717 12.5016 75.0223 13.3656 75.0223C14.1442 75.0223 14.8216 75.1503 15.3976 75.4063C15.9736 75.6517 16.4162 76.009 16.7256 76.4783C17.0456 76.9477 17.2056 77.5023 17.2056 78.1423C17.2056 78.505 17.1576 78.8623 17.0616 79.2143C16.9656 79.5663 16.7842 79.9397 16.5175 80.3343C16.2509 80.729 15.8669 81.1717 15.3656 81.6623L11.3015 85.5823L10.9175 84.9583H17.6856V86.3503H9.63755Z" fill="white" fill-opacity="0.5"/>
<path d="M44.752 83V77.4H45.608L49.12 81.712H48.696V77.4H49.728V83H48.872L45.36 78.688H45.784V83H44.752ZM52.9406 83.056C52.5779 83.056 52.2579 82.9893 51.9806 82.856C51.7032 82.7173 51.4872 82.5093 51.3326 82.232C51.1779 81.9493 51.1006 81.5947 51.1006 81.168V78.728H52.1006V81.032C52.1006 81.416 52.1859 81.704 52.3566 81.896C52.5326 82.0827 52.7806 82.176 53.1006 82.176C53.3352 82.176 53.5379 82.128 53.7086 82.032C53.8846 81.936 54.0206 81.792 54.1166 81.6C54.2179 81.408 54.2686 81.1707 54.2686 80.888V78.728H55.2686V83H54.3166V81.848L54.4846 82.2C54.3406 82.4773 54.1299 82.6907 53.8526 82.84C53.5752 82.984 53.2712 83.056 52.9406 83.056ZM61.9699 78.68C62.3112 78.68 62.6125 78.7467 62.8739 78.88C63.1405 79.0133 63.3485 79.2187 63.4979 79.496C63.6472 79.768 63.7219 80.12 63.7219 80.552V83H62.7219V80.68C62.7219 80.3013 62.6392 80.0187 62.4739 79.832C62.3085 79.6453 62.0712 79.552 61.7619 79.552C61.5432 79.552 61.3485 79.6 61.1779 79.696C61.0125 79.792 60.8819 79.9333 60.7859 80.12C60.6952 80.3067 60.6499 80.544 60.6499 80.832V83H59.6499V80.68C59.6499 80.3013 59.5672 80.0187 59.4019 79.832C59.2365 79.6453 58.9992 79.552 58.6899 79.552C58.4712 79.552 58.2765 79.6 58.1059 79.696C57.9405 79.792 57.8099 79.9333 57.7139 80.12C57.6232 80.3067 57.5779 80.544 57.5779 80.832V83H56.5779V78.728H57.5299V79.864L57.3619 79.528C57.5059 79.2507 57.7139 79.04 57.9859 78.896C58.2632 78.752 58.5779 78.68 58.9299 78.68C59.3299 78.68 59.6765 78.7787 59.9699 78.976C60.2685 79.1733 60.4659 79.472 60.5619 79.872L60.1699 79.736C60.3085 79.416 60.5379 79.16 60.8579 78.968C61.1779 78.776 61.5485 78.68 61.9699 78.68ZM67.3678 83.056C67.0051 83.056 66.6824 82.976 66.3997 82.816C66.1171 82.656 65.8931 82.416 65.7278 82.096C65.5678 81.7707 65.4878 81.36 65.4878 80.864C65.4878 80.3627 65.5704 79.952 65.7358 79.632C65.9064 79.312 66.1331 79.0747 66.4158 78.92C66.7038 78.76 67.0211 78.68 67.3678 78.68C67.7891 78.68 68.1598 78.7707 68.4798 78.952C68.8051 79.1333 69.0611 79.3867 69.2478 79.712C69.4398 80.0373 69.5358 80.4213 69.5358 80.864C69.5358 81.3067 69.4398 81.6907 69.2478 82.016C69.0611 82.3413 68.8051 82.5973 68.4798 82.784C68.1598 82.9653 67.7891 83.056 67.3678 83.056ZM64.9998 83V77.064H65.9998V79.72L65.9198 80.856L65.9518 81.992V83H64.9998ZM67.2558 82.2C67.4958 82.2 67.7091 82.1467 67.8958 82.04C68.0878 81.9333 68.2398 81.7787 68.3518 81.576C68.4638 81.3733 68.5198 81.136 68.5198 80.864C68.5198 80.5867 68.4638 80.3493 68.3518 80.152C68.2398 79.9493 68.0878 79.7947 67.8958 79.688C67.7091 79.5813 67.4958 79.528 67.2558 79.528C67.0158 79.528 66.7998 79.5813 66.6078 79.688C66.4158 79.7947 66.2638 79.9493 66.1518 80.152C66.0398 80.3493 65.9838 80.5867 65.9838 80.864C65.9838 81.136 66.0398 81.3733 66.1518 81.576C66.2638 81.7787 66.4158 81.9333 66.6078 82.04C66.7998 82.1467 67.0158 82.2 67.2558 82.2ZM72.4921 83.056C72.0175 83.056 71.6015 82.9627 71.2441 82.776C70.8921 82.584 70.6175 82.3227 70.4201 81.992C70.2281 81.6613 70.1321 81.2853 70.1321 80.864C70.1321 80.4373 70.2255 80.0613 70.4121 79.736C70.6041 79.4053 70.8655 79.1467 71.1961 78.96C71.5321 78.7733 71.9135 78.68 72.3401 78.68C72.7561 78.68 73.1268 78.7707 73.4521 78.952C73.7775 79.1333 74.0335 79.3893 74.2201 79.72C74.4068 80.0507 74.5001 80.44 74.5001 80.888C74.5001 80.9307 74.4975 80.9787 74.4921 81.032C74.4921 81.0853 74.4895 81.136 74.4841 81.184H70.9241V80.52H73.9561L73.5641 80.728C73.5695 80.4827 73.5188 80.2667 73.4121 80.08C73.3055 79.8933 73.1588 79.7467 72.9721 79.64C72.7908 79.5333 72.5801 79.48 72.3401 79.48C72.0948 79.48 71.8788 79.5333 71.6921 79.64C71.5108 79.7467 71.3668 79.896 71.2601 80.088C71.1588 80.2747 71.1081 80.496 71.1081 80.752V80.912C71.1081 81.168 71.1668 81.3947 71.2841 81.592C71.4015 81.7893 71.5668 81.9413 71.7801 82.048C71.9935 82.1547 72.2388 82.208 72.5161 82.208C72.7561 82.208 72.9721 82.1707 73.1641 82.096C73.3561 82.0213 73.5268 81.904 73.6761 81.744L74.2121 82.36C74.0201 82.584 73.7775 82.7573 73.4841 82.88C73.1961 82.9973 72.8655 83.056 72.4921 83.056ZM75.4607 83V78.728H76.4127V79.904L76.3007 79.56C76.4287 79.272 76.6287 79.0533 76.9007 78.904C77.178 78.7547 77.522 78.68 77.9327 78.68V79.632C77.89 79.6213 77.85 79.616 77.8127 79.616C77.7754 79.6107 77.738 79.608 77.7007 79.608C77.322 79.608 77.0207 79.72 76.7967 79.944C76.5727 80.1627 76.4607 80.4907 76.4607 80.928V83H75.4607ZM82.951 83.056C82.5137 83.056 82.1243 82.9627 81.783 82.776C81.4417 82.584 81.1723 82.3227 80.975 81.992C80.7777 81.6613 80.679 81.2853 80.679 80.864C80.679 80.4373 80.7777 80.0613 80.975 79.736C81.1723 79.4053 81.4417 79.1467 81.783 78.96C82.1243 78.7733 82.5137 78.68 82.951 78.68C83.3937 78.68 83.7857 78.7733 84.127 78.96C84.4737 79.1467 84.743 79.4027 84.935 79.728C85.1323 80.0533 85.231 80.432 85.231 80.864C85.231 81.2853 85.1323 81.6613 84.935 81.992C84.743 82.3227 84.4737 82.584 84.127 82.776C83.7857 82.9627 83.3937 83.056 82.951 83.056ZM82.951 82.2C83.1963 82.2 83.415 82.1467 83.607 82.04C83.799 81.9333 83.9483 81.7787 84.055 81.576C84.167 81.3733 84.223 81.136 84.223 80.864C84.223 80.5867 84.167 80.3493 84.055 80.152C83.9483 79.9493 83.799 79.7947 83.607 79.688C83.415 79.5813 83.199 79.528 82.959 79.528C82.7137 79.528 82.495 79.5813 82.303 79.688C82.1163 79.7947 81.967 79.9493 81.855 80.152C81.743 80.3493 81.687 80.5867 81.687 80.864C81.687 81.136 81.743 81.3733 81.855 81.576C81.967 81.7787 82.1163 81.9333 82.303 82.04C82.495 82.1467 82.711 82.2 82.951 82.2ZM86.3233 83V78.488C86.3233 78.04 86.4539 77.6827 86.7153 77.416C86.9819 77.144 87.3606 77.008 87.8513 77.008C88.0273 77.008 88.1926 77.0267 88.3473 77.064C88.5073 77.1013 88.6406 77.16 88.7473 77.24L88.4753 77.992C88.4006 77.9333 88.3153 77.8907 88.2193 77.864C88.1233 77.832 88.0246 77.816 87.9233 77.816C87.7153 77.816 87.5579 77.8747 87.4513 77.992C87.3446 78.104 87.2913 78.2747 87.2913 78.504V78.984L87.3233 79.432V83H86.3233ZM85.6193 79.56V78.76H88.4673V79.56H85.6193ZM92.9593 83.056C92.49 83.056 92.1273 82.936 91.8713 82.696C91.6153 82.4507 91.4873 82.0907 91.4873 81.616V77.784H92.4873V81.592C92.4873 81.7947 92.538 81.952 92.6393 82.064C92.746 82.176 92.8926 82.232 93.0793 82.232C93.3033 82.232 93.49 82.1733 93.6393 82.056L93.9193 82.768C93.802 82.864 93.658 82.936 93.4873 82.984C93.3166 83.032 93.1406 83.056 92.9593 83.056ZM90.7833 79.56V78.76H93.6313V79.56H90.7833ZM94.7419 83V78.728H95.6939V79.904L95.5819 79.56C95.7099 79.272 95.9099 79.0533 96.1819 78.904C96.4593 78.7547 96.8033 78.68 97.2139 78.68V79.632C97.1713 79.6213 97.1313 79.616 97.0939 79.616C97.0566 79.6107 97.0193 79.608 96.9819 79.608C96.6033 79.608 96.3019 79.72 96.0779 79.944C95.8539 80.1627 95.7419 80.4907 95.7419 80.928V83H94.7419ZM98.0623 83V78.728H99.0623V83H98.0623ZM98.5663 78.024C98.3796 78.024 98.2249 77.9653 98.1023 77.848C97.9849 77.7307 97.9263 77.5893 97.9263 77.424C97.9263 77.2533 97.9849 77.112 98.1023 77C98.2249 76.8827 98.3796 76.824 98.5663 76.824C98.7529 76.824 98.9049 76.88 99.0223 76.992C99.1449 77.0987 99.2063 77.2347 99.2063 77.4C99.2063 77.576 99.1476 77.7253 99.0303 77.848C98.9129 77.9653 98.7583 78.024 98.5663 78.024ZM102.743 83.056C102.396 83.056 102.079 82.976 101.791 82.816C101.508 82.656 101.281 82.416 101.111 82.096C100.945 81.7707 100.863 81.36 100.863 80.864C100.863 80.3627 100.943 79.952 101.103 79.632C101.268 79.312 101.492 79.0747 101.775 78.92C102.057 78.76 102.38 78.68 102.743 78.68C103.164 78.68 103.535 78.7707 103.855 78.952C104.18 79.1333 104.436 79.3867 104.623 79.712C104.815 80.0373 104.911 80.4213 104.911 80.864C104.911 81.3067 104.815 81.6933 104.623 82.024C104.436 82.3493 104.18 82.6027 103.855 82.784C103.535 82.9653 103.164 83.056 102.743 83.056ZM100.375 84.552V78.728H101.327V79.736L101.295 80.872L101.375 82.008V84.552H100.375ZM102.631 82.2C102.871 82.2 103.084 82.1467 103.271 82.04C103.463 81.9333 103.615 81.7787 103.727 81.576C103.839 81.3733 103.895 81.136 103.895 80.864C103.895 80.5867 103.839 80.3493 103.727 80.152C103.615 79.9493 103.463 79.7947 103.271 79.688C103.084 79.5813 102.871 79.528 102.631 79.528C102.391 79.528 102.175 79.5813 101.983 79.688C101.791 79.7947 101.639 79.9493 101.527 80.152C101.415 80.3493 101.359 80.5867 101.359 80.864C101.359 81.136 101.415 81.3733 101.527 81.576C101.639 81.7787 101.791 81.9333 101.983 82.04C102.175 82.1467 102.391 82.2 102.631 82.2ZM108.07 83V78.728H109.022V79.904L108.91 79.56C109.038 79.272 109.238 79.0533 109.51 78.904C109.787 78.7547 110.131 78.68 110.542 78.68V79.632C110.499 79.6213 110.459 79.616 110.422 79.616C110.385 79.6107 110.347 79.608 110.31 79.608C109.931 79.608 109.63 79.72 109.406 79.944C109.182 80.1627 109.07 80.4907 109.07 80.928V83H108.07ZM113.359 83.056C112.885 83.056 112.469 82.9627 112.111 82.776C111.759 82.584 111.485 82.3227 111.287 81.992C111.095 81.6613 110.999 81.2853 110.999 80.864C110.999 80.4373 111.093 80.0613 111.279 79.736C111.471 79.4053 111.733 79.1467 112.063 78.96C112.399 78.7733 112.781 78.68 113.207 78.68C113.623 78.68 113.994 78.7707 114.319 78.952C114.645 79.1333 114.901 79.3893 115.087 79.72C115.274 80.0507 115.367 80.44 115.367 80.888C115.367 80.9307 115.365 80.9787 115.359 81.032C115.359 81.0853 115.357 81.136 115.351 81.184H111.791V80.52H114.823L114.431 80.728C114.437 80.4827 114.386 80.2667 114.279 80.08C114.173 79.8933 114.026 79.7467 113.839 79.64C113.658 79.5333 113.447 79.48 113.207 79.48C112.962 79.48 112.746 79.5333 112.559 79.64C112.378 79.7467 112.234 79.896 112.127 80.088C112.026 80.2747 111.975 80.496 111.975 80.752V80.912C111.975 81.168 112.034 81.3947 112.151 81.592C112.269 81.7893 112.434 81.9413 112.647 82.048C112.861 82.1547 113.106 82.208 113.383 82.208C113.623 82.208 113.839 82.1707 114.031 82.096C114.223 82.0213 114.394 81.904 114.543 81.744L115.079 82.36C114.887 82.584 114.645 82.7573 114.351 82.88C114.063 82.9973 113.733 83.056 113.359 83.056ZM118.136 83.056C117.725 83.056 117.355 82.9653 117.024 82.784C116.699 82.6027 116.443 82.3493 116.256 82.024C116.069 81.6933 115.976 81.3067 115.976 80.864C115.976 80.4213 116.069 80.0373 116.256 79.712C116.443 79.3867 116.699 79.1333 117.024 78.952C117.355 78.7707 117.725 78.68 118.136 78.68C118.504 78.68 118.827 78.76 119.104 78.92C119.387 79.0747 119.608 79.312 119.768 79.632C119.933 79.952 120.016 80.3627 120.016 80.864C120.016 81.36 119.931 81.7707 119.76 82.096C119.595 82.416 119.371 82.656 119.088 82.816C118.805 82.976 118.488 83.056 118.136 83.056ZM118.248 82.2C118.488 82.2 118.704 82.1467 118.896 82.04C119.088 81.9333 119.24 81.7787 119.352 81.576C119.464 81.3733 119.52 81.136 119.52 80.864C119.52 80.5867 119.464 80.3493 119.352 80.152C119.24 79.9493 119.088 79.7947 118.896 79.688C118.704 79.5813 118.488 79.528 118.248 79.528C118.008 79.528 117.792 79.5813 117.6 79.688C117.413 79.7947 117.264 79.9493 117.152 80.152C117.04 80.3493 116.984 80.5867 116.984 80.864C116.984 81.136 117.04 81.3733 117.152 81.576C117.264 81.7787 117.413 81.9333 117.6 82.04C117.792 82.1467 118.008 82.2 118.248 82.2ZM119.504 84.552V82.008L119.584 80.872L119.552 79.736V78.728H120.504V84.552H119.504ZM123.62 83.056C123.258 83.056 122.938 82.9893 122.66 82.856C122.383 82.7173 122.167 82.5093 122.012 82.232C121.858 81.9493 121.78 81.5947 121.78 81.168V78.728H122.78V81.032C122.78 81.416 122.866 81.704 123.036 81.896C123.212 82.0827 123.46 82.176 123.78 82.176C124.015 82.176 124.218 82.128 124.388 82.032C124.564 81.936 124.7 81.792 124.796 81.6C124.898 81.408 124.948 81.1707 124.948 80.888V78.728H125.948V83H124.996V81.848L125.164 82.2C125.02 82.4773 124.81 82.6907 124.532 82.84C124.255 82.984 123.951 83.056 123.62 83.056ZM129.266 83.056C128.791 83.056 128.375 82.9627 128.018 82.776C127.666 82.584 127.391 82.3227 127.194 81.992C127.002 81.6613 126.906 81.2853 126.906 80.864C126.906 80.4373 126.999 80.0613 127.186 79.736C127.378 79.4053 127.639 79.1467 127.97 78.96C128.306 78.7733 128.687 78.68 129.114 78.68C129.53 78.68 129.9 78.7707 130.226 78.952C130.551 79.1333 130.807 79.3893 130.994 79.72C131.18 80.0507 131.274 80.44 131.274 80.888C131.274 80.9307 131.271 80.9787 131.266 81.032C131.266 81.0853 131.263 81.136 131.258 81.184H127.698V80.52H130.73L130.338 80.728C130.343 80.4827 130.292 80.2667 130.186 80.08C130.079 79.8933 129.932 79.7467 129.746 79.64C129.564 79.5333 129.354 79.48 129.114 79.48C128.868 79.48 128.652 79.5333 128.466 79.64C128.284 79.7467 128.14 79.896 128.034 80.088C127.932 80.2747 127.882 80.496 127.882 80.752V80.912C127.882 81.168 127.94 81.3947 128.058 81.592C128.175 81.7893 128.34 81.9413 128.554 82.048C128.767 82.1547 129.012 82.208 129.29 82.208C129.53 82.208 129.746 82.1707 129.938 82.096C130.13 82.0213 130.3 81.904 130.45 81.744L130.986 82.36C130.794 82.584 130.551 82.7573 130.258 82.88C129.97 82.9973 129.639 83.056 129.266 83.056ZM133.554 83.056C133.197 83.056 132.853 83.0107 132.522 82.92C132.197 82.824 131.938 82.7093 131.746 82.576L132.13 81.816C132.322 81.9387 132.551 82.04 132.818 82.12C133.085 82.2 133.351 82.24 133.618 82.24C133.933 82.24 134.159 82.1973 134.298 82.112C134.442 82.0267 134.514 81.912 134.514 81.768C134.514 81.6507 134.466 81.5627 134.37 81.504C134.274 81.44 134.149 81.392 133.994 81.36C133.839 81.328 133.666 81.2987 133.474 81.272C133.287 81.2453 133.098 81.2107 132.906 81.168C132.719 81.12 132.549 81.0533 132.394 80.968C132.239 80.8773 132.114 80.7573 132.018 80.608C131.922 80.4587 131.874 80.2613 131.874 80.016C131.874 79.744 131.951 79.5093 132.106 79.312C132.261 79.1093 132.477 78.9547 132.754 78.848C133.037 78.736 133.37 78.68 133.754 78.68C134.042 78.68 134.333 78.712 134.626 78.776C134.919 78.84 135.162 78.9307 135.354 79.048L134.97 79.808C134.767 79.6853 134.562 79.6027 134.354 79.56C134.151 79.512 133.949 79.488 133.746 79.488C133.442 79.488 133.215 79.5333 133.066 79.624C132.922 79.7147 132.85 79.8293 132.85 79.968C132.85 80.096 132.898 80.192 132.994 80.256C133.09 80.32 133.215 80.3707 133.37 80.408C133.525 80.4453 133.695 80.4773 133.882 80.504C134.074 80.5253 134.263 80.56 134.45 80.608C134.637 80.656 134.807 80.7227 134.962 80.808C135.122 80.888 135.25 81.0027 135.346 81.152C135.442 81.3013 135.49 81.496 135.49 81.736C135.49 82.0027 135.41 82.2347 135.25 82.432C135.095 82.6293 134.874 82.784 134.586 82.896C134.298 83.0027 133.954 83.056 133.554 83.056ZM137.959 83.056C137.49 83.056 137.127 82.936 136.871 82.696C136.615 82.4507 136.487 82.0907 136.487 81.616V77.784H137.487V81.592C137.487 81.7947 137.538 81.952 137.639 82.064C137.746 82.176 137.893 82.232 138.079 82.232C138.303 82.232 138.49 82.1733 138.639 82.056L138.919 82.768C138.802 82.864 138.658 82.936 138.487 82.984C138.317 83.032 138.141 83.056 137.959 83.056ZM135.783 79.56V78.76H138.631V79.56H135.783ZM141.062 83.056C140.705 83.056 140.361 83.0107 140.03 82.92C139.705 82.824 139.446 82.7093 139.254 82.576L139.638 81.816C139.83 81.9387 140.059 82.04 140.326 82.12C140.593 82.2 140.859 82.24 141.126 82.24C141.441 82.24 141.667 82.1973 141.806 82.112C141.95 82.0267 142.022 81.912 142.022 81.768C142.022 81.6507 141.974 81.5627 141.878 81.504C141.782 81.44 141.657 81.392 141.502 81.36C141.347 81.328 141.174 81.2987 140.982 81.272C140.795 81.2453 140.606 81.2107 140.414 81.168C140.227 81.12 140.057 81.0533 139.902 80.968C139.747 80.8773 139.622 80.7573 139.526 80.608C139.43 80.4587 139.382 80.2613 139.382 80.016C139.382 79.744 139.459 79.5093 139.614 79.312C139.769 79.1093 139.985 78.9547 140.262 78.848C140.545 78.736 140.878 78.68 141.262 78.68C141.55 78.68 141.841 78.712 142.134 78.776C142.427 78.84 142.67 78.9307 142.862 79.048L142.478 79.808C142.275 79.6853 142.07 79.6027 141.862 79.56C141.659 79.512 141.457 79.488 141.254 79.488C140.95 79.488 140.723 79.5333 140.574 79.624C140.43 79.7147 140.358 79.8293 140.358 79.968C140.358 80.096 140.406 80.192 140.502 80.256C140.598 80.32 140.723 80.3707 140.878 80.408C141.033 80.4453 141.203 80.4773 141.39 80.504C141.582 80.5253 141.771 80.56 141.958 80.608C142.145 80.656 142.315 80.7227 142.47 80.808C142.63 80.888 142.758 81.0027 142.854 81.152C142.95 81.3013 142.998 81.496 142.998 81.736C142.998 82.0027 142.918 82.2347 142.758 82.432C142.603 82.6293 142.382 82.784 142.094 82.896C141.806 83.0027 141.462 83.056 141.062 83.056Z" fill="white" fill-opacity="0.5"/>
<path d="M27 146.148C27 153.419 21.1698 159.296 14 159.296C6.83018 159.296 1 153.419 1 146.148C1 138.877 6.83018 133 14 133C21.1698 133 27 138.877 27 146.148Z" stroke="white" stroke-opacity="0.5" stroke-width="2"/>
<path d="M12.665 153.829C11.8757 153.829 11.1077 153.706 10.361 153.461C9.62499 153.215 9.02232 152.885 8.55299 152.469L9.28899 151.205C9.66232 151.557 10.1477 151.845 10.745 152.069C11.3423 152.293 11.9823 152.405 12.665 152.405C13.497 152.405 14.1423 152.229 14.601 151.877C15.0703 151.514 15.305 151.029 15.305 150.421C15.305 149.834 15.081 149.365 14.633 149.013C14.1957 148.65 13.497 148.469 12.537 148.469H11.641V147.349L14.969 143.253L15.193 143.893H9.06499V142.501H16.457V143.589L13.145 147.669L12.313 147.173H12.841C14.1957 147.173 15.209 147.477 15.881 148.085C16.5637 148.693 16.905 149.466 16.905 150.405C16.905 151.034 16.7503 151.61 16.441 152.133C16.1317 152.655 15.6623 153.071 15.033 153.381C14.4143 153.679 13.625 153.829 12.665 153.829Z" fill="white" fill-opacity="0.5"/>
<path d="M45.704 146.976H48.496V147.856H45.704V146.976ZM45.792 150H44.752V144.4H48.84V145.272H45.792V150ZM49.7498 150V145.728H50.7498V150H49.7498ZM50.2538 145.024C50.0671 145.024 49.9124 144.965 49.7898 144.848C49.6724 144.731 49.6138 144.589 49.6138 144.424C49.6138 144.253 49.6724 144.112 49.7898 144C49.9124 143.883 50.0671 143.824 50.2538 143.824C50.4404 143.824 50.5924 143.88 50.7098 143.992C50.8324 144.099 50.8938 144.235 50.8938 144.4C50.8938 144.576 50.8351 144.725 50.7178 144.848C50.6004 144.965 50.4458 145.024 50.2538 145.024ZM52.0623 150V144.064H53.0623V150H52.0623ZM54.3748 150V144.064H55.3748V150H54.3748ZM60.5062 150.056C60.0369 150.056 59.6742 149.936 59.4182 149.696C59.1622 149.451 59.0342 149.091 59.0342 148.616V144.784H60.0342V148.592C60.0342 148.795 60.0849 148.952 60.1862 149.064C60.2929 149.176 60.4395 149.232 60.6262 149.232C60.8502 149.232 61.0369 149.173 61.1862 149.056L61.4662 149.768C61.3489 149.864 61.2049 149.936 61.0342 149.984C60.8635 150.032 60.6875 150.056 60.5062 150.056ZM58.3302 146.56V145.76H61.1782V146.56H58.3302ZM62.2888 150V145.728H63.2408V146.904L63.1288 146.56C63.2568 146.272 63.4568 146.053 63.7288 145.904C64.0061 145.755 64.3501 145.68 64.7608 145.68V146.632C64.7181 146.621 64.6781 146.616 64.6408 146.616C64.6035 146.611 64.5661 146.608 64.5288 146.608C64.1501 146.608 63.8488 146.72 63.6248 146.944C63.4008 147.163 63.2888 147.491 63.2888 147.928V150H62.2888ZM65.6091 150V145.728H66.6091V150H65.6091ZM66.1131 145.024C65.9265 145.024 65.7718 144.965 65.6491 144.848C65.5318 144.731 65.4731 144.589 65.4731 144.424C65.4731 144.253 65.5318 144.112 65.6491 144C65.7718 143.883 65.9265 143.824 66.1131 143.824C66.2998 143.824 66.4518 143.88 66.5691 143.992C66.6918 144.099 66.7531 144.235 66.7531 144.4C66.7531 144.576 66.6945 144.725 66.5771 144.848C66.4598 144.965 66.3051 145.024 66.1131 145.024ZM70.2896 150.056C69.943 150.056 69.6256 149.976 69.3376 149.816C69.055 149.656 68.8283 149.416 68.6576 149.096C68.4923 148.771 68.4096 148.36 68.4096 147.864C68.4096 147.363 68.4896 146.952 68.6496 146.632C68.815 146.312 69.039 146.075 69.3216 145.92C69.6043 145.76 69.927 145.68 70.2896 145.68C70.711 145.68 71.0816 145.771 71.4016 145.952C71.727 146.133 71.983 146.387 72.1696 146.712C72.3616 147.037 72.4576 147.421 72.4576 147.864C72.4576 148.307 72.3616 148.693 72.1696 149.024C71.983 149.349 71.727 149.603 71.4016 149.784C71.0816 149.965 70.711 150.056 70.2896 150.056ZM67.9216 151.552V145.728H68.8736V146.736L68.8416 147.872L68.9216 149.008V151.552H67.9216ZM70.1776 149.2C70.4176 149.2 70.631 149.147 70.8176 149.04C71.0096 148.933 71.1616 148.779 71.2736 148.576C71.3856 148.373 71.4416 148.136 71.4416 147.864C71.4416 147.587 71.3856 147.349 71.2736 147.152C71.1616 146.949 71.0096 146.795 70.8176 146.688C70.631 146.581 70.4176 146.528 70.1776 146.528C69.9376 146.528 69.7216 146.581 69.5296 146.688C69.3376 146.795 69.1856 146.949 69.0736 147.152C68.9616 147.349 68.9056 147.587 68.9056 147.864C68.9056 148.136 68.9616 148.373 69.0736 148.576C69.1856 148.779 69.3376 148.933 69.5296 149.04C69.7216 149.147 69.9376 149.2 70.1776 149.2ZM75.6169 150V145.728H76.5689V146.904L76.4569 146.56C76.5849 146.272 76.7849 146.053 77.0569 145.904C77.3343 145.755 77.6783 145.68 78.0889 145.68V146.632C78.0463 146.621 78.0063 146.616 77.9689 146.616C77.9316 146.611 77.8943 146.608 77.8569 146.608C77.4783 146.608 77.1769 146.72 76.9529 146.944C76.7289 147.163 76.6169 147.491 76.6169 147.928V150H75.6169ZM80.9062 150.056C80.4315 150.056 80.0155 149.963 79.6582 149.776C79.3062 149.584 79.0315 149.323 78.8342 148.992C78.6422 148.661 78.5462 148.285 78.5462 147.864C78.5462 147.437 78.6395 147.061 78.8262 146.736C79.0182 146.405 79.2795 146.147 79.6102 145.96C79.9462 145.773 80.3275 145.68 80.7542 145.68C81.1702 145.68 81.5409 145.771 81.8662 145.952C82.1915 146.133 82.4475 146.389 82.6342 146.72C82.8209 147.051 82.9142 147.44 82.9142 147.888C82.9142 147.931 82.9115 147.979 82.9062 148.032C82.9062 148.085 82.9035 148.136 82.8982 148.184H79.3382V147.52H82.3702L81.9782 147.728C81.9835 147.483 81.9329 147.267 81.8262 147.08C81.7195 146.893 81.5729 146.747 81.3862 146.64C81.2049 146.533 80.9942 146.48 80.7542 146.48C80.5089 146.48 80.2929 146.533 80.1062 146.64C79.9249 146.747 79.7809 146.896 79.6742 147.088C79.5729 147.275 79.5222 147.496 79.5222 147.752V147.912C79.5222 148.168 79.5809 148.395 79.6982 148.592C79.8155 148.789 79.9809 148.941 80.1942 149.048C80.4075 149.155 80.6529 149.208 80.9302 149.208C81.1702 149.208 81.3862 149.171 81.5782 149.096C81.7702 149.021 81.9409 148.904 82.0902 148.744L82.6262 149.36C82.4342 149.584 82.1915 149.757 81.8982 149.88C81.6102 149.997 81.2795 150.056 80.9062 150.056ZM85.6828 150.056C85.2721 150.056 84.9014 149.965 84.5708 149.784C84.2454 149.603 83.9894 149.349 83.8028 149.024C83.6161 148.693 83.5228 148.307 83.5228 147.864C83.5228 147.421 83.6161 147.037 83.8028 146.712C83.9894 146.387 84.2454 146.133 84.5708 145.952C84.9014 145.771 85.2721 145.68 85.6828 145.68C86.0508 145.68 86.3734 145.76 86.6508 145.92C86.9334 146.075 87.1548 146.312 87.3148 146.632C87.4801 146.952 87.5628 147.363 87.5628 147.864C87.5628 148.36 87.4774 148.771 87.3068 149.096C87.1414 149.416 86.9174 149.656 86.6348 149.816C86.3521 149.976 86.0348 150.056 85.6828 150.056ZM85.7948 149.2C86.0348 149.2 86.2508 149.147 86.4428 149.04C86.6348 148.933 86.7868 148.779 86.8988 148.576C87.0108 148.373 87.0668 148.136 87.0668 147.864C87.0668 147.587 87.0108 147.349 86.8988 147.152C86.7868 146.949 86.6348 146.795 86.4428 146.688C86.2508 146.581 86.0348 146.528 85.7948 146.528C85.5548 146.528 85.3388 146.581 85.1468 146.688C84.9601 146.795 84.8108 146.949 84.6988 147.152C84.5868 147.349 84.5308 147.587 84.5308 147.864C84.5308 148.136 84.5868 148.373 84.6988 148.576C84.8108 148.779 84.9601 148.933 85.1468 149.04C85.3388 149.147 85.5548 149.2 85.7948 149.2ZM87.0508 151.552V149.008L87.1308 147.872L87.0988 146.736V145.728H88.0508V151.552H87.0508ZM91.1671 150.056C90.8045 150.056 90.4845 149.989 90.2071 149.856C89.9298 149.717 89.7138 149.509 89.5591 149.232C89.4045 148.949 89.3271 148.595 89.3271 148.168V145.728H90.3271V148.032C90.3271 148.416 90.4125 148.704 90.5831 148.896C90.7591 149.083 91.0071 149.176 91.3271 149.176C91.5618 149.176 91.7645 149.128 91.9351 149.032C92.1111 148.936 92.2471 148.792 92.3431 148.6C92.4445 148.408 92.4951 148.171 92.4951 147.888V145.728H93.4951V150H92.5431V148.848L92.7111 149.2C92.5671 149.477 92.3565 149.691 92.0791 149.84C91.8018 149.984 91.4978 150.056 91.1671 150.056ZM96.8124 150.056C96.3378 150.056 95.9218 149.963 95.5644 149.776C95.2124 149.584 94.9378 149.323 94.7404 148.992C94.5484 148.661 94.4524 148.285 94.4524 147.864C94.4524 147.437 94.5458 147.061 94.7324 146.736C94.9244 146.405 95.1858 146.147 95.5164 145.96C95.8524 145.773 96.2338 145.68 96.6604 145.68C97.0764 145.68 97.4471 145.771 97.7724 145.952C98.0978 146.133 98.3538 146.389 98.5404 146.72C98.7271 147.051 98.8204 147.44 98.8204 147.888C98.8204 147.931 98.8178 147.979 98.8124 148.032C98.8124 148.085 98.8098 148.136 98.8044 148.184H95.2444V147.52H98.2764L97.8844 147.728C97.8898 147.483 97.8391 147.267 97.7324 147.08C97.6258 146.893 97.4791 146.747 97.2924 146.64C97.1111 146.533 96.9004 146.48 96.6604 146.48C96.4151 146.48 96.1991 146.533 96.0124 146.64C95.8311 146.747 95.6871 146.896 95.5804 147.088C95.4791 147.275 95.4284 147.496 95.4284 147.752V147.912C95.4284 148.168 95.4871 148.395 95.6044 148.592C95.7218 148.789 95.8871 148.941 96.1004 149.048C96.3138 149.155 96.5591 149.208 96.8364 149.208C97.0764 149.208 97.2924 149.171 97.4844 149.096C97.6764 149.021 97.8471 148.904 97.9964 148.744L98.5324 149.36C98.3404 149.584 98.0978 149.757 97.8044 149.88C97.5164 149.997 97.1858 150.056 96.8124 150.056ZM101.101 150.056C100.744 150.056 100.4 150.011 100.069 149.92C99.7437 149.824 99.485 149.709 99.293 149.576L99.677 148.816C99.869 148.939 100.098 149.04 100.365 149.12C100.632 149.2 100.898 149.24 101.165 149.24C101.48 149.24 101.706 149.197 101.845 149.112C101.989 149.027 102.061 148.912 102.061 148.768C102.061 148.651 102.013 148.563 101.917 148.504C101.821 148.44 101.696 148.392 101.541 148.36C101.386 148.328 101.213 148.299 101.021 148.272C100.834 148.245 100.645 148.211 100.453 148.168C100.266 148.12 100.096 148.053 99.941 147.968C99.7863 147.877 99.661 147.757 99.565 147.608C99.469 147.459 99.421 147.261 99.421 147.016C99.421 146.744 99.4983 146.509 99.653 146.312C99.8077 146.109 100.024 145.955 100.301 145.848C100.584 145.736 100.917 145.68 101.301 145.68C101.589 145.68 101.88 145.712 102.173 145.776C102.466 145.84 102.709 145.931 102.901 146.048L102.517 146.808C102.314 146.685 102.109 146.603 101.901 146.56C101.698 146.512 101.496 146.488 101.293 146.488C100.989 146.488 100.762 146.533 100.613 146.624C100.469 146.715 100.397 146.829 100.397 146.968C100.397 147.096 100.445 147.192 100.541 147.256C100.637 147.32 100.762 147.371 100.917 147.408C101.072 147.445 101.242 147.477 101.429 147.504C101.621 147.525 101.81 147.56 101.997 147.608C102.184 147.656 102.354 147.723 102.509 147.808C102.669 147.888 102.797 148.003 102.893 148.152C102.989 148.301 103.037 148.496 103.037 148.736C103.037 149.003 102.957 149.235 102.797 149.432C102.642 149.629 102.421 149.784 102.133 149.896C101.845 150.003 101.501 150.056 101.101 150.056ZM105.506 150.056C105.037 150.056 104.674 149.936 104.418 149.696C104.162 149.451 104.034 149.091 104.034 148.616V144.784H105.034V148.592C105.034 148.795 105.085 148.952 105.186 149.064C105.293 149.176 105.44 149.232 105.626 149.232C105.85 149.232 106.037 149.173 106.186 149.056L106.466 149.768C106.349 149.864 106.205 149.936 106.034 149.984C105.864 150.032 105.688 150.056 105.506 150.056ZM103.33 146.56V145.76H106.178V146.56H103.33ZM109.5 150V145.728H110.5V150H109.5ZM110.004 145.024C109.817 145.024 109.662 144.965 109.54 144.848C109.422 144.731 109.364 144.589 109.364 144.424C109.364 144.253 109.422 144.112 109.54 144C109.662 143.883 109.817 143.824 110.004 143.824C110.19 143.824 110.342 143.88 110.46 143.992C110.582 144.099 110.644 144.235 110.644 144.4C110.644 144.576 110.585 144.725 110.468 144.848C110.35 144.965 110.196 145.024 110.004 145.024ZM114.236 145.68C114.578 145.68 114.882 145.747 115.148 145.88C115.42 146.013 115.634 146.219 115.788 146.496C115.943 146.768 116.02 147.12 116.02 147.552V150H115.02V147.68C115.02 147.301 114.93 147.019 114.748 146.832C114.572 146.645 114.324 146.552 114.004 146.552C113.77 146.552 113.562 146.6 113.38 146.696C113.199 146.792 113.058 146.936 112.956 147.128C112.86 147.315 112.812 147.552 112.812 147.84V150H111.812V145.728H112.764V146.88L112.596 146.528C112.746 146.256 112.962 146.048 113.244 145.904C113.532 145.755 113.863 145.68 114.236 145.68ZM117.425 150V145.488C117.425 145.04 117.555 144.683 117.817 144.416C118.083 144.144 118.462 144.008 118.953 144.008C119.129 144.008 119.294 144.027 119.449 144.064C119.609 144.101 119.742 144.16 119.849 144.24L119.577 144.992C119.502 144.933 119.417 144.891 119.321 144.864C119.225 144.832 119.126 144.816 119.025 144.816C118.817 144.816 118.659 144.875 118.553 144.992C118.446 145.104 118.393 145.275 118.393 145.504V145.984L118.425 146.432V150H117.425ZM116.721 146.56V145.76H119.569V146.56H116.721ZM122.099 150.056C121.662 150.056 121.273 149.963 120.931 149.776C120.59 149.584 120.321 149.323 120.123 148.992C119.926 148.661 119.827 148.285 119.827 147.864C119.827 147.437 119.926 147.061 120.123 146.736C120.321 146.405 120.59 146.147 120.931 145.96C121.273 145.773 121.662 145.68 122.099 145.68C122.542 145.68 122.934 145.773 123.275 145.96C123.622 146.147 123.891 146.403 124.083 146.728C124.281 147.053 124.379 147.432 124.379 147.864C124.379 148.285 124.281 148.661 124.083 148.992C123.891 149.323 123.622 149.584 123.275 149.776C122.934 149.963 122.542 150.056 122.099 150.056ZM122.099 149.2C122.345 149.2 122.563 149.147 122.755 149.04C122.947 148.933 123.097 148.779 123.203 148.576C123.315 148.373 123.371 148.136 123.371 147.864C123.371 147.587 123.315 147.349 123.203 147.152C123.097 146.949 122.947 146.795 122.755 146.688C122.563 146.581 122.347 146.528 122.107 146.528C121.862 146.528 121.643 146.581 121.451 146.688C121.265 146.795 121.115 146.949 121.003 147.152C120.891 147.349 120.835 147.587 120.835 147.864C120.835 148.136 120.891 148.373 121.003 148.576C121.115 148.779 121.265 148.933 121.451 149.04C121.643 149.147 121.859 149.2 122.099 149.2ZM125.336 150V145.728H126.288V146.904L126.176 146.56C126.304 146.272 126.504 146.053 126.776 145.904C127.053 145.755 127.397 145.68 127.808 145.68V146.632C127.765 146.621 127.725 146.616 127.688 146.616C127.65 146.611 127.613 146.608 127.576 146.608C127.197 146.608 126.896 146.72 126.672 146.944C126.448 147.163 126.336 147.491 126.336 147.928V150H125.336ZM134.048 145.68C134.389 145.68 134.691 145.747 134.952 145.88C135.219 146.013 135.427 146.219 135.576 146.496C135.725 146.768 135.8 147.12 135.8 147.552V150H134.8V147.68C134.8 147.301 134.717 147.019 134.552 146.832C134.387 146.645 134.149 146.552 133.84 146.552C133.621 146.552 133.427 146.6 133.256 146.696C133.091 146.792 132.96 146.933 132.864 147.12C132.773 147.307 132.728 147.544 132.728 147.832V150H131.728V147.68C131.728 147.301 131.645 147.019 131.48 146.832C131.315 146.645 131.077 146.552 130.768 146.552C130.549 146.552 130.355 146.6 130.184 146.696C130.019 146.792 129.888 146.933 129.792 147.12C129.701 147.307 129.656 147.544 129.656 147.832V150H128.656V145.728H129.608V146.864L129.44 146.528C129.584 146.251 129.792 146.04 130.064 145.896C130.341 145.752 130.656 145.68 131.008 145.68C131.408 145.68 131.755 145.779 132.048 145.976C132.347 146.173 132.544 146.472 132.64 146.872L132.248 146.736C132.387 146.416 132.616 146.16 132.936 145.968C133.256 145.776 133.627 145.68 134.048 145.68ZM139.71 150V149.136L139.654 148.952V147.44C139.654 147.147 139.566 146.92 139.39 146.76C139.214 146.595 138.947 146.512 138.59 146.512C138.35 146.512 138.113 146.549 137.878 146.624C137.649 146.699 137.454 146.803 137.294 146.936L136.902 146.208C137.131 146.032 137.403 145.901 137.718 145.816C138.038 145.725 138.369 145.68 138.71 145.68C139.329 145.68 139.806 145.829 140.142 146.128C140.483 146.421 140.654 146.877 140.654 147.496V150H139.71ZM138.366 150.056C138.046 150.056 137.766 150.003 137.526 149.896C137.286 149.784 137.099 149.632 136.966 149.44C136.838 149.243 136.774 149.021 136.774 148.776C136.774 148.536 136.83 148.32 136.942 148.128C137.059 147.936 137.249 147.784 137.51 147.672C137.771 147.56 138.118 147.504 138.55 147.504H139.79V148.168H138.622C138.281 148.168 138.051 148.224 137.934 148.336C137.817 148.443 137.758 148.576 137.758 148.736C137.758 148.917 137.83 149.061 137.974 149.168C138.118 149.275 138.318 149.328 138.574 149.328C138.819 149.328 139.038 149.272 139.23 149.16C139.427 149.048 139.569 148.883 139.654 148.664L139.822 149.264C139.726 149.515 139.553 149.709 139.302 149.848C139.057 149.987 138.745 150.056 138.366 150.056ZM143.545 150.056C143.076 150.056 142.713 149.936 142.457 149.696C142.201 149.451 142.073 149.091 142.073 148.616V144.784H143.073V148.592C143.073 148.795 143.124 148.952 143.225 149.064C143.332 149.176 143.479 149.232 143.665 149.232C143.889 149.232 144.076 149.173 144.225 149.056L144.505 149.768C144.388 149.864 144.244 149.936 144.073 149.984C143.903 150.032 143.727 150.056 143.545 150.056ZM141.369 146.56V145.76H144.217V146.56H141.369ZM145.328 150V145.728H146.328V150H145.328ZM145.832 145.024C145.645 145.024 145.491 144.965 145.368 144.848C145.251 144.731 145.192 144.589 145.192 144.424C145.192 144.253 145.251 144.112 145.368 144C145.491 143.883 145.645 143.824 145.832 143.824C146.019 143.824 146.171 143.88 146.288 143.992C146.411 144.099 146.472 144.235 146.472 144.4C146.472 144.576 146.413 144.725 146.296 144.848C146.179 144.965 146.024 145.024 145.832 145.024ZM149.56 150.056C149.123 150.056 148.734 149.963 148.392 149.776C148.051 149.584 147.782 149.323 147.584 148.992C147.387 148.661 147.288 148.285 147.288 147.864C147.288 147.437 147.387 147.061 147.584 146.736C147.782 146.405 148.051 146.147 148.392 145.96C148.734 145.773 149.123 145.68 149.56 145.68C150.003 145.68 150.395 145.773 150.736 145.96C151.083 146.147 151.352 146.403 151.544 146.728C151.742 147.053 151.84 147.432 151.84 147.864C151.84 148.285 151.742 148.661 151.544 148.992C151.352 149.323 151.083 149.584 150.736 149.776C150.395 149.963 150.003 150.056 149.56 150.056ZM149.56 149.2C149.806 149.2 150.024 149.147 150.216 149.04C150.408 148.933 150.558 148.779 150.664 148.576C150.776 148.373 150.832 148.136 150.832 147.864C150.832 147.587 150.776 147.349 150.664 147.152C150.558 146.949 150.408 146.795 150.216 146.688C150.024 146.581 149.808 146.528 149.568 146.528C149.323 146.528 149.104 146.581 148.912 146.688C148.726 146.795 148.576 146.949 148.464 147.152C148.352 147.349 148.296 147.587 148.296 147.864C148.296 148.136 148.352 148.373 148.464 148.576C148.576 148.779 148.726 148.933 148.912 149.04C149.104 149.147 149.32 149.2 149.56 149.2ZM155.221 145.68C155.562 145.68 155.866 145.747 156.133 145.88C156.405 146.013 156.618 146.219 156.773 146.496C156.927 146.768 157.005 147.12 157.005 147.552V150H156.005V147.68C156.005 147.301 155.914 147.019 155.733 146.832C155.557 146.645 155.309 146.552 154.989 146.552C154.754 146.552 154.546 146.6 154.365 146.696C154.183 146.792 154.042 146.936 153.941 147.128C153.845 147.315 153.797 147.552 153.797 147.84V150H152.797V145.728H153.749V146.88L153.581 146.528C153.73 146.256 153.946 146.048 154.229 145.904C154.517 145.755 154.847 145.68 155.221 145.68Z" fill="#FDFDFD" fill-opacity="0.5"/>
<line x1="14.5" y1="27.9972" x2="14.7115" y2="65.9966" stroke="white" stroke-opacity="0.5"/>
<line x1="14.5" y1="94" x2="14.5" y2="132" stroke="white" stroke-opacity="0.5"/>
</svg>
