<svg width="480" height="360" viewBox="0 0 480 360" fill="none" xmlns="http://www.w3.org/2000/svg">
<path d="M276.532 45.9782H232.139V46.9565H276.532V45.9782Z" fill="#CCCCCC"/>
<path d="M192.669 46.5003H44.0776V47.5456H192.669V46.5003Z" fill="#CCCCCC"/>
<path d="M46.0371 68.4487C57.2232 68.4487 66.2914 58.8558 66.2914 47.0225C66.2914 35.1892 57.2232 25.5963 46.0371 25.5963C34.8509 25.5963 25.7827 35.1892 25.7827 47.0225C25.7827 58.8558 34.8509 68.4487 46.0371 68.4487Z" fill="white"/>
<path d="M129.48 68.4487C140.666 68.4487 149.734 58.8559 149.734 47.0226C149.734 35.1892 140.666 25.5964 129.48 25.5964C118.294 25.5964 109.226 35.1892 109.226 47.0226C109.226 58.8559 118.294 68.4487 129.48 68.4487Z" fill="#3F3D56"/>
<path d="M212.474 67.9219C208.468 67.9219 204.552 66.6654 201.221 64.3113C197.891 61.9572 195.294 58.6113 193.761 54.6966C192.228 50.7819 191.827 46.4742 192.609 42.3184C193.39 38.1626 195.319 34.3452 198.152 31.349C200.985 28.3528 204.594 26.3124 208.523 25.4858C212.452 24.6591 216.524 25.0834 220.225 26.7049C223.926 28.3264 227.089 31.0724 229.315 34.5955C231.541 38.1187 232.728 42.2608 232.728 46.498C232.728 52.18 230.594 57.6292 226.796 61.647C222.998 65.6648 217.846 67.9219 212.474 67.9219ZM212.474 26.0944C208.659 26.0944 204.929 27.2911 201.757 29.5331C198.585 31.775 196.113 34.9616 194.653 38.6899C193.193 42.4182 192.811 46.5207 193.555 50.4786C194.299 54.4365 196.136 58.072 198.834 60.9255C201.532 63.779 204.969 65.7223 208.711 66.5095C212.453 67.2968 216.331 66.8928 219.856 65.3485C223.381 63.8042 226.393 61.189 228.513 57.8336C230.632 54.4783 231.764 50.5335 231.764 46.498C231.764 41.0866 229.731 35.8969 226.114 32.0705C222.496 28.2441 217.59 26.0944 212.474 26.0944V26.0944Z" fill="#CCCCCC"/>
<path d="M295.917 67.9219C291.911 67.9219 287.995 66.6654 284.664 64.3113C281.333 61.9572 278.737 58.6113 277.204 54.6966C275.671 50.7819 275.27 46.4742 276.052 42.3184C276.833 38.1626 278.762 34.3452 281.595 31.349C284.428 28.3528 288.037 26.3124 291.965 25.4858C295.894 24.6591 299.967 25.0834 303.668 26.7049C307.369 28.3264 310.532 31.0724 312.758 34.5955C314.983 38.1187 316.171 42.2608 316.171 46.498C316.171 52.18 314.037 57.6292 310.239 61.647C306.44 65.6648 301.289 67.9219 295.917 67.9219ZM295.917 26.0944C292.102 26.0944 288.372 27.2911 285.2 29.5331C282.028 31.775 279.556 34.9616 278.096 38.6899C276.636 42.4182 276.254 46.5207 276.998 50.4786C277.742 54.4365 279.579 58.072 282.277 60.9255C284.975 63.779 288.412 65.7223 292.154 66.5095C295.896 67.2968 299.774 66.8928 303.299 65.3485C306.823 63.8042 309.836 61.189 311.956 57.8336C314.075 54.4783 315.207 50.5335 315.207 46.498C315.207 43.8186 314.708 41.1654 313.738 38.6899C312.769 36.2144 311.348 33.9651 309.557 32.0705C307.766 30.1759 305.639 28.6729 303.299 27.6476C300.958 26.6222 298.45 26.0944 295.917 26.0944Z" fill="#CCCCCC"/>
<path d="M44.5189 54.3894C44.1976 54.3897 43.8848 54.2676 43.6279 54.0416L43.612 54.0276L40.2542 51.0198C39.9401 50.7378 39.7346 50.3212 39.6828 49.8617C39.631 49.4022 39.7371 48.9374 39.9779 48.5696C40.2187 48.2018 40.5744 47.9611 40.9667 47.9004C41.3591 47.8398 41.7559 47.9641 42.07 48.2461L44.2447 50.1994L49.3837 42.3469C49.6244 41.9793 49.9799 41.7387 50.3721 41.678C50.7642 41.6173 51.1608 41.7416 51.4748 42.0234L51.4431 42.075L51.4758 42.0234C51.7894 42.3057 51.9946 42.7221 52.0463 43.1814C52.098 43.6406 51.992 44.1051 51.7515 44.4729L45.7065 53.7047C45.5665 53.9176 45.3865 54.0897 45.1805 54.2079C44.9744 54.326 44.7479 54.387 44.5184 54.3859L44.5189 54.3894Z" fill="black"/>
<path d="M326.561 138.687C326.903 138.87 327.231 139.085 327.544 139.329L358.808 123.702L359.923 114.057L372.416 113.967L371.678 136.09L330.412 148.872C330.325 149.208 330.221 149.537 330.1 149.858C329.503 151.349 328.544 152.6 327.342 153.454C326.14 154.309 324.75 154.728 323.345 154.66C321.94 154.592 320.584 154.039 319.447 153.071C318.309 152.103 317.441 150.763 316.952 149.219C316.463 147.676 316.374 145.997 316.697 144.395C317.019 142.792 317.739 141.337 318.766 140.212C319.792 139.086 321.08 138.342 322.466 138.071C323.853 137.8 325.277 138.015 326.56 138.688L326.561 138.687Z" fill="#FEB8B8"/>
<path d="M376.959 339.15H368.413L364.348 300.547H376.96L376.959 339.15Z" fill="#FEB8B8"/>
<path d="M362.309 336.291H378.79V348.44H351.932C351.932 345.217 353.025 342.126 354.971 339.846C356.918 337.567 359.557 336.287 362.309 336.287V336.291Z" fill="#2F2E41"/>
<path d="M410.194 336.323L401.69 337.302L394.413 299.352L406.965 297.907L410.194 336.323Z" fill="#FEB8B8"/>
<path d="M395.37 335.161L411.769 333.269L412.786 345.361L386.063 348.444C385.793 345.237 386.622 342.036 388.368 339.545C390.113 337.054 392.632 335.477 395.37 335.161H395.37Z" fill="#2F2E41"/>
<path d="M379.337 73.1107C388.792 73.1107 396.457 64.1339 396.457 53.0604C396.457 41.9869 388.792 33.01 379.337 33.01C369.882 33.01 362.217 41.9869 362.217 53.0604C362.217 64.1339 369.882 73.1107 379.337 73.1107Z" fill="#FEB8B8"/>
<path d="M366.503 331.343C365.768 331.345 365.057 331.043 364.494 330.49C363.931 329.937 363.552 329.17 363.425 328.322C359.005 299.571 344.544 205.542 344.198 202.936C344.19 202.876 344.186 202.815 344.187 202.755V195.743C344.186 195.488 344.254 195.239 344.381 195.031L346.291 191.9C346.382 191.749 346.501 191.625 346.639 191.537C346.777 191.448 346.931 191.398 347.088 191.39C357.979 190.792 393.64 189.04 395.363 191.56C397.093 194.091 396.478 201.771 396.339 203.283L396.346 203.441L412.368 323.444C412.494 324.401 412.292 325.378 411.807 326.163C411.322 326.947 410.593 327.476 409.778 327.636L399.771 329.567C399.026 329.707 398.262 329.529 397.619 329.066C396.976 328.602 396.497 327.884 396.268 327.042C393.173 315.459 382.795 276.495 379.198 261.417C379.178 261.318 379.128 261.23 379.056 261.173C378.984 261.115 378.897 261.091 378.81 261.106C378.724 261.12 378.646 261.172 378.591 261.252C378.536 261.331 378.509 261.431 378.514 261.533C378.694 275.905 379.128 312.574 379.281 325.239L379.297 326.603C379.304 327.527 379.014 328.42 378.486 329.105C377.958 329.791 377.229 330.219 376.444 330.306L366.795 331.33C366.698 331.34 366.6 331.344 366.503 331.343V331.343Z" fill="#2F2E41"/>
<path d="M368.472 80.9951C365.485 83.0753 363.697 86.8972 362.671 90.7933C360.772 97.9945 359.628 105.44 359.266 112.965L358.182 135.494L344.76 195.228C356.393 206.755 363.103 204.135 378.762 194.706C394.422 185.277 396.211 197.849 396.211 197.849L399.342 147.024L403.816 91.4861C402.811 90.0699 401.675 88.7901 400.427 87.6706C396.292 83.904 391.481 81.2856 386.356 80.0129C381.231 78.7401 375.927 78.8462 370.843 80.3231L368.472 80.9951Z" fill="#E6E6E6"/>
<path d="M364.113 150.75C364.474 150.908 364.823 151.099 365.159 151.322L396.072 133.199L396.585 123.381L409.337 122.352L410.02 144.731L368.709 160.733C368.372 162.428 367.602 163.963 366.502 165.134C365.402 166.304 364.023 167.054 362.55 167.285C361.077 167.515 359.578 167.215 358.254 166.424C356.931 165.633 355.844 164.388 355.138 162.856C354.433 161.323 354.143 159.576 354.307 157.846C354.47 156.115 355.08 154.485 356.054 153.17C357.028 151.856 358.322 150.92 359.761 150.487C361.201 150.054 362.719 150.145 364.113 150.747L364.113 150.75Z" fill="#FEB8B8"/>
<path d="M403.593 91.7366C411.199 94.8801 412.539 128.941 412.539 128.941C403.591 123.178 392.854 132.609 392.854 132.609C392.854 132.609 390.617 123.701 387.933 112.174C387.122 108.932 387.025 105.502 387.651 102.204C388.276 98.9057 389.604 95.8466 391.511 93.3113C391.511 93.3113 395.987 88.5913 403.593 91.7366Z" fill="#E6E6E6"/>
<path d="M394.685 58.3613C392.552 56.3628 389.642 59.994 389.642 59.994L387.936 42.0117C387.936 42.0117 377.271 43.5081 370.444 41.5119C363.617 39.5158 362.552 48.7591 362.552 48.7591C362.2 45.0262 362.128 41.2642 362.338 37.5167C362.765 33.0199 368.31 28.5232 378.123 25.5252C387.935 22.5272 393.054 35.5182 393.054 35.5182C399.884 39.5123 396.821 60.3621 394.685 58.3613Z" fill="#2F2E41"/>
<path d="M420.027 348.443H54.9902V349.713H420.027V348.443Z" fill="#E6E6E6"/>
<path d="M119.907 326.021C121.469 326.664 123.146 326.826 124.777 326.489C126.408 326.153 127.937 325.33 129.217 324.101C132.478 320.896 133.5 315.615 134.332 310.725L136.792 296.263L131.641 300.417C127.937 303.404 124.149 306.487 121.584 310.814C119.019 315.141 117.899 321.047 119.96 325.729" fill="#E6E6E6"/>
<path d="M120.703 344.537C120.055 339.005 119.388 333.402 119.843 327.811C120.247 322.845 121.54 317.995 124.174 314.019C125.572 311.912 127.272 310.107 129.2 308.685C129.702 308.313 130.165 309.246 129.665 309.616C126.329 312.084 123.749 315.729 122.296 320.026C120.692 324.804 120.435 330.012 120.712 335.087C120.879 338.156 121.233 341.205 121.59 344.25C121.618 344.388 121.601 344.533 121.541 344.656C121.481 344.779 121.384 344.871 121.268 344.913C121.151 344.95 121.025 344.932 120.919 344.861C120.813 344.79 120.735 344.674 120.702 344.536L120.703 344.537Z" fill="#F2F2F2"/>
<path d="M125.37 335.661C126.04 336.854 126.96 337.824 128.043 338.479C129.126 339.133 130.335 339.45 131.553 339.399C134.683 339.225 137.293 336.667 139.642 334.239L146.591 327.055L141.992 326.797C138.685 326.612 135.293 326.439 132.141 327.633C128.989 328.828 126.086 331.702 125.51 335.518" fill="#E6E6E6"/>
<path d="M118.87 347.718C121.989 341.25 125.612 334.061 132.08 331.763C133.879 331.127 135.765 330.899 137.637 331.092C138.227 331.149 138.079 332.216 137.488 332.157C134.351 331.852 131.219 332.822 128.621 334.904C126.121 336.897 124.174 339.668 122.527 342.607C121.517 344.404 120.613 346.283 119.709 348.157C119.421 348.756 118.58 348.324 118.87 347.718Z" fill="#F2F2F2"/>
<path d="M312.62 161.087H156.34C155.573 161.086 154.838 160.729 154.295 160.094C153.752 159.458 153.447 158.597 153.446 157.698V112.297C153.447 111.398 153.752 110.536 154.295 109.901C154.838 109.266 155.573 108.908 156.34 108.907H312.62C313.387 108.908 314.123 109.266 314.665 109.901C315.208 110.536 315.513 111.398 315.514 112.297V157.698C315.513 158.597 315.208 159.458 314.665 160.094C314.123 160.729 313.387 161.086 312.62 161.087ZM156.34 110.263C155.88 110.264 155.438 110.478 155.113 110.86C154.787 111.241 154.604 111.758 154.604 112.297V157.699C154.604 158.238 154.787 158.755 155.113 159.136C155.438 159.518 155.88 159.732 156.34 159.733H312.62C313.08 159.732 313.522 159.518 313.847 159.136C314.173 158.755 314.356 158.238 314.356 157.699V112.297C314.356 111.757 314.173 111.24 313.847 110.859C313.522 110.478 313.08 110.263 312.62 110.263L156.34 110.263Z" fill="#E6E6E6"/>
<path d="M207.85 124.05C207.329 124.05 206.829 124.293 206.461 124.724C206.092 125.156 205.885 125.741 205.885 126.351C205.885 126.962 206.092 127.547 206.461 127.979C206.829 128.41 207.329 128.653 207.85 128.653H300.476C300.998 128.653 301.497 128.41 301.866 127.979C302.234 127.547 302.441 126.962 302.441 126.351C302.441 125.741 302.234 125.156 301.866 124.724C301.497 124.293 300.998 124.05 300.476 124.05H207.85Z" fill="#E6E6E6"/>
<path d="M207.85 137.858C207.329 137.858 206.829 138.1 206.461 138.532C206.092 138.963 205.885 139.549 205.885 140.159C205.885 140.769 206.092 141.354 206.461 141.786C206.829 142.218 207.329 142.46 207.85 142.46H247.707C248.229 142.46 248.728 142.218 249.097 141.786C249.465 141.354 249.672 140.769 249.672 140.159C249.672 139.549 249.465 138.963 249.097 138.532C248.728 138.1 248.229 137.858 247.707 137.858H207.85Z" fill="#E6E6E6"/>
<path d="M181.999 146.957C189.209 146.957 195.053 140.776 195.053 133.15C195.053 125.525 189.209 119.344 181.999 119.344C174.789 119.344 168.945 125.525 168.945 133.15C168.945 140.776 174.789 146.957 181.999 146.957Z" fill="#E6E6E6"/>
<path d="M179.947 140.824C179.509 140.824 179.082 140.674 178.731 140.396L178.709 140.378L174.127 136.671C173.698 136.324 173.418 135.81 173.347 135.244C173.276 134.677 173.421 134.104 173.749 133.651C174.078 133.197 174.563 132.9 175.099 132.825C175.634 132.75 176.176 132.903 176.605 133.251L179.573 135.657L186.586 125.981C186.914 125.528 187.399 125.231 187.934 125.157C188.469 125.082 189.011 125.235 189.439 125.582L189.396 125.646L189.441 125.582C189.869 125.93 190.149 126.443 190.219 127.009C190.29 127.575 190.145 128.147 189.817 128.6L181.569 139.984C181.378 140.246 181.133 140.458 180.852 140.603C180.571 140.749 180.262 140.824 179.95 140.823L179.947 140.824Z" fill="#046CC6"/>
</svg>
