<svg width="519" height="368" viewBox="0 0 519 368" fill="none" xmlns="http://www.w3.org/2000/svg">
<path d="M299 47H251V48H299V47Z" fill="#CCCCCC"/>
<path d="M208.323 47.5337H47.6589V48.6023H208.323V47.5337Z" fill="#CCCCCC"/>
<path d="M49.7777 69.9699C61.8727 69.9699 71.6777 60.1639 71.6777 48.0676C71.6777 35.9713 61.8727 26.1653 49.7777 26.1653C37.6827 26.1653 27.8777 35.9713 27.8777 48.0676C27.8777 60.1639 37.6827 69.9699 49.7777 69.9699Z" fill="white"/>
<path d="M140 69.9699C152.095 69.9699 161.9 60.1639 161.9 48.0676C161.9 35.9713 152.095 26.1653 140 26.1653C127.905 26.1653 118.1 35.9713 118.1 48.0676C118.1 60.1639 127.905 69.9699 140 69.9699Z" fill="#3F3D56"/>
<path d="M229.738 69.4313C225.406 69.4313 221.172 68.1469 217.571 65.7405C213.969 63.3341 211.162 59.9138 209.505 55.9121C207.847 51.9104 207.414 47.5071 208.259 43.2589C209.104 39.0107 211.189 35.1085 214.252 32.0457C217.315 28.9829 221.217 26.8972 225.465 26.0522C229.714 25.2071 234.117 25.6408 238.119 27.2984C242.12 28.956 245.541 31.7629 247.947 35.3644C250.354 38.9658 251.638 43.1999 251.638 47.5313C251.638 53.3396 249.331 58.9099 245.224 63.017C241.117 67.124 235.546 69.4313 229.738 69.4313ZM229.738 26.6743C225.613 26.6743 221.58 27.8976 218.15 30.1894C214.72 32.4812 212.047 35.7386 210.469 39.5497C208.89 43.3608 208.477 47.5545 209.282 51.6004C210.086 55.6462 212.073 59.3626 214.99 62.2795C217.907 65.1964 221.623 67.1828 225.669 67.9876C229.715 68.7924 233.908 68.3793 237.72 66.8007C241.531 65.2221 244.788 62.5488 247.08 59.1189C249.372 55.689 250.595 51.6565 250.595 47.5313C250.595 41.9997 248.397 36.6947 244.486 32.7832C240.575 28.8718 235.27 26.6743 229.738 26.6743Z" fill="#CCCCCC"/>
<path d="M319.961 69.4313C315.629 69.4313 311.395 68.1469 307.794 65.7405C304.192 63.3341 301.385 59.9138 299.728 55.9121C298.07 51.9104 297.636 47.5071 298.481 43.2589C299.326 39.0107 301.412 35.1085 304.475 32.0457C307.538 28.9829 311.44 26.8972 315.688 26.0522C319.936 25.2071 324.34 25.6408 328.341 27.2984C332.343 28.956 335.763 31.7629 338.17 35.3644C340.576 38.9658 341.861 43.1999 341.861 47.5313C341.861 53.3396 339.553 58.9099 335.446 63.017C331.339 67.124 325.769 69.4313 319.961 69.4313ZM319.961 26.6743C315.835 26.6743 311.803 27.8976 308.373 30.1894C304.943 32.4812 302.27 35.7386 300.691 39.5497C299.113 43.3608 298.7 47.5545 299.504 51.6004C300.309 55.6462 302.296 59.3626 305.212 62.2795C308.129 65.1964 311.846 67.1828 315.892 67.9876C319.937 68.7924 324.131 68.3793 327.942 66.8007C331.753 65.2221 335.011 62.5488 337.302 59.1189C339.594 55.689 340.818 51.6565 340.818 47.5313C340.818 44.7924 340.278 42.0802 339.23 39.5497C338.182 37.0192 336.645 34.72 334.709 32.7832C332.772 30.8465 330.473 29.3102 327.942 28.262C325.412 27.2138 322.7 26.6743 319.961 26.6743Z" fill="#CCCCCC"/>
<path d="M48.1361 55.5981C47.7886 55.5984 47.4504 55.4736 47.1726 55.2425L47.1555 55.2283L43.5248 52.1536C43.1852 51.8653 42.963 51.4395 42.907 50.9698C42.8509 50.5001 42.9657 50.025 43.2261 49.649C43.4864 49.273 43.871 49.027 44.2952 48.965C44.7195 48.9029 45.1486 49.03 45.4881 49.3183L47.8395 51.315L53.3961 43.288C53.6564 42.9122 54.0407 42.6663 54.4647 42.6043C54.8888 42.5422 55.3176 42.6692 55.6571 42.9573L55.6228 43.0101L55.6581 42.9573C55.9973 43.2458 56.2191 43.6716 56.275 44.141C56.3309 44.6105 56.2163 45.0853 55.9563 45.4613L49.4202 54.8982C49.2688 55.1158 49.0741 55.2918 48.8513 55.4126C48.6285 55.5333 48.3836 55.5956 48.1355 55.5946L48.1361 55.5981Z" fill="black"/>
<path d="M353.094 141.769C353.464 141.956 353.819 142.175 354.157 142.425L387.961 126.451L389.167 116.591L402.675 116.5L401.877 139.114L357.259 152.181C357.165 152.524 357.052 152.86 356.921 153.188C356.276 154.712 355.238 155.991 353.939 156.864C352.639 157.738 351.136 158.166 349.617 158.097C348.098 158.027 346.632 157.462 345.402 156.472C344.172 155.483 343.234 154.113 342.705 152.535C342.176 150.957 342.08 149.242 342.429 147.603C342.777 145.965 343.556 144.478 344.665 143.327C345.775 142.177 347.167 141.416 348.667 141.139C350.166 140.862 351.706 141.082 353.093 141.77L353.094 141.769Z" fill="#FEB8B8"/>
<path d="M407.587 346.687H398.347L393.951 307.225H407.588L407.587 346.687Z" fill="#FEB8B8"/>
<path d="M391.747 343.764H409.567V356.183H380.527C380.527 352.888 381.709 349.728 383.813 347.398C385.917 345.069 388.771 343.76 391.747 343.76V343.764Z" fill="#2F2E41"/>
<path d="M443.522 343.797L434.328 344.798L426.459 306.004L440.031 304.528L443.522 343.797Z" fill="#FEB8B8"/>
<path d="M427.495 342.609L445.226 340.675L446.325 353.036L417.431 356.187C417.139 352.909 418.036 349.637 419.923 347.09C421.81 344.544 424.533 342.932 427.494 342.609H427.495Z" fill="#2F2E41"/>
<path d="M410.159 74.7355C420.382 74.7355 428.67 65.5591 428.67 54.2396C428.67 42.92 420.382 33.7437 410.159 33.7437C399.936 33.7437 391.648 42.92 391.648 54.2396C391.648 65.5591 399.936 74.7355 410.159 74.7355Z" fill="#FEB8B8"/>
<path d="M396.282 338.706C395.487 338.708 394.718 338.399 394.109 337.834C393.5 337.269 393.091 336.485 392.954 335.618C388.174 306.229 372.538 210.11 372.164 207.445C372.156 207.384 372.152 207.322 372.152 207.26V200.093C372.151 199.832 372.225 199.577 372.362 199.365L374.427 196.165C374.525 196.011 374.654 195.883 374.804 195.793C374.953 195.703 375.119 195.651 375.29 195.643C387.065 195.032 425.624 193.241 427.486 195.817C429.357 198.404 428.692 206.255 428.541 207.801L428.549 207.962L445.873 330.632C446.009 331.61 445.791 332.609 445.267 333.411C444.743 334.213 443.954 334.754 443.072 334.917L432.252 336.89C431.447 337.034 430.621 336.852 429.926 336.378C429.231 335.905 428.712 335.17 428.465 334.309C425.118 322.469 413.897 282.639 410.008 267.226C409.987 267.125 409.932 267.036 409.855 266.977C409.777 266.918 409.682 266.893 409.589 266.908C409.496 266.923 409.411 266.976 409.352 267.057C409.292 267.138 409.263 267.241 409.269 267.345C409.463 282.037 409.932 319.52 410.098 332.467L410.115 333.861C410.122 334.805 409.809 335.718 409.238 336.419C408.667 337.119 407.879 337.558 407.03 337.647L396.597 338.693C396.492 338.703 396.387 338.708 396.282 338.706Z" fill="#2F2E41"/>
<path d="M398.411 82.7949C395.181 84.9214 393.247 88.8282 392.138 92.8109C390.084 100.172 388.848 107.783 388.457 115.475L387.284 138.505L372.772 199.566C385.35 211.35 392.605 208.671 409.537 199.032C426.469 189.394 428.403 202.246 428.403 202.246L431.789 150.292L436.626 93.5191C435.54 92.0715 434.311 90.7632 432.962 89.6188C428.491 85.7685 423.289 83.0919 417.748 81.7909C412.207 80.4899 406.471 80.5983 400.974 82.108L398.411 82.7949Z" fill="#E6E6E6"/>
<path d="M393.697 154.1C394.087 154.262 394.465 154.457 394.828 154.685L428.253 136.159L428.808 126.123L442.596 125.071L443.335 147.947L398.667 164.305C398.302 166.038 397.47 167.607 396.28 168.803C395.091 170 393.6 170.767 392.007 171.002C390.414 171.238 388.794 170.931 387.363 170.122C385.931 169.314 384.756 168.041 383.994 166.475C383.231 164.909 382.917 163.122 383.094 161.354C383.271 159.585 383.93 157.918 384.984 156.574C386.037 155.23 387.435 154.273 388.992 153.831C390.549 153.389 392.19 153.481 393.698 154.097L393.697 154.1Z" fill="#FEB8B8"/>
<path d="M436.385 93.7753C444.608 96.9887 446.058 131.807 446.058 131.807C436.383 125.915 424.773 135.556 424.773 135.556C424.773 135.556 422.355 126.45 419.452 114.667C418.576 111.353 418.471 107.846 419.147 104.475C419.824 101.104 421.26 97.9766 423.322 95.385C423.322 95.385 428.161 90.5601 436.385 93.7753Z" fill="#E6E6E6"/>
<path d="M426.754 59.6583C424.447 57.6154 421.301 61.3272 421.301 61.3272L419.456 42.9453C419.456 42.9453 407.925 44.475 400.543 42.4344C393.161 40.3939 392.009 49.8427 392.009 49.8427C391.628 46.0268 391.551 42.1813 391.778 38.3504C392.24 33.7537 398.236 29.1571 408.845 26.0925C419.455 23.0278 424.99 36.3075 424.99 36.3075C432.374 40.3903 429.063 61.7035 426.754 59.6583Z" fill="#2F2E41"/>
<path d="M454.154 356.187H59.4583V357.485H454.154V356.187Z" fill="#E6E6E6"/>
<path d="M129.65 333.266C131.339 333.924 133.152 334.088 134.916 333.744C136.679 333.4 138.332 332.559 139.716 331.303C143.242 328.026 144.347 322.629 145.247 317.63L147.907 302.846L142.338 307.093C138.332 310.146 134.237 313.298 131.463 317.721C128.689 322.144 127.479 328.182 129.707 332.967" fill="#E6E6E6"/>
<path d="M130.51 352.194C129.809 346.539 129.088 340.811 129.58 335.096C130.017 330.02 131.415 325.062 134.263 320.997C135.774 318.843 137.613 316.998 139.697 315.545C140.241 315.165 140.741 316.118 140.2 316.496C136.593 319.019 133.803 322.746 132.233 327.138C130.498 332.022 130.22 337.346 130.52 342.533C130.701 345.671 131.083 348.787 131.469 351.9C131.5 352.041 131.481 352.189 131.416 352.315C131.352 352.441 131.246 352.535 131.121 352.578C130.994 352.616 130.858 352.597 130.744 352.525C130.629 352.453 130.545 352.333 130.509 352.193L130.51 352.194Z" fill="#F2F2F2"/>
<path d="M135.556 343.12C136.28 344.339 137.276 345.331 138.447 346C139.618 346.67 140.925 346.994 142.242 346.941C145.627 346.763 148.449 344.148 150.988 341.667L158.501 334.322L153.529 334.059C149.954 333.87 146.286 333.693 142.878 334.914C139.469 336.135 136.331 339.073 135.708 342.974" fill="#E6E6E6"/>
<path d="M128.529 355.445C131.901 348.833 135.818 341.485 142.812 339.136C144.757 338.485 146.796 338.252 148.82 338.449C149.458 338.508 149.299 339.599 148.659 339.538C145.267 339.226 141.881 340.218 139.072 342.346C136.368 344.384 134.263 347.216 132.482 350.22C131.391 352.058 130.413 353.978 129.436 355.894C129.124 356.505 128.214 356.064 128.529 355.445Z" fill="#F2F2F2"/>
<path d="M338.02 164.667H169.043C168.213 164.666 167.418 164.301 166.831 163.651C166.245 163.002 165.915 162.121 165.914 161.203V114.792C165.915 113.874 166.245 112.993 166.831 112.343C167.418 111.694 168.213 111.328 169.043 111.327H338.02C338.85 111.328 339.645 111.694 340.232 112.343C340.818 112.993 341.148 113.874 341.149 114.792V161.203C341.148 162.121 340.818 163.002 340.232 163.651C339.645 164.301 338.85 164.666 338.02 164.667ZM169.043 112.714C168.545 112.714 168.068 112.933 167.716 113.323C167.364 113.713 167.166 114.241 167.165 114.793V161.203C167.166 161.754 167.364 162.283 167.716 162.673C168.068 163.063 168.545 163.282 169.043 163.282H338.02C338.518 163.282 338.995 163.063 339.347 162.673C339.699 162.283 339.897 161.754 339.898 161.203V114.792C339.897 114.241 339.699 113.712 339.347 113.322C338.995 112.933 338.518 112.713 338.02 112.713L169.043 112.714Z" fill="#E6E6E6"/>
<path d="M224.738 126.807C224.174 126.807 223.634 127.055 223.236 127.496C222.837 127.937 222.613 128.535 222.613 129.159C222.613 129.783 222.837 130.381 223.236 130.822C223.634 131.264 224.174 131.511 224.738 131.511H324.89C325.453 131.511 325.994 131.264 326.392 130.822C326.791 130.381 327.014 129.783 327.014 129.159C327.014 128.535 326.791 127.937 326.392 127.496C325.994 127.055 325.453 126.807 324.89 126.807H224.738Z" fill="#E6E6E6"/>
<path d="M224.738 140.921C224.174 140.921 223.634 141.169 223.236 141.61C222.837 142.051 222.613 142.65 222.613 143.273C222.613 143.897 222.837 144.496 223.236 144.937C223.634 145.378 224.174 145.626 224.738 145.626H267.833C268.397 145.626 268.937 145.378 269.336 144.937C269.734 144.496 269.958 143.897 269.958 143.273C269.958 142.65 269.734 142.051 269.336 141.61C268.937 141.169 268.397 140.921 267.833 140.921H224.738Z" fill="#E6E6E6"/>
<path d="M196.787 150.223C204.582 150.223 210.902 143.904 210.902 136.109C210.902 128.315 204.582 121.996 196.787 121.996C188.991 121.996 182.672 128.315 182.672 136.109C182.672 143.904 188.991 150.223 196.787 150.223Z" fill="#E6E6E6"/>
<path d="M194.569 143.953C194.094 143.954 193.633 143.8 193.253 143.516L193.23 143.498L188.276 139.709C187.812 139.353 187.508 138.828 187.432 138.249C187.355 137.67 187.511 137.085 187.867 136.621C188.222 136.157 188.747 135.854 189.326 135.777C189.905 135.7 190.491 135.857 190.955 136.212L194.164 138.672L201.746 128.781C202.102 128.317 202.626 128.014 203.205 127.938C203.783 127.861 204.368 128.018 204.832 128.373L204.785 128.438L204.833 128.373C205.296 128.728 205.599 129.253 205.675 129.831C205.751 130.41 205.595 130.995 205.241 131.458L196.322 143.094C196.116 143.362 195.85 143.579 195.547 143.728C195.243 143.877 194.909 143.954 194.571 143.953L194.569 143.953Z" fill="#046CC6"/>
</svg>
